<svg width="74" height="103" viewBox="0 0 74 103" fill="none" xmlns="http://www.w3.org/2000/svg">
    <path d="M23.1279 36.0612L27.3996 41.7779C27.5603 41.9932 27.8378 42.0852 28.095 42.0088C28.3521 41.9325 28.5346 41.704 28.5519 41.4359L29.0137 34.3146C29.3874 28.5495 32.2669 23.2378 36.8929 19.7803L42.6074 15.5085C42.8223 15.3479 42.9142 15.0703 42.8379 14.8131C42.7615 14.5558 42.533 14.3733 42.2654 14.3559L35.1454 13.8928C29.3821 13.5181 24.0714 10.6373 20.614 6.00948L16.3423 0.292814C16.1817 0.0779112 15.9042 -0.0140961 15.647 0.0622138C15.3899 0.138524 15.2074 0.367052 15.1901 0.63476L14.7282 7.75613C14.3544 13.5208 11.4752 18.8321 6.84886 22.29L1.13399 26.5619C0.919171 26.7225 0.827233 27.0002 0.903566 27.2574C0.979899 27.5146 1.2084 27.6971 1.47604 27.7146L8.59568 28.1777C14.3593 28.552 19.67 31.4328 23.1279 36.0612Z" fill="#E57C5F"/>
    <path d="M72.9391 67.1451L66.6665 63.7464C61.5881 60.9949 57.9696 56.1566 56.7652 50.5069L55.2769 43.5275C55.2209 43.2651 55.0073 43.0654 54.7418 43.0272C54.4763 42.9889 54.215 43.1201 54.0872 43.356L50.6886 49.6307C47.9375 54.7108 43.1 58.3303 37.4517 59.5359L30.4743 61.0249C30.212 61.0809 30.0123 61.2946 29.9741 61.5602C29.9358 61.8258 30.067 62.0872 30.3028 62.215L36.5761 65.6145C41.654 68.3659 45.2722 73.2041 46.4769 78.8539L47.9652 85.8337C48.0212 86.0961 48.2348 86.2958 48.5003 86.334C48.7658 86.3723 49.0271 86.241 49.1549 86.0051L52.5536 79.7297C55.3047 74.65 60.1418 71.03 65.79 69.8249L72.768 68.3351C73.0303 68.2791 73.2299 68.0654 73.2682 67.7999C73.3065 67.5343 73.1749 67.2728 72.9391 67.1451Z" fill="#EC79DD"/>
    <path d="M34.3675 88.8182L30.3761 87.3464C27.1452 86.1547 24.598 83.6067 23.4059 80.3745L21.9342 76.3819C21.8787 76.2321 21.7358 76.1321 21.5758 76.1321C21.4158 76.1321 21.2729 76.2321 21.2174 76.3819L19.7457 80.3741C18.5543 83.6063 16.0071 86.1543 12.7755 87.3464L8.7849 88.8182C8.63437 88.8733 8.53516 89.0167 8.53516 89.1767C8.53516 89.3367 8.63475 89.4801 8.7849 89.5352L12.7759 91.0077C16.0067 92.1994 18.554 94.7474 19.7457 97.9796L21.2174 101.972C21.2729 102.122 21.4158 102.222 21.5758 102.222C21.7358 102.222 21.8791 102.122 21.9342 101.972L23.4063 97.9792C24.5976 94.7474 27.1445 92.1998 30.3757 91.0077L34.3675 89.5352C34.5176 89.4801 34.6172 89.3367 34.6172 89.1767C34.6172 89.0167 34.518 88.8733 34.3675 88.8182Z" fill="#3D85E6"/>
</svg>
