<svg width="53" height="86" viewBox="0 0 53 86" fill="none" xmlns="http://www.w3.org/2000/svg">
    <path d="M3.90971 22.1437L6.34202 28.7732C8.31063 34.1395 7.82974 40.0998 5.02614 45.0824L1.56273 51.2376C1.43294 51.4693 1.46036 51.7576 1.63233 51.9597C1.8043 52.1618 2.08451 52.2349 2.33392 52.1439L8.96323 49.71C14.3308 47.7395 20.2912 48.2186 25.2737 51.021L31.4281 54.4824C31.6593 54.6125 31.9476 54.585 32.1498 54.413C32.3519 54.241 32.4256 53.9604 32.3342 53.7114L29.9015 47.0823C27.9333 41.7156 28.4142 35.7554 31.2178 30.7727L34.6824 24.6172C34.8122 24.3856 34.7848 24.0972 34.6128 23.8952C34.4408 23.6931 34.1606 23.6199 33.9112 23.7109L27.2803 26.1454C21.9128 28.1159 15.9531 27.6369 10.9706 24.8345L4.81585 21.3727C4.58467 21.2426 4.29591 21.2705 4.09376 21.4425C3.8916 21.6145 3.81832 21.8947 3.90971 22.1437Z" fill="#3D85E6"/>
    <path d="M37.961 1.05731L39.1258 4.23306C40.0689 6.80347 39.8385 9.65804 38.4958 12.0445L36.8374 14.9928C36.775 15.1034 36.7885 15.2415 36.8708 15.3383C36.9532 15.4351 37.0874 15.4705 37.2066 15.4266L40.3823 14.2614C42.9531 13.3176 45.8077 13.547 48.1936 14.8892L51.142 16.5472C51.2526 16.6097 51.3907 16.5961 51.4876 16.5137C51.5845 16.4313 51.6199 16.2971 51.576 16.1779L50.4114 13.0025C49.4681 10.4318 49.6987 7.57697 51.0417 5.19031L52.7004 2.24177C52.7629 2.13116 52.7494 1.99304 52.667 1.89621C52.5846 1.79939 52.4504 1.76398 52.3312 1.80793L49.1553 2.9734C46.5844 3.91717 43.7295 3.68797 41.3429 2.34546L38.3947 0.687738C38.2841 0.625316 38.146 0.638838 38.0491 0.721255C37.9523 0.803672 37.9168 0.937866 37.961 1.05731Z" fill="#E57C5F"/>
    <path d="M1.62631 70.0218L2.79142 73.1973C3.73447 75.7677 3.50415 78.6223 2.16091 81.0086L0.502516 83.9569C0.439771 84.0678 0.453252 84.2059 0.535644 84.3027C0.618036 84.3996 0.752225 84.435 0.871404 84.391L4.04655 83.2258C6.61737 82.282 9.47254 82.5115 11.8589 83.8537L14.8071 85.512C14.9176 85.5744 15.0558 85.5609 15.1526 85.4784C15.2495 85.396 15.2849 85.2618 15.241 85.1427L14.0764 81.9672C13.1332 79.3965 13.3635 76.5414 14.7068 74.1545L16.3654 71.2065C16.4279 71.0959 16.4144 70.9578 16.332 70.8609C16.2496 70.7641 16.1154 70.7287 15.9963 70.7727L12.8203 71.9381C10.2492 72.8821 7.39455 72.6527 5.00822 71.3099L2.06004 69.6522C1.94944 69.5898 1.8113 69.6033 1.71445 69.6857C1.6176 69.7681 1.58214 69.9023 1.62631 70.0218Z" fill="#EC79DD"/>
</svg>
