<svg xmlns="http://www.w3.org/2000/svg" width="97" height="106" viewBox="0 0 97 106" fill="none">
  <g clip-path="url(#clip0_164_30892)">
    <rect width="74.6246" height="89.3695" rx="12.1119" transform="matrix(0.929926 0.367747 -0.371634 0.928379 30.3319 -2.89655)" fill="url(#paint0_linear_164_30892)"/>
    <rect width="74.6246" height="89.3695" rx="12.1119" transform="matrix(0.929926 0.367747 -0.371634 0.928379 30.3319 -2.89655)" fill="url(#paint1_linear_164_30892)"/>
    <g filter="url(#filter0_df_164_30892)">
      <rect width="71.3801" height="87.216" rx="12.1119" transform="matrix(0.929926 0.367747 -0.371634 0.928379 30.3319 -2.89655)" fill="url(#paint2_linear_164_30892)"/>
    </g>
    <g filter="url(#filter1_f_164_30892)">
      <rect x="0.140874" y="0.327052" width="70.8754" height="86.7114" rx="11.8595" transform="matrix(0.929926 0.367747 -0.371634 0.928379 30.4633 -2.92493)" stroke="url(#paint3_linear_164_30892)" stroke-width="0.504661"/>
    </g>
    <rect width="73.9924" height="88.4752" rx="12" transform="matrix(0.995328 0.0965522 -0.0977241 0.995214 12.5964 10.2374)" fill="url(#paint4_linear_164_30892)"/>
    <rect width="73.9924" height="88.4752" rx="12" transform="matrix(0.995328 0.0965522 -0.0977241 0.995214 12.5964 10.2374)" fill="url(#paint5_linear_164_30892)"/>
    <g filter="url(#filter2_df_164_30892)">
      <rect width="70.7754" height="86.3433" rx="12" transform="matrix(0.995328 0.0965522 -0.0977241 0.995214 12.5964 10.2374)" fill="url(#paint6_linear_164_30892)"/>
    </g>
    <g filter="url(#filter3_f_164_30892)">
      <rect x="0.224401" y="0.272941" width="70.2754" height="85.8433" rx="11.75" transform="matrix(0.995328 0.0965522 -0.0977241 0.995214 12.6242 10.2171)" stroke="url(#paint7_linear_164_30892)" stroke-width="0.5"/>
    </g>
    <g filter="url(#filter4_dd_164_30892)">
      <rect width="46.7735" height="5.34486" rx="2.67243" transform="matrix(0.994931 0.100566 -0.102415 0.994742 19.7046 69.7293)" fill="url(#paint8_linear_164_30892)"/>
    </g>
    <g filter="url(#filter5_f_164_30892)">
      <rect width="46.7735" height="5.34486" rx="2.67243" transform="matrix(0.994931 0.100566 -0.102415 0.994742 19.7046 69.7293)" fill="url(#paint9_linear_164_30892)"/>
      <rect x="0.446258" y="0.547654" width="45.7735" height="4.34486" rx="2.17243" transform="matrix(0.994931 0.100566 -0.102415 0.994742 19.763 69.6873)" stroke="url(#paint10_linear_164_30892)"/>
    </g>
    <g style="mix-blend-mode:overlay" opacity="0.3">
      <rect width="46.7735" height="5.34486" rx="2.67243" transform="matrix(0.994931 0.100566 -0.102415 0.994742 19.7046 69.7293)" fill="url(#paint11_linear_164_30892)"/>
    </g>
    <g style="mix-blend-mode:overlay">
      <rect x="0.173951" y="0.213475" width="46.3837" height="4.95506" rx="2.47753" transform="matrix(0.994931 0.100566 -0.102415 0.994742 19.7274 69.713)" stroke="url(#paint12_linear_164_30892)" stroke-width="0.389799"/>
    </g>
    <g filter="url(#filter6_dd_164_30892)">
      <rect width="46.7735" height="5.34486" rx="2.67243" transform="matrix(0.994931 0.100566 -0.102415 0.994742 18.7573 79.3768)" fill="url(#paint13_linear_164_30892)"/>
    </g>
    <g filter="url(#filter7_f_164_30892)">
      <rect width="46.7735" height="5.34486" rx="2.67243" transform="matrix(0.994931 0.100566 -0.102415 0.994742 18.7573 79.3768)" fill="url(#paint14_linear_164_30892)"/>
      <rect x="0.446258" y="0.547654" width="45.7735" height="4.34486" rx="2.17243" transform="matrix(0.994931 0.100566 -0.102415 0.994742 18.8157 79.3348)" stroke="url(#paint15_linear_164_30892)"/>
    </g>
    <g style="mix-blend-mode:overlay" opacity="0.3">
      <rect width="46.7735" height="5.34486" rx="2.67243" transform="matrix(0.994931 0.100566 -0.102415 0.994742 18.7573 79.3768)" fill="url(#paint16_linear_164_30892)"/>
    </g>
    <g style="mix-blend-mode:overlay">
      <rect x="0.173951" y="0.213475" width="46.3837" height="4.95506" rx="2.47753" transform="matrix(0.994931 0.100566 -0.102415 0.994742 18.7898 79.2607)" stroke="url(#paint17_linear_164_30892)" stroke-width="0.389799"/>
    </g>
    <g opacity="0.6" filter="url(#filter8_f_164_30892)">
      <path d="M46.9394 25.9442C48.3717 26.0397 49.7699 26.4198 51.0512 27.062C52.3325 27.7043 53.4707 28.5957 54.3984 29.6832C55.3261 30.7708 56.0245 32.0326 56.4521 33.3936C56.8797 34.7547 57.0279 36.1874 56.8878 37.6069C56.7477 39.0263 56.3222 40.4037 55.6366 41.6573C54.951 42.9109 54.0191 44.0152 52.8963 44.9048C51.7734 45.7945 50.4824 46.4513 49.0997 46.8364C47.7171 47.2215 46.2709 47.327 44.847 47.1467C43.4146 47.0513 42.0164 46.6712 40.7351 46.0289C39.4538 45.3866 38.3156 44.4953 37.3879 43.4077C36.4602 42.3201 35.7618 41.0584 35.3342 39.6973C34.9066 38.3363 34.7584 36.9035 34.8985 35.484C35.0386 34.0646 35.4641 32.6872 36.1497 31.4336C36.8354 30.1801 37.7672 29.0757 38.8901 28.1861C40.0129 27.2965 41.3039 26.6396 42.6866 26.2545C44.0692 25.8694 45.5154 25.7639 46.9394 25.9442Z" fill="#D31CDD"/>
    </g>
    <path d="M46.9175 24.9867C48.3498 25.0821 49.7481 25.4623 51.0293 26.1045C52.3106 26.7468 53.4488 27.6381 54.3765 28.7257C55.3043 29.8133 56.0026 31.075 56.4302 32.4361C56.8578 33.7972 57.006 35.2299 56.8659 36.6493C56.7258 38.0688 56.3004 39.4462 55.6147 40.6998C54.9291 41.9534 53.9972 43.0577 52.8744 43.9473C51.7515 44.8369 50.4605 45.4938 49.0779 45.8789C47.6952 46.264 46.249 46.3695 44.8251 46.1892C43.3927 46.0938 41.9945 45.7136 40.7132 45.0714C39.432 44.4291 38.2938 43.5378 37.366 42.4502C36.4383 41.3626 35.7399 40.1009 35.3123 38.7398C34.8847 37.3787 34.7366 35.946 34.8767 34.5265C35.0167 33.1071 35.4422 31.7297 36.1278 30.4761C36.8135 29.2225 37.7453 28.1182 38.8682 27.2286C39.991 26.3389 41.282 25.6821 42.6647 25.297C44.0473 24.9119 45.4935 24.8064 46.9175 24.9867Z" fill="#D31CDD"/>
    <path d="M46.8677 25.3733L46.8792 25.3748L46.8907 25.3755C48.2714 25.4675 49.6191 25.8339 50.854 26.453C52.0888 27.072 53.1857 27.931 54.0796 28.9789C54.9736 30.0269 55.6463 31.2425 56.0582 32.5536C56.4702 33.8647 56.6128 35.2447 56.4779 36.6119C56.343 37.9791 55.9332 39.3058 55.2727 40.5134C54.6123 41.7209 53.7145 42.7849 52.6326 43.6421C51.5507 44.4993 50.3065 45.1323 48.9739 45.5035C47.6413 45.8746 46.2474 45.9764 44.8749 45.8026L44.8634 45.8011L44.8518 45.8004C43.4712 45.7083 42.1235 45.3419 40.8886 44.7229C39.6537 44.1039 38.5568 43.2449 37.6629 42.1969C36.769 41.149 36.0962 39.9334 35.6843 38.6223C35.2724 37.3112 35.1297 35.9312 35.2646 34.564C35.3996 33.1968 35.8094 31.8701 36.4698 30.6625C37.1303 29.455 38.028 28.391 39.11 27.5338C40.1919 26.6766 41.436 26.0436 42.7686 25.6724C44.1012 25.3013 45.4951 25.1995 46.8677 25.3733Z" fill="url(#paint18_linear_164_30892)" stroke="url(#paint19_linear_164_30892)" stroke-width="0.779599"/>
    <g style="mix-blend-mode:overlay">
      <path d="M46.7041 26.0261L46.704 26.0265L46.7154 26.0272C48.0559 26.1173 49.3649 26.4692 50.5646 27.0621C51.7644 27.6549 52.8304 28.4766 53.6997 29.4782C54.5689 30.4797 55.2237 31.6408 55.6255 32.8924C56.0273 34.1441 56.1679 35.4609 56.0392 36.7651C55.9105 38.0692 55.515 39.3344 54.8761 40.4855C54.2372 41.6367 53.3678 42.6506 52.3192 43.467C51.2705 44.2835 50.0639 44.8857 48.7709 45.238C47.4779 45.5902 46.1248 45.6851 44.792 45.5171L44.7921 45.5167L44.7807 45.516C43.4402 45.4259 42.1313 45.074 40.9315 44.4812C39.7317 43.8883 38.6657 43.0666 37.7965 42.065C36.9272 41.0635 36.2724 39.9024 35.8706 38.6508C35.4689 37.3992 35.3282 36.0823 35.4569 34.7781C35.5856 33.4739 35.9811 32.2088 36.62 31.0577C37.2589 29.9065 38.1283 28.8926 39.177 28.0762C40.2256 27.2598 41.4322 26.6575 42.7252 26.3052C44.0182 25.953 45.3713 25.8581 46.7041 26.0261Z" stroke="url(#paint20_linear_164_30892)" stroke-width="0.389799"/>
    </g>
    <g opacity="0.6" filter="url(#filter9_f_164_30892)">
      <path d="M58.4279 64.4728C58.4256 64.6552 58.384 64.8351 58.3058 65.0003C58.2276 65.1654 58.1146 65.312 57.9746 65.4301C57.8345 65.5482 57.6706 65.6352 57.4939 65.685C57.3172 65.7349 57.1318 65.7465 56.9503 65.7191L27.5649 62.7424C27.3819 62.7346 27.2027 62.6888 27.0387 62.608C26.8747 62.5273 26.7295 62.4133 26.6126 62.2734C26.4956 62.1335 26.4094 61.9708 26.3596 61.7958C26.3097 61.6208 26.2972 61.4373 26.323 61.2572C27.0516 57.3153 29.226 53.7809 32.4254 51.3383C35.6247 48.8958 39.6214 47.7187 43.6415 48.0352C51.9328 48.7722 58.2612 55.9212 58.4279 64.4728Z" fill="#D31CDD"/>
    </g>
    <path d="M59.4247 62.6451C59.4224 62.8276 59.3808 63.0075 59.3026 63.1726C59.2243 63.3378 59.1114 63.4844 58.9714 63.6025C58.8313 63.7206 58.6674 63.8076 58.4907 63.8574C58.314 63.9072 58.1286 63.9189 57.9471 63.8915L28.5617 60.9148C28.3787 60.9069 28.1995 60.8612 28.0355 60.7804C27.8715 60.6997 27.7263 60.5857 27.6094 60.4458C27.4924 60.3059 27.4062 60.1432 27.3563 59.9682C27.3065 59.7932 27.294 59.6097 27.3198 59.4296C28.0483 55.4877 30.2228 51.9533 33.4222 49.5107C36.6215 47.0681 40.6182 45.8911 44.6383 46.2076C52.9295 46.9445 59.2579 54.0936 59.4247 62.6451Z" fill="#D31CDD"/>
    <path d="M58.0061 63.5061L57.9966 63.5047L57.9871 63.5037L28.6017 60.527L28.5904 60.5259L28.579 60.5254C28.4501 60.5199 28.3238 60.4876 28.2083 60.4307C28.0928 60.3739 27.9908 60.2937 27.9087 60.1955C27.8266 60.0973 27.7662 59.9833 27.7313 59.8608C27.6971 59.7406 27.6881 59.6149 27.7047 59.4912C28.4171 55.6484 30.5381 52.2025 33.6584 49.8203C36.7805 47.4367 40.681 46.2875 44.605 46.5959C52.6809 47.3148 58.8684 54.2828 59.0348 62.6467C59.0324 62.7711 59.0036 62.8937 58.9502 63.0064C58.896 63.1209 58.8177 63.2227 58.7203 63.3048L58.9714 63.6025L58.7203 63.3048C58.6229 63.387 58.5087 63.4476 58.3855 63.4823C58.2622 63.5171 58.1328 63.5252 58.0061 63.5061Z" fill="url(#paint21_linear_164_30892)" stroke="url(#paint22_linear_164_30892)" stroke-width="0.779599"/>
    <g style="mix-blend-mode:overlay">
      <path d="M56.8939 63.0731L56.8939 63.0729L56.8846 63.072L29.806 60.3375L29.8061 60.3372L29.7949 60.3367C29.6529 60.3306 29.5138 60.2954 29.3866 60.2336C29.2594 60.1718 29.1471 60.0849 29.0568 59.9785L28.9096 60.1036L29.0568 59.9785C28.9664 59.8722 28.9 59.7489 28.8616 59.6166C28.8235 59.4855 28.8136 59.3484 28.8325 59.2137C29.4908 55.6885 31.4627 52.5286 34.3679 50.346C37.2742 48.1626 40.9076 47.1127 44.5648 47.4004C52.0998 48.0698 57.8663 54.4752 58.0296 62.1379C58.0276 62.2739 57.9961 62.408 57.9369 62.5312C57.8774 62.6554 57.7911 62.7658 57.6836 62.855C57.5762 62.9442 57.4501 63.0101 57.3138 63.0478C57.1774 63.0855 57.0342 63.0942 56.8939 63.0731Z" stroke="url(#paint23_linear_164_30892)" stroke-width="0.389799"/>
    </g>
    <g filter="url(#filter10_f_164_30892)">
      <ellipse cx="13.4044" cy="13.3246" rx="13.4044" ry="13.3246" transform="matrix(0.995328 0.0965522 -0.0977241 0.995214 7.36391 8.659)" fill="url(#paint24_linear_164_30892)"/>
    </g>
    <g filter="url(#filter11_f_164_30892)">
      <ellipse cx="13.4044" cy="13.3246" rx="13.4044" ry="13.3246" transform="matrix(0.995328 0.0965522 -0.0977241 0.995214 5.43756 6.33017)" fill="url(#paint25_linear_164_30892)"/>
    </g>
    <ellipse cx="14.4768" cy="14.3905" rx="14.4768" ry="14.3905" transform="matrix(0.995328 0.0965522 -0.0977241 0.995214 3.61539 2.94052)" fill="url(#paint26_linear_164_30892)"/>
    <ellipse cx="13.9406" cy="14.3905" rx="13.9406" ry="14.3905" transform="matrix(0.995328 0.0965522 -0.0977241 0.995214 2.54804 2.83698)" fill="url(#paint27_linear_164_30892)"/>
    <g filter="url(#filter12_bi_164_30892)">
      <ellipse cx="11.2597" cy="11.1926" rx="11.2597" ry="11.1926" transform="matrix(0.995328 0.0965522 -0.0977241 0.995214 4.37022 6.22665)" fill="url(#paint28_linear_164_30892)"/>
      <path d="M25.4418 19.5159C24.8514 25.529 19.4677 29.9304 13.4142 29.3432C7.36069 28.7559 2.93481 23.403 3.52526 17.3899C4.11571 11.3767 9.49941 6.97539 15.5529 7.56261C21.6064 8.14983 26.0323 13.5028 25.4418 19.5159Z" stroke="url(#paint29_linear_164_30892)" stroke-width="0.5"/>
    </g>
    <g filter="url(#filter13_i_164_30892)">
      <ellipse cx="10.7235" cy="10.6597" rx="10.7235" ry="10.6597" transform="matrix(0.995328 0.0965522 -0.0977241 0.995214 5.43756 6.33017)" fill="url(#paint30_linear_164_30892)"/>
    </g>
    <g filter="url(#filter14_f_164_30892)">
      <path fill-rule="evenodd" clip-rule="evenodd" d="M21.5692 15.1413C21.8543 15.4764 21.8148 15.979 21.4809 16.2662L12.9549 23.5994C12.6139 23.8928 12.0983 23.8479 11.8139 23.5L8.96736 20.019C8.68888 19.6785 8.73815 19.1766 9.07762 18.896L9.36373 18.6595C9.70576 18.3768 10.2122 18.426 10.4928 18.7691L12.5812 21.323L20.198 14.7718C20.5344 14.4824 21.0418 14.5216 21.329 14.8591L21.5692 15.1413Z" fill="#2336DE"/>
      <path fill-rule="evenodd" clip-rule="evenodd" d="M21.5692 15.1413C21.8543 15.4764 21.8148 15.979 21.4809 16.2662L12.9549 23.5994C12.6139 23.8928 12.0983 23.8479 11.8139 23.5L8.96736 20.019C8.68888 19.6785 8.73815 19.1766 9.07762 18.896L9.36373 18.6595C9.70576 18.3768 10.2122 18.426 10.4928 18.7691L12.5812 21.323L20.198 14.7718C20.5344 14.4824 21.0418 14.5216 21.329 14.8591L21.5692 15.1413Z" stroke="#2336DE"/>
    </g>
    <path fill-rule="evenodd" clip-rule="evenodd" d="M21.6733 14.0805C21.9584 14.4155 21.919 14.9182 21.5851 15.2054L13.0591 22.5386C12.718 22.8319 12.2025 22.787 11.9181 22.4391L9.07152 18.9581C8.79304 18.6176 8.84232 18.1158 9.18179 17.8352L9.4679 17.5987C9.80992 17.3159 10.3164 17.3651 10.597 17.7082L12.6854 20.2621L20.3022 13.7109C20.6386 13.4215 21.1459 13.4607 21.4332 13.7983L21.6733 14.0805Z" fill="url(#paint31_linear_164_30892)"/>
    <path fill-rule="evenodd" clip-rule="evenodd" d="M21.6733 14.0805C21.9584 14.4155 21.919 14.9182 21.5851 15.2054L13.0591 22.5386C12.718 22.8319 12.2025 22.787 11.9181 22.4391L9.07152 18.9581C8.79304 18.6176 8.84232 18.1158 9.18179 17.8352L9.4679 17.5987C9.80992 17.3159 10.3164 17.3651 10.597 17.7082L12.6854 20.2621L20.3022 13.7109C20.6386 13.4215 21.1459 13.4607 21.4332 13.7983L21.6733 14.0805Z" stroke="white"/>
  </g>
  <defs>
    <filter id="filter0_df_164_30892" x="-0.467374" y="-1.31436" width="97.5829" height="106.074" filterUnits="userSpaceOnUse" color-interpolation-filters="sRGB">
      <feFlood flood-opacity="0" result="BackgroundImageFix"/>
      <feColorMatrix in="SourceAlpha" type="matrix" values="0 0 0 0 0 0 0 0 0 0 0 0 0 0 0 0 0 0 127 0" result="hardAlpha"/>
      <feOffset dx="1.00932" dy="1.00932"/>
      <feGaussianBlur stdDeviation="1.51398"/>
      <feComposite in2="hardAlpha" operator="out"/>
      <feColorMatrix type="matrix" values="0 0 0 0 0 0 0 0 0 0 0 0 0 0 0 0 0 0 0.1 0"/>
      <feBlend mode="normal" in2="BackgroundImageFix" result="effect1_dropShadow_164_30892"/>
      <feBlend mode="normal" in="SourceGraphic" in2="effect1_dropShadow_164_30892" result="shape"/>
      <feGaussianBlur stdDeviation="0.504661" result="effect2_foregroundBlur_164_30892"/>
    </filter>
    <filter id="filter1_f_164_30892" x="0.541948" y="-0.305037" width="93.5457" height="102.036" filterUnits="userSpaceOnUse" color-interpolation-filters="sRGB">
      <feFlood flood-opacity="0" result="BackgroundImageFix"/>
      <feBlend mode="normal" in="SourceGraphic" in2="BackgroundImageFix" result="shape"/>
      <feGaussianBlur stdDeviation="0.504661" result="effect1_foregroundBlur_164_30892"/>
    </filter>
    <filter id="filter2_df_164_30892" x="3.27301" y="9.33914" width="82.6537" height="96.5601" filterUnits="userSpaceOnUse" color-interpolation-filters="sRGB">
      <feFlood flood-opacity="0" result="BackgroundImageFix"/>
      <feColorMatrix in="SourceAlpha" type="matrix" values="0 0 0 0 0 0 0 0 0 0 0 0 0 0 0 0 0 0 127 0" result="hardAlpha"/>
      <feOffset dx="1" dy="1"/>
      <feGaussianBlur stdDeviation="1.5"/>
      <feComposite in2="hardAlpha" operator="out"/>
      <feColorMatrix type="matrix" values="0 0 0 0 0 0 0 0 0 0 0 0 0 0 0 0 0 0 0.1 0"/>
      <feBlend mode="normal" in2="BackgroundImageFix" result="effect1_dropShadow_164_30892"/>
      <feBlend mode="normal" in="SourceGraphic" in2="effect1_dropShadow_164_30892" result="shape"/>
      <feGaussianBlur stdDeviation="0.5" result="effect2_foregroundBlur_164_30892"/>
    </filter>
    <filter id="filter3_f_164_30892" x="4.27301" y="10.3391" width="78.6537" height="92.5601" filterUnits="userSpaceOnUse" color-interpolation-filters="sRGB">
      <feFlood flood-opacity="0" result="BackgroundImageFix"/>
      <feBlend mode="normal" in="SourceGraphic" in2="BackgroundImageFix" result="shape"/>
      <feGaussianBlur stdDeviation="0.5" result="effect1_foregroundBlur_164_30892"/>
    </filter>
    <filter id="filter4_dd_164_30892" x="15.8532" y="68.4208" width="53.6918" height="16.6376" filterUnits="userSpaceOnUse" color-interpolation-filters="sRGB">
      <feFlood flood-opacity="0" result="BackgroundImageFix"/>
      <feColorMatrix in="SourceAlpha" type="matrix" values="0 0 0 0 0 0 0 0 0 0 0 0 0 0 0 0 0 0 127 0" result="hardAlpha"/>
      <feOffset dy="2"/>
      <feGaussianBlur stdDeviation="1.78174"/>
      <feComposite in2="hardAlpha" operator="out"/>
      <feColorMatrix type="matrix" values="0 0 0 0 0.766667 0 0 0 0 0.450873 0 0 0 0 0.214028 0 0 0 0.5 0"/>
      <feBlend mode="normal" in2="BackgroundImageFix" result="effect1_dropShadow_164_30892"/>
      <feColorMatrix in="SourceAlpha" type="matrix" values="0 0 0 0 0 0 0 0 0 0 0 0 0 0 0 0 0 0 127 0" result="hardAlpha"/>
      <feOffset dy="2"/>
      <feComposite in2="hardAlpha" operator="out"/>
      <feColorMatrix type="matrix" values="0 0 0 0 1 0 0 0 0 0.459524 0 0 0 0 0.0541667 0 0 0 0.1 0"/>
      <feBlend mode="normal" in2="effect1_dropShadow_164_30892" result="effect2_dropShadow_164_30892"/>
      <feBlend mode="normal" in="SourceGraphic" in2="effect2_dropShadow_164_30892" result="shape"/>
    </filter>
    <filter id="filter5_f_164_30892" x="18.3827" y="68.9503" width="48.6329" height="11.5786" filterUnits="userSpaceOnUse" color-interpolation-filters="sRGB">
      <feFlood flood-opacity="0" result="BackgroundImageFix"/>
      <feBlend mode="normal" in="SourceGraphic" in2="BackgroundImageFix" result="shape"/>
      <feGaussianBlur stdDeviation="0.517" result="effect1_foregroundBlur_164_30892"/>
    </filter>
    <filter id="filter6_dd_164_30892" x="14.9059" y="78.0683" width="53.6918" height="16.6376" filterUnits="userSpaceOnUse" color-interpolation-filters="sRGB">
      <feFlood flood-opacity="0" result="BackgroundImageFix"/>
      <feColorMatrix in="SourceAlpha" type="matrix" values="0 0 0 0 0 0 0 0 0 0 0 0 0 0 0 0 0 0 127 0" result="hardAlpha"/>
      <feOffset dy="2"/>
      <feGaussianBlur stdDeviation="1.78174"/>
      <feComposite in2="hardAlpha" operator="out"/>
      <feColorMatrix type="matrix" values="0 0 0 0 0.766667 0 0 0 0 0.450873 0 0 0 0 0.214028 0 0 0 0.5 0"/>
      <feBlend mode="normal" in2="BackgroundImageFix" result="effect1_dropShadow_164_30892"/>
      <feColorMatrix in="SourceAlpha" type="matrix" values="0 0 0 0 0 0 0 0 0 0 0 0 0 0 0 0 0 0 127 0" result="hardAlpha"/>
      <feOffset dy="2"/>
      <feComposite in2="hardAlpha" operator="out"/>
      <feColorMatrix type="matrix" values="0 0 0 0 1 0 0 0 0 0.459524 0 0 0 0 0.0541667 0 0 0 0.1 0"/>
      <feBlend mode="normal" in2="effect1_dropShadow_164_30892" result="effect2_dropShadow_164_30892"/>
      <feBlend mode="normal" in="SourceGraphic" in2="effect2_dropShadow_164_30892" result="shape"/>
    </filter>
    <filter id="filter7_f_164_30892" x="17.4354" y="78.5978" width="48.6329" height="11.5786" filterUnits="userSpaceOnUse" color-interpolation-filters="sRGB">
      <feFlood flood-opacity="0" result="BackgroundImageFix"/>
      <feBlend mode="normal" in="SourceGraphic" in2="BackgroundImageFix" result="shape"/>
      <feGaussianBlur stdDeviation="0.517" result="effect1_foregroundBlur_164_30892"/>
    </filter>
    <filter id="filter8_f_164_30892" x="31.7289" y="22.7403" width="28.3284" height="27.6103" filterUnits="userSpaceOnUse" color-interpolation-filters="sRGB">
      <feFlood flood-opacity="0" result="BackgroundImageFix"/>
      <feBlend mode="normal" in="SourceGraphic" in2="BackgroundImageFix" result="shape"/>
      <feGaussianBlur stdDeviation="1.5592" result="effect1_foregroundBlur_164_30892"/>
    </filter>
    <filter id="filter9_f_164_30892" x="23.1915" y="44.8662" width="38.3548" height="23.9857" filterUnits="userSpaceOnUse" color-interpolation-filters="sRGB">
      <feFlood flood-opacity="0" result="BackgroundImageFix"/>
      <feBlend mode="normal" in="SourceGraphic" in2="BackgroundImageFix" result="shape"/>
      <feGaussianBlur stdDeviation="1.5592" result="effect1_foregroundBlur_164_30892"/>
    </filter>
    <filter id="filter10_f_164_30892" x="-4.00258" y="-0.110748" width="46.8123" height="46.6495" filterUnits="userSpaceOnUse" color-interpolation-filters="sRGB">
      <feFlood flood-opacity="0" result="BackgroundImageFix"/>
      <feBlend mode="normal" in="SourceGraphic" in2="BackgroundImageFix" result="shape"/>
      <feGaussianBlur stdDeviation="5" result="effect1_foregroundBlur_164_30892"/>
    </filter>
    <filter id="filter11_f_164_30892" x="1.07108" y="4.56042" width="32.8123" height="32.6495" filterUnits="userSpaceOnUse" color-interpolation-filters="sRGB">
      <feFlood flood-opacity="0" result="BackgroundImageFix"/>
      <feBlend mode="normal" in="SourceGraphic" in2="BackgroundImageFix" result="shape"/>
      <feGaussianBlur stdDeviation="1.5" result="effect1_foregroundBlur_164_30892"/>
    </filter>
    <filter id="filter12_bi_164_30892" x="1.22237" y="5.26007" width="26.5223" height="26.3856" filterUnits="userSpaceOnUse" color-interpolation-filters="sRGB">
      <feFlood flood-opacity="0" result="BackgroundImageFix"/>
      <feGaussianBlur in="BackgroundImageFix" stdDeviation="1"/>
      <feComposite in2="SourceAlpha" operator="in" result="effect1_backgroundBlur_164_30892"/>
      <feBlend mode="normal" in="SourceGraphic" in2="effect1_backgroundBlur_164_30892" result="shape"/>
      <feColorMatrix in="SourceAlpha" type="matrix" values="0 0 0 0 0 0 0 0 0 0 0 0 0 0 0 0 0 0 127 0" result="hardAlpha"/>
      <feOffset dy="2"/>
      <feGaussianBlur stdDeviation="2"/>
      <feComposite in2="hardAlpha" operator="arithmetic" k2="-1" k3="1"/>
      <feColorMatrix type="matrix" values="0 0 0 0 0.225313 0 0 0 0 0.364577 0 0 0 0 0.858333 0 0 0 0.25 0"/>
      <feBlend mode="normal" in2="shape" result="effect2_innerShadow_164_30892"/>
    </filter>
    <filter id="filter13_i_164_30892" x="4.34438" y="7.31439" width="21.4498" height="23.3196" filterUnits="userSpaceOnUse" color-interpolation-filters="sRGB">
      <feFlood flood-opacity="0" result="BackgroundImageFix"/>
      <feBlend mode="normal" in="SourceGraphic" in2="BackgroundImageFix" result="shape"/>
      <feColorMatrix in="SourceAlpha" type="matrix" values="0 0 0 0 0 0 0 0 0 0 0 0 0 0 0 0 0 0 127 0" result="hardAlpha"/>
      <feOffset dy="2"/>
      <feGaussianBlur stdDeviation="2"/>
      <feComposite in2="hardAlpha" operator="arithmetic" k2="-1" k3="1"/>
      <feColorMatrix type="matrix" values="0 0 0 0 0.225313 0 0 0 0 0.364577 0 0 0 0 0.858333 0 0 0 0.7 0"/>
      <feBlend mode="normal" in2="shape" result="effect1_innerShadow_164_30892"/>
    </filter>
    <filter id="filter14_f_164_30892" x="5.28683" y="11.078" width="19.9729" height="16.2151" filterUnits="userSpaceOnUse" color-interpolation-filters="sRGB">
      <feFlood flood-opacity="0" result="BackgroundImageFix"/>
      <feBlend mode="normal" in="SourceGraphic" in2="BackgroundImageFix" result="shape"/>
      <feGaussianBlur stdDeviation="1.5" result="effect1_foregroundBlur_164_30892"/>
    </filter>
    <linearGradient id="paint0_linear_164_30892" x1="20.0081" y1="89.3695" x2="74.4159" y2="41.7544" gradientUnits="userSpaceOnUse">
      <stop stop-color="#574F67"/>
      <stop offset="0.401042" stop-color="#574F67"/>
      <stop offset="0.53125" stop-color="#574F67"/>
      <stop offset="0.671875" stop-color="#574F67"/>
    </linearGradient>
    <linearGradient id="paint1_linear_164_30892" x1="56.7796" y1="-1.05675e-06" x2="49.273" y2="36.6223" gradientUnits="userSpaceOnUse">
      <stop stop-color="#9288A6"/>
      <stop offset="1" stop-color="#7A708F" stop-opacity="0"/>
    </linearGradient>
    <linearGradient id="paint2_linear_164_30892" x1="35.69" y1="0" x2="35.69" y2="87.216" gradientUnits="userSpaceOnUse">
      <stop stop-color="#7A708F"/>
      <stop offset="1" stop-color="#666171"/>
    </linearGradient>
    <linearGradient id="paint3_linear_164_30892" x1="56.7796" y1="4.15314" x2="18.0787" y2="36.4443" gradientUnits="userSpaceOnUse">
      <stop stop-color="white"/>
      <stop offset="1" stop-color="white" stop-opacity="0"/>
    </linearGradient>
    <linearGradient id="paint4_linear_164_30892" x1="19.8386" y1="88.4752" x2="73.713" y2="41.2539" gradientUnits="userSpaceOnUse">
      <stop stop-color="#FFA25A"/>
      <stop offset="0.401042" stop-color="#EC9937"/>
      <stop offset="0.53125" stop-color="#D88538"/>
      <stop offset="0.671875" stop-color="#FFA25A"/>
    </linearGradient>
    <linearGradient id="paint5_linear_164_30892" x1="56.2986" y1="-1.04617e-06" x2="48.8777" y2="36.2604" gradientUnits="userSpaceOnUse">
      <stop stop-color="#FFD15A"/>
      <stop offset="1" stop-color="#FFA25A" stop-opacity="0"/>
      <stop offset="1" stop-color="#FFD15A" stop-opacity="0"/>
    </linearGradient>
    <linearGradient id="paint6_linear_164_30892" x1="35.3877" y1="0" x2="35.3877" y2="86.3433" gradientUnits="userSpaceOnUse">
      <stop stop-color="#FFD15B"/>
      <stop offset="0.994792" stop-color="#FFB45B"/>
    </linearGradient>
    <linearGradient id="paint7_linear_164_30892" x1="56.2986" y1="4.11158" x2="17.9743" y2="36.138" gradientUnits="userSpaceOnUse">
      <stop stop-color="white"/>
      <stop offset="1" stop-color="white" stop-opacity="0"/>
    </linearGradient>
    <linearGradient id="paint8_linear_164_30892" x1="23.3867" y1="0" x2="23.3867" y2="5.34486" gradientUnits="userSpaceOnUse">
      <stop stop-color="white"/>
      <stop offset="1" stop-color="#E6F9FF"/>
    </linearGradient>
    <linearGradient id="paint9_linear_164_30892" x1="23.3867" y1="0" x2="23.3867" y2="5.34486" gradientUnits="userSpaceOnUse">
      <stop stop-color="#DFFBFF"/>
      <stop offset="1" stop-color="#E9EFFF"/>
    </linearGradient>
    <linearGradient id="paint10_linear_164_30892" x1="30.335" y1="-5.29071e-08" x2="30.1304" y2="5.59158" gradientUnits="userSpaceOnUse">
      <stop stop-color="white"/>
      <stop offset="1" stop-color="#C8CFE9"/>
    </linearGradient>
    <linearGradient id="paint11_linear_164_30892" x1="23.3867" y1="0" x2="23.3867" y2="5.34486" gradientUnits="userSpaceOnUse">
      <stop offset="0.489583" stop-opacity="0"/>
      <stop offset="1"/>
    </linearGradient>
    <linearGradient id="paint12_linear_164_30892" x1="37.2062" y1="0.254517" x2="36.6724" y2="5.01609" gradientUnits="userSpaceOnUse">
      <stop stop-color="white"/>
      <stop offset="0.130208" stop-color="white" stop-opacity="0"/>
    </linearGradient>
    <linearGradient id="paint13_linear_164_30892" x1="23.3867" y1="0" x2="23.3867" y2="5.34486" gradientUnits="userSpaceOnUse">
      <stop stop-color="white"/>
      <stop offset="1" stop-color="#E6F9FF"/>
    </linearGradient>
    <linearGradient id="paint14_linear_164_30892" x1="23.3867" y1="0" x2="23.3867" y2="5.34486" gradientUnits="userSpaceOnUse">
      <stop stop-color="#DFFBFF"/>
      <stop offset="1" stop-color="#E9EFFF"/>
    </linearGradient>
    <linearGradient id="paint15_linear_164_30892" x1="30.335" y1="-5.29071e-08" x2="30.1304" y2="5.59158" gradientUnits="userSpaceOnUse">
      <stop stop-color="white"/>
      <stop offset="1" stop-color="#C8CFE9"/>
    </linearGradient>
    <linearGradient id="paint16_linear_164_30892" x1="23.3867" y1="0" x2="23.3867" y2="5.34486" gradientUnits="userSpaceOnUse">
      <stop offset="0.489583" stop-opacity="0"/>
      <stop offset="1"/>
    </linearGradient>
    <linearGradient id="paint17_linear_164_30892" x1="37.2062" y1="0.254517" x2="36.6724" y2="5.01609" gradientUnits="userSpaceOnUse">
      <stop stop-color="white"/>
      <stop offset="0.130208" stop-color="white" stop-opacity="0"/>
    </linearGradient>
    <linearGradient id="paint18_linear_164_30892" x1="51.018" y1="26.2429" x2="40.1079" y2="35.4079" gradientUnits="userSpaceOnUse">
      <stop stop-color="#F873FF"/>
      <stop offset="0.0729167" stop-color="#EA24F4"/>
      <stop offset="1" stop-color="#C41CCD"/>
    </linearGradient>
    <linearGradient id="paint19_linear_164_30892" x1="57.9126" y1="26.0433" x2="45.2453" y2="35.1075" gradientUnits="userSpaceOnUse">
      <stop stop-color="#F75BFF"/>
      <stop offset="0.734375" stop-color="#D71FE1"/>
      <stop offset="1" stop-color="#BB17C4"/>
    </linearGradient>
    <linearGradient id="paint20_linear_164_30892" x1="52.8316" y1="27.3735" x2="42.9361" y2="36.1266" gradientUnits="userSpaceOnUse">
      <stop stop-color="white"/>
      <stop offset="0.130208" stop-color="white" stop-opacity="0"/>
    </linearGradient>
    <linearGradient id="paint21_linear_164_30892" x1="49.6788" y1="48.4772" x2="43.3583" y2="58.9969" gradientUnits="userSpaceOnUse">
      <stop stop-color="#F873FF"/>
      <stop offset="0.0729167" stop-color="#EA24F4"/>
      <stop offset="1" stop-color="#C41CCD"/>
    </linearGradient>
    <linearGradient id="paint22_linear_164_30892" x1="60.6812" y1="47.5042" x2="51.4616" y2="60.2134" gradientUnits="userSpaceOnUse">
      <stop stop-color="#F75BFF"/>
      <stop offset="0.734375" stop-color="#D71FE1"/>
      <stop offset="1" stop-color="#BB17C4"/>
    </linearGradient>
    <linearGradient id="paint23_linear_164_30892" x1="52.6956" y1="50.876" x2="47.1483" y2="59.0885" gradientUnits="userSpaceOnUse">
      <stop stop-color="white"/>
      <stop offset="0.130208" stop-color="white" stop-opacity="0"/>
    </linearGradient>
    <linearGradient id="paint24_linear_164_30892" x1="13.9009" y1="9.37656" x2="26.6759" y2="41.9998" gradientUnits="userSpaceOnUse">
      <stop stop-color="#B76E2E"/>
      <stop offset="1" stop-color="#F1A15C" stop-opacity="0"/>
    </linearGradient>
    <linearGradient id="paint25_linear_164_30892" x1="13.9009" y1="9.37656" x2="26.6759" y2="41.9998" gradientUnits="userSpaceOnUse">
      <stop stop-color="#753E10"/>
      <stop offset="1" stop-color="#854F21" stop-opacity="0"/>
    </linearGradient>
    <linearGradient id="paint26_linear_164_30892" x1="14.4768" y1="6.35365e-08" x2="12.3575" y2="38.3762" gradientUnits="userSpaceOnUse">
      <stop stop-color="#C2C8FF"/>
      <stop offset="1" stop-color="#6A75DA"/>
    </linearGradient>
    <linearGradient id="paint27_linear_164_30892" x1="13.9406" y1="0" x2="13.9406" y2="28.7811" gradientUnits="userSpaceOnUse">
      <stop stop-color="#A6AFFF"/>
      <stop offset="1" stop-color="#B9C0FF"/>
    </linearGradient>
    <linearGradient id="paint28_linear_164_30892" x1="5.62986" y1="22.3853" x2="15.5252" y2="6.4317" gradientUnits="userSpaceOnUse">
      <stop offset="0.399267" stop-color="#B9C0FF"/>
      <stop offset="1" stop-color="#9AA4FC"/>
    </linearGradient>
    <linearGradient id="paint29_linear_164_30892" x1="15.5773" y1="7.3138" x2="13.416" y2="29.5945" gradientUnits="userSpaceOnUse">
      <stop stop-color="#FCFCFC" stop-opacity="0"/>
      <stop offset="1" stop-color="#C1D3FF"/>
    </linearGradient>
    <linearGradient id="paint30_linear_164_30892" x1="10.7235" y1="0" x2="10.7235" y2="21.3193" gradientUnits="userSpaceOnUse">
      <stop stop-color="#909BFD"/>
      <stop offset="1" stop-color="#A5AEFF"/>
    </linearGradient>
    <linearGradient id="paint31_linear_164_30892" x1="15.7544" y1="12.6858" x2="14.7251" y2="23.2957" gradientUnits="userSpaceOnUse">
      <stop stop-color="white"/>
      <stop offset="1" stop-color="#ECEBED"/>
    </linearGradient>
    <clipPath id="clip0_164_30892">
      <rect width="96.5174" height="105.525" fill="white" transform="translate(0.0798645 0.0733337)"/>
    </clipPath>
  </defs>
</svg>