<svg width="141" height="103" viewBox="0 0 141 103" fill="none" xmlns="http://www.w3.org/2000/svg">
<g opacity="0.4" filter="url(#filter0_f_192_16496)">
<path fill-rule="evenodd" clip-rule="evenodd" d="M95.6938 39.0777L44.5838 40.5104C41.8455 40.5809 39.6206 42.6853 39.6159 45.203L39.5161 76.0363C39.5065 78.5493 41.7219 80.6678 44.4649 80.7618L95.6796 82.5937C96.33 82.6168 96.9783 82.5087 97.5851 82.2761C98.1918 82.0434 98.7442 81.6911 99.2087 81.2405C99.6731 80.79 100.04 80.2507 100.286 79.6556C100.533 79.0605 100.654 78.4219 100.643 77.779V43.9348C100.654 43.2911 100.533 42.6519 100.288 42.0555C100.043 41.4591 99.678 40.9179 99.2158 40.4642C98.7536 40.0106 98.2033 39.6539 97.5981 39.4157C96.9929 39.1774 96.3451 39.0624 95.6938 39.0777Z" fill="url(#paint0_linear_192_16496)"/>
</g>
<path fill-rule="evenodd" clip-rule="evenodd" d="M99.1392 31.3701L41.9931 32.9888C38.9314 33.0684 36.4438 35.4461 36.4384 38.2909L36.3268 73.1284C36.3162 75.9678 38.7932 78.3615 41.8602 78.4676L99.1233 80.5375C99.8505 80.5635 100.575 80.4414 101.254 80.1785C101.932 79.9157 102.55 79.5176 103.069 79.0086C103.588 78.4995 103.998 77.8902 104.274 77.2178C104.55 76.5453 104.685 75.8239 104.673 75.0974V36.8579C104.685 36.1307 104.55 35.4084 104.276 34.7346C104.002 34.0607 103.594 33.4492 103.077 32.9366C102.56 32.424 101.945 32.0211 101.268 31.7519C100.592 31.4827 99.8675 31.3528 99.1392 31.3701ZM65.9548 38.6465L75.1558 38.4661C75.608 38.4523 76.0371 38.2635 76.3525 37.9397C76.6679 37.6159 76.8449 37.1823 76.8461 36.7305C76.8483 36.5102 76.806 36.2917 76.7218 36.0881C76.6376 35.8844 76.5131 35.6998 76.3558 35.5452C76.1986 35.3907 76.0117 35.2694 75.8064 35.1885C75.6012 35.1077 75.3817 35.0689 75.1611 35.0746L65.9601 35.2976C65.5106 35.3072 65.0825 35.4908 64.7661 35.8097C64.4498 36.1285 64.2699 36.5577 64.2645 37.0065C64.2644 37.226 64.3084 37.4432 64.3939 37.6454C64.4794 37.8475 64.6047 38.0305 64.7623 38.1834C64.9199 38.3363 65.1067 38.4561 65.3115 38.5356C65.5163 38.6152 65.7351 38.6529 65.9548 38.6465Z" fill="url(#paint1_linear_192_16496)"/>
<path d="M75.1706 38.953L75.1653 38.9532L65.9689 39.1335C65.9681 39.1335 65.9673 39.1335 65.9665 39.1336C65.6826 39.1415 65.3999 39.0926 65.1351 38.9898C64.8696 38.8867 64.6275 38.7314 64.4231 38.5331L64.7623 38.1834L64.423 38.5331C64.2186 38.3347 64.0561 38.0974 63.9452 37.8352C63.8342 37.5729 63.7771 37.2911 63.7773 37.0063L63.7773 37.0007H63.7773C63.7842 36.4252 64.0149 35.8751 64.4203 35.4665C64.8255 35.0581 65.3736 34.823 65.9489 34.8105C65.9492 34.8105 65.9494 34.8105 65.9497 34.8105L75.1485 34.5876C75.1486 34.5876 75.1487 34.5876 75.1489 34.5876L75.1493 34.5876L75.1611 35.0746L75.1706 38.953ZM75.1706 38.953C75.7489 38.9354 76.2979 38.694 76.7015 38.2796L76.3525 37.9397M75.1706 38.953L76.3525 37.9397M76.3525 37.9397L76.7015 38.2796C77.1047 37.8656 77.3313 37.3114 77.3333 36.7336L76.3525 37.9397ZM42.0057 33.4758L42.0069 33.4758L99.1508 31.8571C99.1512 31.8571 99.1515 31.8571 99.1519 31.8571C99.8142 31.8415 100.473 31.9597 101.088 32.2046C101.704 32.4495 102.264 32.8162 102.734 33.2825C103.204 33.7489 103.575 34.3052 103.825 34.9182C104.074 35.5312 104.197 36.1881 104.185 36.8496L104.185 36.8496V36.8579L104.185 75.0974L104.185 75.106C104.197 75.7662 104.074 76.4218 103.823 77.033C103.573 77.6441 103.2 78.1979 102.728 78.6606C102.256 79.1234 101.695 79.4853 101.078 79.7243C100.461 79.9632 99.802 80.0743 99.1409 80.0506C99.1408 80.0506 99.1408 80.0506 99.1407 80.0506L41.8778 77.9807L41.877 77.9807C39.0392 77.8825 36.8045 75.6738 36.814 73.1302L36.814 73.13L36.9256 38.2924L36.9256 38.2918C36.9304 35.742 39.1754 33.5494 42.0057 33.4758Z" stroke="#F31942" stroke-width="0.974396"/>
<g filter="url(#filter1_d_192_16496)">
<path fill-rule="evenodd" clip-rule="evenodd" d="M98.5277 33.2117L42.5934 34.6606C41.4784 34.6707 40.4101 35.1092 39.6104 35.885C38.8106 36.6608 38.3408 37.7144 38.2985 38.8269L38.1975 72.5658C38.2206 73.6847 38.676 74.7513 39.4686 75.5426C40.2611 76.3339 41.3293 76.7887 42.4499 76.8117L98.4958 78.7064C99.0641 78.7174 99.6288 78.6132 100.156 78.4001C100.682 78.187 101.161 77.8694 101.561 77.4666C101.961 77.0637 102.276 76.584 102.486 76.0564C102.695 75.5288 102.795 74.9642 102.78 74.3968V37.5531C102.793 36.9876 102.692 36.4252 102.484 35.8989C102.276 35.3727 101.965 34.8933 101.569 34.4889C101.173 34.0844 100.7 33.7631 100.177 33.5438C99.6551 33.3245 99.0942 33.2116 98.5277 33.2117ZM65.9547 38.6465L75.1557 38.466C75.6079 38.4523 76.0371 38.2635 76.3525 37.9397C76.6679 37.6158 76.8449 37.1822 76.8461 36.7305C76.8483 36.5102 76.806 36.2917 76.7218 36.088C76.6375 35.8844 76.5131 35.6998 76.3558 35.5452C76.1985 35.3907 76.0117 35.2693 75.8064 35.1885C75.6011 35.1076 75.3816 35.0689 75.1611 35.0746L65.96 35.2975C65.5106 35.3071 65.0825 35.4908 64.7661 35.8096C64.4497 36.1285 64.2698 36.5577 64.2644 37.0065C64.2643 37.226 64.3083 37.4432 64.3939 37.6453C64.4794 37.8475 64.6047 38.0304 64.7623 38.1834C64.9199 38.3363 65.1067 38.4561 65.3115 38.5356C65.5163 38.6152 65.7351 38.6529 65.9547 38.6465Z" fill="url(#paint2_linear_192_16496)"/>
<path d="M42.6104 35.6349L42.6022 35.635C41.7373 35.6428 40.9088 35.983 40.2888 36.5844C39.6727 37.1821 39.3095 37.9921 39.2729 38.848L39.172 72.5565C39.1925 73.4195 39.5451 74.242 40.157 74.8531C40.7716 75.4667 41.6003 75.8196 42.4699 75.8375L42.4828 75.8378L42.4828 75.8379L98.5212 77.7323C98.9558 77.7398 99.3875 77.6597 99.7903 77.4968C100.195 77.333 100.562 77.089 100.87 76.7796C101.178 76.4702 101.419 76.1018 101.58 75.6968C101.741 75.2918 101.818 74.8584 101.806 74.4229L101.806 74.4099V74.3968V37.5531V37.5422L101.806 37.5312C101.816 37.0956 101.738 36.6624 101.578 36.2571C101.418 35.8518 101.178 35.4824 100.873 35.1707L101.566 34.4917L100.873 35.1707C100.567 34.859 100.203 34.6113 99.8001 34.4422C99.401 34.2746 98.9725 34.1875 98.5396 34.1861L76.9263 34.746C76.9647 34.7796 77.0022 34.8144 77.0388 34.8502L76.3558 35.5452L77.0388 34.8502C77.2894 35.0966 77.4879 35.3909 77.6222 35.7156C77.756 36.0393 77.8235 36.3865 77.8204 36.7367C77.8204 36.7379 77.8204 36.7391 77.8204 36.7403L76.8461 36.7305C76.8449 37.1822 76.6679 37.6158 76.3525 37.9397C76.0371 38.2635 75.6079 38.4523 75.1557 38.466L42.6104 35.6349ZM42.6104 35.6349L42.6186 35.6347L64.1208 35.0777M42.6104 35.6349L75.1367 34.1005C75.1364 34.1005 75.1361 34.1005 75.1358 34.1006L65.9392 34.3234C65.9387 34.3234 65.9382 34.3234 65.9377 34.3234C65.2583 34.3383 64.6099 34.6079 64.1208 35.0777M64.1208 35.0777C64.1052 35.0927 64.0897 35.1079 64.0744 35.1233C63.58 35.6217 63.2986 36.2927 63.2901 36.9948L63.29 36.9948L63.29 37.0061C63.2899 37.3561 63.3601 37.7026 63.4965 38.025C63.6328 38.3473 63.8326 38.639 64.0838 38.8827L64.7623 38.1834L64.0838 38.8827C64.335 39.1264 64.6325 39.3172 64.9587 39.4439L64.1208 35.0777ZM65.9536 35.0302L65.96 35.2975L65.9536 35.0302Z" stroke="url(#paint3_linear_192_16496)" stroke-width="1.94879"/>
</g>
<g filter="url(#filter2_f_192_16496)">
<path fill-rule="evenodd" clip-rule="evenodd" d="M98.5277 33.2117L42.5934 34.6606C41.4784 34.6707 40.4101 35.1092 39.6104 35.885C38.8106 36.6608 38.3408 37.7144 38.2985 38.8269L38.1975 72.5658C38.2206 73.6847 38.676 74.7513 39.4686 75.5426C40.2611 76.3339 41.3293 76.7887 42.4499 76.8117L98.4958 78.7064C99.0641 78.7174 99.6288 78.6132 100.156 78.4001C100.682 78.187 101.161 77.8694 101.561 77.4666C101.961 77.0637 102.276 76.584 102.486 76.0564C102.695 75.5288 102.795 74.9642 102.78 74.3968V37.5531C102.793 36.9876 102.692 36.4252 102.484 35.8989C102.276 35.3727 101.965 34.8933 101.569 34.4889C101.173 34.0844 100.7 33.7631 100.177 33.5438C99.6551 33.3245 99.0942 33.2116 98.5277 33.2117ZM65.9547 38.6465L75.1557 38.466C75.6079 38.4523 76.0371 38.2635 76.3525 37.9397C76.6679 37.6158 76.8449 37.1822 76.8461 36.7305C76.8483 36.5102 76.806 36.2917 76.7218 36.088C76.6375 35.8844 76.5131 35.6998 76.3558 35.5452C76.1985 35.3907 76.0117 35.2693 75.8064 35.1885C75.6011 35.1076 75.3816 35.0689 75.1611 35.0746L65.96 35.2975C65.5106 35.3071 65.0825 35.4908 64.7661 35.8096C64.4497 36.1285 64.2698 36.5577 64.2644 37.0065C64.2643 37.226 64.3083 37.4432 64.3939 37.6453C64.4794 37.8475 64.6047 38.0304 64.7623 38.1834C64.9199 38.3363 65.1067 38.4561 65.3115 38.5356C65.5163 38.6152 65.7351 38.6529 65.9547 38.6465Z" fill="url(#paint4_linear_192_16496)"/>
<path d="M75.173 39.0312L75.1668 39.0314L65.9712 39.2117C65.9702 39.2117 65.9693 39.2118 65.9683 39.2118C65.6741 39.22 65.3811 39.1693 65.1068 39.0627L65.3115 38.5356L65.1068 39.0627C64.8315 38.9558 64.5805 38.7948 64.3685 38.5892L64.7623 38.1834L64.3685 38.5892C64.1566 38.3836 63.9881 38.1376 63.8731 37.8656C63.758 37.5937 63.6988 37.3015 63.699 37.0063L63.699 36.9997L63.699 36.9997C63.7062 36.4039 63.945 35.8344 64.3647 35.4114L64.7661 35.8096L64.3647 35.4114C64.7842 34.9886 65.3516 34.7452 65.9471 34.7322C65.9474 34.7322 65.9477 34.7322 65.948 34.7322L75.1464 34.5093C75.1466 34.5093 75.1468 34.5093 75.1469 34.5093L75.1474 34.5093L75.1611 35.0746L75.173 39.0312ZM75.173 39.0312C75.7716 39.013 76.3398 38.7632 76.7576 38.3342M75.173 39.0312L76.7576 38.3342M76.7576 38.3342C77.1749 37.9057 77.4094 37.3321 77.4115 36.7341L76.7576 38.3342ZM42.5985 35.2261L42.5985 35.2261L42.608 35.2259L98.5348 33.7772C99.0238 33.778 99.5077 33.8759 99.9584 34.0652C100.411 34.2553 100.821 34.5339 101.165 34.8846C101.508 35.2352 101.778 35.6507 101.958 36.1068C102.139 36.5629 102.226 37.0503 102.215 37.5404L102.215 37.5404V37.5531V74.3968V74.4044L102.215 74.412C102.228 74.9028 102.141 75.3912 101.96 75.8477C101.779 76.3042 101.507 76.7193 101.16 77.0679C100.813 77.4165 100.4 77.6914 99.9436 77.8759C99.4888 78.0598 99.0013 78.1501 98.5106 78.1411L42.469 76.2466L42.469 76.2465L42.4615 76.2463C41.4866 76.2263 40.5574 75.8307 39.8681 75.1424C39.1804 74.4558 38.7847 73.5309 38.763 72.5606L38.864 38.8388C38.9031 37.8753 39.311 36.9633 40.0041 36.2909C40.6996 35.6163 41.6286 35.2349 42.5985 35.2261Z" stroke="url(#paint5_linear_192_16496)" stroke-width="1.13094"/>
</g>
<path opacity="0.3" d="M75.1643 38.7486L75.1613 38.7487L65.963 38.9291C65.9625 38.9291 65.962 38.9291 65.9616 38.9291C65.7046 38.9364 65.4487 38.8922 65.2091 38.7992L65.3115 38.5356L65.2091 38.7992C64.9691 38.7059 64.7502 38.5656 64.5654 38.3863L64.7623 38.1834L64.5654 38.3863C64.3806 38.207 64.2337 37.9925 64.1335 37.7555C64.0332 37.5185 63.9816 37.2637 63.9817 37.0064L63.9817 37.0031C63.988 36.4808 64.1973 35.9814 64.5654 35.6105C64.9334 35.2396 65.4311 35.0261 65.9536 35.0149C65.9538 35.0149 65.9539 35.0149 65.954 35.0149L75.1537 34.792C75.1538 34.792 75.1538 34.792 75.1539 34.792L75.1542 34.792L75.1611 35.0746L75.1643 38.7486ZM75.1643 38.7486C75.6898 38.7326 76.1884 38.5133 76.555 38.1369M75.1643 38.7486L76.555 38.1369M76.555 38.1369C76.9214 37.7608 77.1271 37.2572 77.1288 36.7323M76.555 38.1369L77.1288 36.7323M77.1288 36.7323C77.1312 36.4743 77.0817 36.2184 76.983 35.98C76.8843 35.7412 76.7383 35.5247 76.554 35.3436L76.3558 35.5452L77.1288 36.7323ZM42.596 34.9433V34.9434L42.6007 34.9433L98.5313 33.4944C99.059 33.4948 99.5814 33.6002 100.068 33.8045C100.555 34.0092 100.997 34.3092 101.367 34.6867L101.569 34.4889L101.367 34.6867C101.737 35.0643 102.027 35.5117 102.221 36.0029C102.415 36.494 102.509 37.0189 102.497 37.5468L102.497 37.5468V37.5531L102.497 74.3968L102.497 74.4044C102.512 74.9335 102.418 75.46 102.223 75.9521C102.027 76.4441 101.734 76.8915 101.361 77.2672C100.987 77.643 100.541 77.9392 100.05 78.138C99.5587 78.3365 99.0327 78.4337 98.5031 78.4238C98.5025 78.4238 98.5019 78.4237 98.5012 78.4237L42.4594 76.5291L42.4557 76.529C41.408 76.5075 40.4092 76.0823 39.6683 75.3425C38.9282 74.6035 38.5027 73.6078 38.4803 72.5633L38.5813 38.8328C38.622 37.7948 39.0608 36.812 39.8073 36.088C40.5548 35.3627 41.5535 34.9528 42.596 34.9433Z" fill="url(#paint6_linear_192_16496)" stroke="url(#paint7_linear_192_16496)" stroke-width="0.565471"/>
<g style="mix-blend-mode:overlay">
<path d="M42.5935 34.6607L98.5277 33.2118C99.0943 33.2116 99.6552 33.3245 100.177 33.5439C100.7 33.7632 101.173 34.0845 101.569 34.4889C101.965 34.8934 102.276 35.3728 102.484 35.899C102.692 36.4252 102.793 36.9876 102.78 37.5532V74.3969C102.795 74.9643 102.695 75.5288 102.486 76.0565" stroke="url(#paint8_linear_192_16496)"/>
</g>
<g style="mix-blend-mode:overlay">
<path d="M42.4368 33.4119L99.6553 31.9201C100.235 31.9199 100.809 32.0362 101.343 32.262C101.877 32.4878 102.361 32.8186 102.766 33.2351C103.172 33.6515 103.49 34.1451 103.703 34.6869C103.915 35.2287 104.018 35.8077 104.005 36.39V74.3243C104.021 74.9085 103.918 75.4898 103.704 76.033" stroke="url(#paint9_linear_192_16496)"/>
</g>
<path opacity="0.7" d="M65.9487 38.3638L65.946 38.3639L65.4134 38.2721C65.2438 38.2062 65.0891 38.107 64.9587 37.9805C64.8282 37.8539 64.7245 37.7025 64.6538 37.5352C64.5832 37.3684 64.5468 37.1893 64.5467 37.0083C64.5516 36.6335 64.702 36.2752 64.9663 36.0088C65.2311 35.742 65.5894 35.5883 65.9656 35.5802L65.9664 35.5802L75.1674 35.3573L75.1679 35.3573C75.3506 35.3526 75.5323 35.3846 75.7023 35.4516L75.8059 35.1885L75.7023 35.4516C75.8723 35.5185 76.027 35.619 76.1571 35.7469L76.3553 35.5452L76.1571 35.7469C76.2873 35.8748 76.3903 36.0276 76.46 36.1961C76.5297 36.3646 76.5647 36.5454 76.5628 36.7277L76.5628 36.7298C76.5619 37.108 76.4137 37.4712 76.1495 37.7424C75.8856 38.0134 75.5266 38.1715 75.1481 38.1834L65.9487 38.3638L65.9487 38.3638Z" stroke="url(#paint10_linear_192_16496)" stroke-width="0.565471"/>
<path d="M75.1666 31.1738V34.942C75.1639 35.1623 75.0762 35.373 74.9217 35.5302C74.7672 35.6875 74.5579 35.779 74.3374 35.7859L66.7841 35.961C66.6775 35.9646 66.5712 35.9466 66.4716 35.9081C66.3721 35.8697 66.2814 35.8115 66.2049 35.7372C66.1285 35.6628 66.0678 35.5738 66.0267 35.4754C65.9856 35.3771 65.9648 35.2715 65.9655 35.1649V31.4498C65.9648 31.4287 65.9684 31.4076 65.9762 31.388C65.9839 31.3683 65.9956 31.3505 66.0106 31.3355C66.0256 31.3206 66.0434 31.3089 66.0631 31.3011C66.0828 31.2934 66.1039 31.2898 66.125 31.2905L74.9965 31.0252C75.0384 31.0236 75.0794 31.0382 75.111 31.0658C75.1427 31.0934 75.1625 31.132 75.1666 31.1738Z" fill="url(#paint11_linear_192_16496)"/>
<path d="M66.7776 35.6783L66.7746 35.6784C66.706 35.6808 66.6376 35.6692 66.5736 35.6444L66.4728 35.9051L66.5736 35.6444C66.5095 35.6197 66.4512 35.5823 66.402 35.5345L66.2051 35.7369L66.402 35.5345C66.3529 35.4867 66.3139 35.4295 66.2875 35.3663C66.2611 35.3032 66.2478 35.2354 66.2483 35.167L66.2483 35.167V35.1649V31.5697L74.8838 31.3114V34.9401C74.8817 35.0868 74.8231 35.2272 74.72 35.3321C74.6168 35.4371 74.477 35.4984 74.3296 35.5032C74.3292 35.5033 74.3289 35.5033 74.3286 35.5033L66.7776 35.6784L66.7776 35.6783Z" stroke="url(#paint12_linear_192_16496)" stroke-opacity="0.5" stroke-width="0.565471"/>
<path d="M82.3053 5.64001L75.3791 25.0597C75.3607 25.1307 75.3288 25.1922 75.2872 25.237C75.2456 25.2817 75.1961 25.3077 75.1448 25.3117L67.1563 25.808L73.0865 5.64001H82.3053Z" fill="url(#paint13_linear_192_16496)"/>
<path d="M68.4232 5.64001L74.5979 25.3136L66.0792 25.8076C66.0231 25.8114 65.9676 25.7892 65.9206 25.7442C65.8736 25.6992 65.8375 25.6335 65.8173 25.5566L59.1831 5.64001H68.4232Z" fill="url(#paint14_linear_192_16496)"/>
<path d="M66.0856 25.4673L59.5753 5.92275H68.2156L74.2195 25.0523L66.1049 25.5229C66.1004 25.5141 66.0952 25.5017 66.0908 25.485L66.0885 25.476L66.0856 25.4673Z" stroke="url(#paint15_linear_192_16496)" stroke-opacity="0.5" stroke-width="0.565471"/>
<path d="M75.1665 30.6696V25.7602C75.1665 25.7136 75.1571 25.6674 75.1387 25.6244C75.1204 25.5815 75.0935 25.5427 75.0597 25.5105C75.0259 25.4782 74.9859 25.4532 74.9421 25.4368C74.8984 25.4204 74.8517 25.4131 74.805 25.4153L66.3003 25.7337C66.2105 25.7365 66.1254 25.774 66.0629 25.8384C66.0003 25.9028 65.9654 25.989 65.9655 26.0787V30.9243C65.9661 30.9708 65.9761 31.0166 65.9947 31.0592C66.0133 31.1018 66.0402 31.1403 66.0738 31.1724C66.1075 31.2045 66.1472 31.2296 66.1906 31.2462C66.2341 31.2628 66.2804 31.2707 66.3269 31.2693L74.8316 31.0198C74.9218 31.0157 75.007 30.977 75.0694 30.9118C75.1318 30.8465 75.1666 30.7598 75.1665 30.6696Z" fill="url(#paint16_linear_192_16496)"/>
<path d="M74.8837 30.6696V30.6698C74.8837 30.6871 74.8771 30.7038 74.865 30.7164C74.8533 30.7287 74.8373 30.7362 74.8201 30.7373L66.3186 30.9867L66.3183 30.9867C66.3092 30.9869 66.3002 30.9854 66.2917 30.9822C66.2832 30.9789 66.2755 30.974 66.269 30.9678L66.0738 31.1724L66.269 30.9678C66.2625 30.9616 66.2574 30.9542 66.2538 30.946L65.9961 31.0586L66.2538 30.946C66.2504 30.9382 66.2485 30.9299 66.2482 30.9214L66.2482 26.0787L66.2482 26.0785C66.2482 26.0625 66.2544 26.047 66.2657 26.0354C66.2771 26.0237 66.2926 26.0168 66.309 26.0163L66.309 26.0163L66.3109 26.0162L74.8156 25.6978L74.818 25.6977C74.8265 25.6973 74.8351 25.6986 74.8431 25.7016C74.8511 25.7046 74.8584 25.7092 74.8645 25.715C74.8706 25.7209 74.8755 25.7279 74.8788 25.7356C74.882 25.7433 74.8837 25.7516 74.8837 25.7599V25.7602V30.6696ZM75.1665 30.6696V25.7602C75.1665 25.7136 75.1571 25.6674 75.1387 25.6244C75.1204 25.5815 75.0935 25.5427 75.0597 25.5105C75.0259 25.4782 74.9859 25.4532 74.9421 25.4368C74.8984 25.4204 74.8517 25.4131 74.805 25.4153L75.1665 30.6696Z" stroke="url(#paint17_radial_192_16496)" stroke-opacity="0.6" stroke-width="0.565471"/>
<g filter="url(#filter3_dd_192_16496)">
<path d="M93.0373 60.4333L68.1823 60.1891C67.6437 60.1836 67.1288 59.9667 66.7489 59.5854C66.369 59.2041 66.1546 58.6889 66.1518 58.1511C66.1532 57.8853 66.2072 57.6225 66.3106 57.3776C66.4141 57.1328 66.565 56.9108 66.7547 56.7243C66.9444 56.5379 67.1691 56.3907 67.4159 56.2913C67.6627 56.1919 67.9268 56.1421 68.1929 56.1449L93.0373 56.2511C93.3107 56.2566 93.5803 56.3159 93.8307 56.4257C94.0811 56.5354 94.3073 56.6934 94.4965 56.8906C94.6856 57.0879 94.8339 57.3204 94.9328 57.5749C95.0318 57.8295 95.0794 58.101 95.0731 58.374C95.0752 58.6428 95.0241 58.9093 94.9229 59.1584C94.8217 59.4075 94.6722 59.6341 94.4831 59.8254C94.294 60.0167 94.0689 60.1688 93.8208 60.2732C93.5727 60.3775 93.3064 60.4319 93.0373 60.4333Z" fill="url(#paint18_linear_192_16496)"/>
</g>
<g filter="url(#filter4_f_192_16496)">
<path d="M93.0373 60.4333L68.1823 60.1891C67.6437 60.1836 67.1288 59.9667 66.7489 59.5854C66.369 59.2041 66.1546 58.6889 66.1518 58.1511C66.1532 57.8853 66.2072 57.6225 66.3106 57.3776C66.4141 57.1328 66.565 56.9108 66.7547 56.7243C66.9444 56.5379 67.1691 56.3907 67.4159 56.2913C67.6627 56.1919 67.9268 56.1421 68.1929 56.1449L93.0373 56.2511C93.3107 56.2566 93.5803 56.3159 93.8307 56.4257C94.0811 56.5354 94.3073 56.6934 94.4965 56.8906C94.6856 57.0879 94.8339 57.3204 94.9328 57.5749C95.0318 57.8295 95.0794 58.101 95.0731 58.374C95.0752 58.6428 95.0241 58.9093 94.9229 59.1584C94.8217 59.4075 94.6722 59.6341 94.4831 59.8254C94.294 60.0167 94.0689 60.1688 93.8208 60.2732C93.5727 60.3775 93.3064 60.4319 93.0373 60.4333Z" fill="url(#paint19_linear_192_16496)"/>
<path d="M68.19 56.4276L68.1917 56.4277L93.0337 56.5338C93.2692 56.5388 93.5015 56.5901 93.7172 56.6846C93.9335 56.7794 94.129 56.916 94.2924 57.0863C94.4558 57.2567 94.5838 57.4576 94.6693 57.6774C94.7547 57.8972 94.7959 58.1317 94.7904 58.3674L94.7903 58.3674L94.7903 58.3762C94.7921 58.6077 94.7482 58.8374 94.661 59.0519L94.9229 59.1584L94.661 59.0519C94.5738 59.2665 94.445 59.4618 94.282 59.6266L94.4831 59.8254L94.282 59.6266C94.1191 59.7915 93.9251 59.9226 93.7112 60.0125C93.498 60.1022 93.2692 60.1491 93.0378 60.1505L68.1852 59.9064C67.7207 59.9016 67.2767 59.7146 66.9492 59.3859C66.6221 59.0575 66.4373 58.6141 66.4345 58.1511C66.4359 57.9232 66.4823 57.6977 66.5711 57.4877C66.66 57.2772 66.7898 57.0863 66.9529 56.926C67.116 56.7656 67.3092 56.6391 67.5215 56.5535C67.7338 56.468 67.961 56.4252 68.19 56.4276Z" stroke="url(#paint20_linear_192_16496)" stroke-width="0.565471"/>
</g>
<g style="mix-blend-mode:overlay" opacity="0.3">
<path d="M68.19 56.4276L68.1917 56.4277L93.0337 56.5338C93.2692 56.5388 93.5015 56.5901 93.7172 56.6846C93.9335 56.7794 94.129 56.916 94.2924 57.0863C94.4558 57.2567 94.5838 57.4576 94.6693 57.6774C94.7547 57.8972 94.7959 58.1317 94.7904 58.3674L94.7903 58.3674L94.7903 58.3762C94.7921 58.6077 94.7482 58.8374 94.661 59.0519L94.9229 59.1584L94.661 59.0519C94.5738 59.2665 94.445 59.4618 94.282 59.6266L94.4831 59.8254L94.282 59.6266C94.1191 59.7915 93.9251 59.9226 93.7112 60.0125C93.498 60.1022 93.2692 60.1491 93.0378 60.1505L68.1852 59.9064C67.7207 59.9016 67.2767 59.7146 66.9492 59.3859C66.6221 59.0575 66.4373 58.6141 66.4345 58.1511C66.4359 57.9232 66.4823 57.6977 66.5711 57.4877C66.66 57.2772 66.7898 57.0863 66.9529 56.926C67.116 56.7656 67.3092 56.6391 67.5215 56.5535C67.7338 56.468 67.961 56.4252 68.19 56.4276Z" fill="url(#paint21_linear_192_16496)"/>
<path d="M68.19 56.4276L68.1917 56.4277L93.0337 56.5338C93.2692 56.5388 93.5015 56.5901 93.7172 56.6846C93.9335 56.7794 94.129 56.916 94.2924 57.0863C94.4558 57.2567 94.5838 57.4576 94.6693 57.6774C94.7547 57.8972 94.7959 58.1317 94.7904 58.3674L94.7903 58.3674L94.7903 58.3762C94.7921 58.6077 94.7482 58.8374 94.661 59.0519L94.9229 59.1584L94.661 59.0519C94.5738 59.2665 94.445 59.4618 94.282 59.6266L94.4831 59.8254L94.282 59.6266C94.1191 59.7915 93.9251 59.9226 93.7112 60.0125C93.498 60.1022 93.2692 60.1491 93.0378 60.1505L68.1852 59.9064C67.7207 59.9016 67.2767 59.7146 66.9492 59.3859C66.6221 59.0575 66.4373 58.6141 66.4345 58.1511C66.4359 57.9232 66.4823 57.6977 66.5711 57.4877C66.66 57.2772 66.7898 57.0863 66.9529 56.926C67.116 56.7656 67.3092 56.6391 67.5215 56.5535C67.7338 56.468 67.961 56.4252 68.19 56.4276Z" stroke="url(#paint22_linear_192_16496)" stroke-width="0.565471"/>
</g>
<g filter="url(#filter5_dd_192_16496)">
<path d="M78.5684 67.5132L68.1714 67.3115C67.6308 67.3005 67.116 67.079 66.7367 66.6943C66.3573 66.3096 66.1436 65.7921 66.1409 65.2523C66.1415 64.9878 66.195 64.726 66.2981 64.4823C66.4013 64.2387 66.552 64.018 66.7416 63.8332C66.9311 63.6484 67.1557 63.5031 67.4021 63.406C67.6485 63.3088 67.9118 63.2617 68.1767 63.2673L78.5684 63.4106C79.1136 63.4231 79.6322 63.6486 80.0128 64.0385C80.3934 64.4285 80.6057 64.9519 80.6042 65.4964C80.6064 65.7632 80.5551 66.0278 80.4533 66.2745C80.3516 66.5212 80.2014 66.7451 80.0117 66.933C79.8221 67.1209 79.5966 67.2691 79.3488 67.3687C79.1009 67.4683 78.8356 67.5175 78.5684 67.5132Z" fill="url(#paint23_linear_192_16496)"/>
</g>
<g filter="url(#filter6_f_192_16496)">
<path d="M78.5684 67.5132L68.1714 67.3115C67.6308 67.3005 67.116 67.079 66.7367 66.6943C66.3573 66.3096 66.1436 65.7921 66.1409 65.2523C66.1415 64.9878 66.195 64.726 66.2981 64.4823C66.4013 64.2387 66.552 64.018 66.7416 63.8332C66.9311 63.6484 67.1557 63.5031 67.4021 63.406C67.6485 63.3088 67.9118 63.2617 68.1767 63.2673L78.5684 63.4106C79.1136 63.4231 79.6322 63.6486 80.0128 64.0385C80.3934 64.4285 80.6057 64.9519 80.6042 65.4964C80.6064 65.7632 80.5551 66.0278 80.4533 66.2745C80.3516 66.5212 80.2014 66.7451 80.0117 66.933C79.8221 67.1209 79.5966 67.2691 79.3488 67.3687C79.1009 67.4683 78.8356 67.5175 78.5684 67.5132Z" fill="url(#paint24_linear_192_16496)"/>
<path d="M68.1707 63.55L68.1728 63.55L78.5619 63.6933C78.5623 63.6933 78.5627 63.6933 78.5631 63.6933C79.034 63.7044 79.4818 63.8993 79.8104 64.236C80.1394 64.573 80.3228 65.0252 80.3214 65.4956L80.3215 65.4987C80.3233 65.7278 80.2793 65.9548 80.1919 66.1667C80.1046 66.3785 79.9757 66.5707 79.8128 66.7321C79.6499 66.8935 79.4562 67.0208 79.2433 67.1064C79.0305 67.1919 78.8027 67.2341 78.5733 67.2305C78.5732 67.2305 78.573 67.2305 78.5729 67.2305L68.1772 67.0289C68.1772 67.0289 68.1771 67.0289 68.1771 67.0289C67.7102 67.0193 67.2655 66.8279 66.938 66.4958C66.6107 66.1638 66.4262 65.7175 66.4236 65.2519C66.4243 65.0254 66.4702 64.8013 66.5585 64.5926C66.647 64.3835 66.7763 64.1942 66.939 64.0356C67.1016 63.877 67.2943 63.7524 67.5058 63.669C67.7173 63.5856 67.9433 63.5452 68.1707 63.55Z" stroke="url(#paint25_linear_192_16496)" stroke-width="0.565471"/>
</g>
<g style="mix-blend-mode:overlay" opacity="0.3">
<path d="M68.1707 63.55L68.1728 63.55L78.5619 63.6933C78.5623 63.6933 78.5627 63.6933 78.5631 63.6933C79.034 63.7044 79.4818 63.8993 79.8104 64.236C80.1394 64.573 80.3228 65.0252 80.3214 65.4956L80.3215 65.4987C80.3233 65.7278 80.2793 65.9548 80.1919 66.1667C80.1046 66.3785 79.9757 66.5707 79.8128 66.7321C79.6499 66.8935 79.4562 67.0208 79.2433 67.1064C79.0305 67.1919 78.8027 67.2341 78.5733 67.2305C78.5732 67.2305 78.573 67.2305 78.5729 67.2305L68.1772 67.0289C68.1772 67.0289 68.1771 67.0289 68.1771 67.0289C67.7102 67.0193 67.2655 66.8279 66.938 66.4958C66.6107 66.1638 66.4262 65.7175 66.4236 65.2519C66.4243 65.0254 66.4702 64.8013 66.5585 64.5926C66.647 64.3835 66.7763 64.1942 66.939 64.0356C67.1016 63.877 67.2943 63.7524 67.5058 63.669C67.7173 63.5856 67.9433 63.5452 68.1707 63.55Z" fill="url(#paint26_linear_192_16496)"/>
<path d="M68.1707 63.55L68.1728 63.55L78.5619 63.6933C78.5623 63.6933 78.5627 63.6933 78.5631 63.6933C79.034 63.7044 79.4818 63.8993 79.8104 64.236C80.1394 64.573 80.3228 65.0252 80.3214 65.4956L80.3215 65.4987C80.3233 65.7278 80.2793 65.9548 80.1919 66.1667C80.1046 66.3785 79.9757 66.5707 79.8128 66.7321C79.6499 66.8935 79.4562 67.0208 79.2433 67.1064C79.0305 67.1919 78.8027 67.2341 78.5733 67.2305C78.5732 67.2305 78.573 67.2305 78.5729 67.2305L68.1772 67.0289C68.1772 67.0289 68.1771 67.0289 68.1771 67.0289C67.7102 67.0193 67.2655 66.8279 66.938 66.4958C66.6107 66.1638 66.4262 65.7175 66.4236 65.2519C66.4243 65.0254 66.4702 64.8013 66.5585 64.5926C66.647 64.3835 66.7763 64.1942 66.939 64.0356C67.1016 63.877 67.2943 63.7524 67.5058 63.669C67.7173 63.5856 67.9433 63.5452 68.1707 63.55Z" stroke="url(#paint27_linear_192_16496)" stroke-width="0.565471"/>
</g>
<g opacity="0.6" filter="url(#filter7_f_192_16496)">
<path d="M52.1177 46.8818C52.9041 46.8583 53.6873 46.9927 54.4207 47.277C55.1542 47.5613 55.823 47.9897 56.3876 48.5368C56.9522 49.084 57.4011 49.7387 57.7076 50.4622C58.0141 51.1857 58.172 51.9633 58.172 52.7489C58.172 53.5345 58.0141 54.3121 57.7076 55.0356C57.4011 55.7592 56.9522 56.4139 56.3876 56.961C55.823 57.5082 55.1542 57.9366 54.4207 58.2209C53.6873 58.5052 52.9041 58.6395 52.1177 58.6161C51.3312 58.6395 50.5481 58.5052 49.8146 58.2209C49.0812 57.9366 48.4123 57.5082 47.8477 56.961C47.2831 56.4139 46.8343 55.7592 46.5278 55.0356C46.2213 54.3121 46.0633 53.5345 46.0633 52.7489C46.0633 51.9633 46.2213 51.1857 46.5278 50.4622C46.8343 49.7387 47.2831 49.084 47.8477 48.5368C48.4123 47.9897 49.0812 47.5613 49.8146 47.277C50.5481 46.9927 51.3312 46.8583 52.1177 46.8818Z" fill="#D31CDD"/>
</g>
<path d="M52.642 46.3576C53.4284 46.3342 54.2116 46.4685 54.945 46.7528C55.6785 47.0371 56.3473 47.4655 56.9119 48.0127C57.4765 48.5598 57.9254 49.2145 58.2319 49.9381C58.5384 50.6616 58.6963 51.4392 58.6963 52.2248C58.6963 53.0104 58.5384 53.788 58.2319 54.5115C57.9254 55.235 57.4765 55.8897 56.9119 56.4369C56.3473 56.984 55.6785 57.4124 54.945 57.6967C54.2116 57.981 53.4284 58.1154 52.642 58.0919C51.8556 58.1154 51.0724 57.981 50.3389 57.6967C49.6055 57.4124 48.9367 56.984 48.3721 56.4369C47.8075 55.8897 47.3586 55.235 47.0521 54.5115C46.7456 53.788 46.5877 53.0104 46.5877 52.2248C46.5877 51.4392 46.7456 50.6616 47.0521 49.9381C47.3586 49.2145 47.8075 48.5598 48.3721 48.0127C48.9367 47.4655 49.6055 47.0371 50.3389 46.7528C51.0724 46.4685 51.8556 46.3342 52.642 46.3576Z" fill="#D31CDD"/>
<path d="M52.6275 46.8446L52.642 46.845L52.6565 46.8446C53.3779 46.8231 54.0962 46.9464 54.769 47.2071C55.4417 47.4679 56.0551 47.8608 56.5729 48.3625C57.0906 48.8643 57.5022 49.4647 57.7833 50.1281C58.0643 50.7915 58.2091 51.5045 58.2091 52.2248C58.2091 52.9451 58.0643 53.658 57.7833 54.3214C57.5022 54.9849 57.0906 55.5853 56.5729 56.087C56.0551 56.5888 55.4417 56.9817 54.769 57.2425C54.0962 57.5032 53.3779 57.6265 52.6565 57.6049L52.642 57.6045L52.6275 57.6049C51.9061 57.6265 51.1878 57.5032 50.515 57.2425C49.8423 56.9817 49.2289 56.5888 48.7111 56.087C48.1933 55.5853 47.7818 54.9849 47.5007 54.3214C47.2197 53.658 47.0749 52.9451 47.0749 52.2248C47.0749 51.5045 47.2197 50.7915 47.5007 50.1281C47.7818 49.4647 48.1933 48.8643 48.7111 48.3625C49.2289 47.8608 49.8423 47.4679 50.515 47.2071C51.1878 46.9464 51.9061 46.8231 52.6275 46.8446Z" fill="url(#paint28_linear_192_16496)" stroke="url(#paint29_linear_192_16496)" stroke-width="0.974396"/>
<g style="mix-blend-mode:overlay">
<path d="M52.5774 47.0752L52.5846 47.0754L52.5917 47.0752C53.3097 47.0541 54.0247 47.1748 54.6941 47.4299C55.3636 47.6849 55.9737 48.0692 56.4886 48.5597C57.0034 49.0502 57.4124 49.6368 57.6916 50.2848C57.9709 50.9327 58.1147 51.6289 58.1147 52.3322C58.1147 53.0354 57.9709 53.7316 57.6916 54.3796C57.4124 55.0275 57.0034 55.6142 56.4886 56.1046C55.9737 56.5951 55.3636 56.9794 54.6941 57.2345C54.0247 57.4896 53.3097 57.6102 52.5917 57.5891L52.5846 57.5889L52.5774 57.5891C51.8594 57.6102 51.1444 57.4896 50.475 57.2345C49.8056 56.9794 49.1954 56.5951 48.6806 56.1046C48.1657 55.6142 47.7567 55.0275 47.4775 54.3796C47.1982 53.7316 47.0544 53.0354 47.0544 52.3322C47.0544 51.6289 47.1982 50.9327 47.4775 50.2848C47.7567 49.6368 48.1657 49.0502 48.6806 48.5597C49.1954 48.0692 49.8056 47.6849 50.475 47.4299C51.1444 47.1748 51.8594 47.0541 52.5774 47.0752Z" stroke="url(#paint30_linear_192_16496)" stroke-width="0.487198"/>
</g>
<g opacity="0.6" filter="url(#filter8_f_192_16496)">
<path d="M60.3842 67.5361C60.3912 67.6364 60.3766 67.7369 60.3414 67.831C60.3061 67.9251 60.2511 68.0106 60.1799 68.0816C60.1088 68.1526 60.0232 68.2076 59.9289 68.2428C59.8347 68.278 59.734 68.2926 59.6336 68.2856L43.4515 67.9554C43.3512 67.9593 43.2513 67.9421 43.1581 67.905C43.0648 67.868 42.9804 67.8119 42.9102 67.7403C42.84 67.6687 42.7856 67.5833 42.7504 67.4895C42.7153 67.3956 42.7002 67.2955 42.7061 67.1955C42.9258 65.0001 43.9535 62.9641 45.5903 61.4818C47.2271 59.9995 49.3565 59.1764 51.5662 59.1717C56.1274 59.2084 59.9066 62.8508 60.3842 67.5361Z" fill="#D31CDD"/>
</g>
<path d="M61.4338 66.4878C61.4408 66.588 61.4262 66.6886 61.3909 66.7826C61.3557 66.8767 61.3006 66.9622 61.2295 67.0332C61.1584 67.1043 61.0728 67.1592 60.9785 67.1944C60.8843 67.2296 60.7836 67.2442 60.6832 67.2372L44.5011 66.9071C44.4008 66.9109 44.3009 66.8937 44.2076 66.8567C44.1144 66.8196 44.03 66.7635 43.9598 66.6919C43.8896 66.6204 43.8352 66.5349 43.8 66.4411C43.7649 66.3473 43.7498 66.2471 43.7557 66.1471C43.9754 63.9517 45.0031 61.9157 46.6399 60.4334C48.2767 58.9512 50.406 58.128 52.6158 58.1234C57.177 58.16 60.9562 61.8024 61.4338 66.4878Z" fill="#D31CDD"/>
<path d="M60.7171 66.7512L60.7051 66.7504L60.6932 66.7501L44.511 66.42L44.4967 66.4197L44.4825 66.4202C44.45 66.4214 44.4177 66.4159 44.3876 66.4039C44.3574 66.3919 44.3302 66.3738 44.3076 66.3508L43.9604 66.6913L44.3076 66.3508C44.285 66.3278 44.2676 66.3003 44.2563 66.2702C44.2459 66.2424 44.2409 66.2128 44.2418 66.1832C44.452 64.1128 45.4227 62.1931 46.9669 60.7946C48.5137 59.3938 50.5259 58.6156 52.6143 58.6106C56.9032 58.6464 60.4894 62.0748 60.9481 66.5273C60.9494 66.5561 60.9448 66.5848 60.9347 66.6118C60.9239 66.6405 60.9071 66.6667 60.8853 66.6885C60.8634 66.7103 60.8371 66.7272 60.8081 66.738C60.779 66.7489 60.748 66.7534 60.7171 66.7512Z" fill="url(#paint31_linear_192_16496)" stroke="url(#paint32_linear_192_16496)" stroke-width="0.974396"/>
<g style="mix-blend-mode:overlay">
<path d="M60.0805 66.699L60.0806 66.6988L60.0688 66.6985L45.1574 66.399L45.1574 66.3986L45.1434 66.3991C45.0844 66.4013 45.0256 66.3914 44.9709 66.37C44.9162 66.3486 44.867 66.3163 44.8263 66.2755C44.7857 66.2346 44.7544 66.1861 44.7342 66.1332C44.7146 66.0817 44.706 66.0269 44.7086 65.9722C44.906 64.0439 45.8236 62.255 47.2855 60.9517C48.7486 59.6472 50.6526 58.9222 52.6292 58.9178C56.6994 58.9506 60.0828 62.1515 60.5127 66.2829C60.5161 66.3373 60.5078 66.3918 60.4883 66.4431C60.4684 66.4954 60.4372 66.5433 60.3965 66.5833C60.3558 66.6233 60.3065 66.6545 60.2519 66.6746C60.1973 66.6947 60.1389 66.703 60.0805 66.699Z" stroke="url(#paint33_linear_192_16496)" stroke-width="0.487198"/>
</g>
<defs>
<filter id="filter0_f_192_16496" x="20.0281" y="19.5885" width="100.103" height="82.4962" filterUnits="userSpaceOnUse" color-interpolation-filters="sRGB">
<feFlood flood-opacity="0" result="BackgroundImageFix"/>
<feBlend mode="normal" in="SourceGraphic" in2="BackgroundImageFix" result="shape"/>
<feGaussianBlur stdDeviation="9.74396" result="effect1_foregroundBlur_192_16496"/>
</filter>
<filter id="filter1_d_192_16496" x="34.3" y="33.2117" width="72.3791" height="53.2906" filterUnits="userSpaceOnUse" color-interpolation-filters="sRGB">
<feFlood flood-opacity="0" result="BackgroundImageFix"/>
<feColorMatrix in="SourceAlpha" type="matrix" values="0 0 0 0 0 0 0 0 0 0 0 0 0 0 0 0 0 0 127 0" result="hardAlpha"/>
<feOffset dy="3.89758"/>
<feGaussianBlur stdDeviation="1.94879"/>
<feComposite in2="hardAlpha" operator="out"/>
<feColorMatrix type="matrix" values="0 0 0 0 0 0 0 0 0 0 0 0 0 0 0 0 0 0 0.25 0"/>
<feBlend mode="normal" in2="BackgroundImageFix" result="effect1_dropShadow_192_16496"/>
<feBlend mode="normal" in="SourceGraphic" in2="effect1_dropShadow_192_16496" result="shape"/>
</filter>
<filter id="filter2_f_192_16496" x="36.2487" y="31.2629" width="68.4816" height="49.3931" filterUnits="userSpaceOnUse" color-interpolation-filters="sRGB">
<feFlood flood-opacity="0" result="BackgroundImageFix"/>
<feBlend mode="normal" in="SourceGraphic" in2="BackgroundImageFix" result="shape"/>
<feGaussianBlur stdDeviation="0.974396" result="effect1_foregroundBlur_192_16496"/>
</filter>
<filter id="filter3_dd_192_16496" x="58.8614" y="53.9436" width="36.717" height="12.0836" filterUnits="userSpaceOnUse" color-interpolation-filters="sRGB">
<feFlood flood-opacity="0" result="BackgroundImageFix"/>
<feColorMatrix in="SourceAlpha" type="matrix" values="0 0 0 0 0 0 0 0 0 0 0 0 0 0 0 0 0 0 127 0" result="hardAlpha"/>
<feOffset dx="-3.39283" dy="1.69641"/>
<feGaussianBlur stdDeviation="1.94879"/>
<feComposite in2="hardAlpha" operator="out"/>
<feColorMatrix type="matrix" values="0 0 0 0 0.729167 0 0 0 0 0.333333 0 0 0 0 0.0364583 0 0 0 0.5 0"/>
<feBlend mode="normal" in2="BackgroundImageFix" result="effect1_dropShadow_192_16496"/>
<feColorMatrix in="SourceAlpha" type="matrix" values="0 0 0 0 0 0 0 0 0 0 0 0 0 0 0 0 0 0 127 0" result="hardAlpha"/>
<feOffset dx="-1.94879" dy="1.13094"/>
<feComposite in2="hardAlpha" operator="out"/>
<feColorMatrix type="matrix" values="0 0 0 0 1 0 0 0 0 0.459524 0 0 0 0 0.0541667 0 0 0 0.1 0"/>
<feBlend mode="normal" in2="effect1_dropShadow_192_16496" result="effect2_dropShadow_192_16496"/>
<feBlend mode="normal" in="SourceGraphic" in2="effect2_dropShadow_192_16496" result="shape"/>
</filter>
<filter id="filter4_f_192_16496" x="65.0209" y="55.0139" width="31.1837" height="6.55034" filterUnits="userSpaceOnUse" color-interpolation-filters="sRGB">
<feFlood flood-opacity="0" result="BackgroundImageFix"/>
<feBlend mode="normal" in="SourceGraphic" in2="BackgroundImageFix" result="shape"/>
<feGaussianBlur stdDeviation="0.565471" result="effect1_foregroundBlur_192_16496"/>
</filter>
<filter id="filter5_dd_192_16496" x="58.8505" y="61.0657" width="22.2585" height="12.0418" filterUnits="userSpaceOnUse" color-interpolation-filters="sRGB">
<feFlood flood-opacity="0" result="BackgroundImageFix"/>
<feColorMatrix in="SourceAlpha" type="matrix" values="0 0 0 0 0 0 0 0 0 0 0 0 0 0 0 0 0 0 127 0" result="hardAlpha"/>
<feOffset dx="-3.39283" dy="1.69641"/>
<feGaussianBlur stdDeviation="1.94879"/>
<feComposite in2="hardAlpha" operator="out"/>
<feColorMatrix type="matrix" values="0 0 0 0 0.729167 0 0 0 0 0.333333 0 0 0 0 0.0364583 0 0 0 0.5 0"/>
<feBlend mode="normal" in2="BackgroundImageFix" result="effect1_dropShadow_192_16496"/>
<feColorMatrix in="SourceAlpha" type="matrix" values="0 0 0 0 0 0 0 0 0 0 0 0 0 0 0 0 0 0 127 0" result="hardAlpha"/>
<feOffset dx="-1.94879" dy="1.13094"/>
<feComposite in2="hardAlpha" operator="out"/>
<feColorMatrix type="matrix" values="0 0 0 0 1 0 0 0 0 0.459524 0 0 0 0 0.0541667 0 0 0 0.1 0"/>
<feBlend mode="normal" in2="effect1_dropShadow_192_16496" result="effect2_dropShadow_192_16496"/>
<feBlend mode="normal" in="SourceGraphic" in2="effect2_dropShadow_192_16496" result="shape"/>
</filter>
<filter id="filter6_f_192_16496" x="65.01" y="62.1359" width="16.7252" height="6.5085" filterUnits="userSpaceOnUse" color-interpolation-filters="sRGB">
<feFlood flood-opacity="0" result="BackgroundImageFix"/>
<feBlend mode="normal" in="SourceGraphic" in2="BackgroundImageFix" result="shape"/>
<feGaussianBlur stdDeviation="0.565471" result="effect1_foregroundBlur_192_16496"/>
</filter>
<filter id="filter7_f_192_16496" x="42.1658" y="42.9816" width="19.9038" height="19.5347" filterUnits="userSpaceOnUse" color-interpolation-filters="sRGB">
<feFlood flood-opacity="0" result="BackgroundImageFix"/>
<feBlend mode="normal" in="SourceGraphic" in2="BackgroundImageFix" result="shape"/>
<feGaussianBlur stdDeviation="1.94879" result="effect1_foregroundBlur_192_16496"/>
</filter>
<filter id="filter8_f_192_16496" x="38.8073" y="55.2741" width="25.4762" height="16.9107" filterUnits="userSpaceOnUse" color-interpolation-filters="sRGB">
<feFlood flood-opacity="0" result="BackgroundImageFix"/>
<feBlend mode="normal" in="SourceGraphic" in2="BackgroundImageFix" result="shape"/>
<feGaussianBlur stdDeviation="1.94879" result="effect1_foregroundBlur_192_16496"/>
</filter>
<linearGradient id="paint0_linear_192_16496" x1="74.3321" y1="77.5548" x2="73.8021" y2="83.6584" gradientUnits="userSpaceOnUse">
<stop stop-color="#691332"/>
<stop offset="1" stop-color="#691332" stop-opacity="0"/>
</linearGradient>
<linearGradient id="paint1_linear_192_16496" x1="73.0748" y1="31.3685" x2="73.0748" y2="80.5409" gradientUnits="userSpaceOnUse">
<stop stop-color="#F78AB1"/>
<stop offset="0.0520833" stop-color="#FF2D55"/>
<stop offset="0.848958" stop-color="#FF2D55"/>
<stop offset="1" stop-color="#F41540"/>
</linearGradient>
<linearGradient id="paint2_linear_192_16496" x1="92.1388" y1="34.5651" x2="69.0656" y2="69.6259" gradientUnits="userSpaceOnUse">
<stop stop-color="#FDDE3E"/>
<stop offset="1" stop-color="#FFB622"/>
</linearGradient>
<linearGradient id="paint3_linear_192_16496" x1="80.0835" y1="33.2117" x2="69.8548" y2="78.564" gradientUnits="userSpaceOnUse">
<stop stop-color="#FBFF4E"/>
<stop offset="1" stop-color="#EB9D00"/>
</linearGradient>
<linearGradient id="paint4_linear_192_16496" x1="95.328" y1="36.4227" x2="58.445" y2="75.4877" gradientUnits="userSpaceOnUse">
<stop stop-color="#FDDE3E"/>
<stop offset="1" stop-color="#FFB622"/>
</linearGradient>
<linearGradient id="paint5_linear_192_16496" x1="80.0835" y1="33.2117" x2="69.8548" y2="78.564" gradientUnits="userSpaceOnUse">
<stop stop-color="#FBFF4E"/>
<stop offset="1" stop-color="#EB9D00"/>
</linearGradient>
<linearGradient id="paint6_linear_192_16496" x1="86.8233" y1="37.7495" x2="59.2377" y2="75.4717" gradientUnits="userSpaceOnUse">
<stop stop-color="#FDDE3E"/>
<stop offset="1" stop-color="#FFB622"/>
</linearGradient>
<linearGradient id="paint7_linear_192_16496" x1="74.8636" y1="60.3058" x2="74.994" y2="33.2402" gradientUnits="userSpaceOnUse">
<stop stop-color="#FF3D00"/>
<stop offset="1" stop-color="#FFA34E"/>
</linearGradient>
<linearGradient id="paint8_linear_192_16496" x1="98.8365" y1="35.2051" x2="77.2028" y2="54.162" gradientUnits="userSpaceOnUse">
<stop stop-color="white"/>
<stop offset="1" stop-color="white" stop-opacity="0"/>
</linearGradient>
<linearGradient id="paint9_linear_192_16496" x1="106.827" y1="37.7862" x2="92.7085" y2="38.6652" gradientUnits="userSpaceOnUse">
<stop stop-color="white"/>
<stop offset="1" stop-color="white" stop-opacity="0"/>
</linearGradient>
<linearGradient id="paint10_linear_192_16496" x1="67.6873" y1="35.3612" x2="67.6408" y2="38.545" gradientUnits="userSpaceOnUse">
<stop stop-color="#E69537"/>
<stop offset="1" stop-color="#FABC1D"/>
</linearGradient>
<linearGradient id="paint11_linear_192_16496" x1="70.877" y1="32.4422" x2="70.5669" y2="35.9616" gradientUnits="userSpaceOnUse">
<stop stop-color="#844FFF"/>
<stop offset="1" stop-color="#5222BF"/>
</linearGradient>
<linearGradient id="paint12_linear_192_16496" x1="71.9359" y1="32.6219" x2="71.5067" y2="36.1031" gradientUnits="userSpaceOnUse">
<stop stop-color="#3E2085" stop-opacity="0"/>
<stop offset="1" stop-color="#3E2085"/>
</linearGradient>
<linearGradient id="paint13_linear_192_16496" x1="78.2497" y1="2.21534" x2="69.2341" y2="12.8819" gradientUnits="userSpaceOnUse">
<stop stop-color="#7E57DA"/>
<stop offset="0.744563" stop-color="#4C2B99"/>
<stop offset="1" stop-color="#3E1F85"/>
</linearGradient>
<linearGradient id="paint14_linear_192_16496" x1="67.6878" y1="5.64001" x2="67.6878" y2="25.808" gradientUnits="userSpaceOnUse">
<stop stop-color="#844FFF"/>
<stop offset="0.96875" stop-color="#7743ED"/>
<stop offset="1" stop-color="#5222BF"/>
</linearGradient>
<linearGradient id="paint15_linear_192_16496" x1="69.7455" y1="12.1639" x2="65.3927" y2="25.1432" gradientUnits="userSpaceOnUse">
<stop stop-color="#3E2085" stop-opacity="0"/>
<stop offset="1" stop-color="#3E2085"/>
</linearGradient>
<linearGradient id="paint16_linear_192_16496" x1="70.566" y1="25.4149" x2="70.566" y2="31.2694" gradientUnits="userSpaceOnUse">
<stop stop-color="#D9FAF1"/>
<stop offset="1" stop-color="#B2F7E4"/>
</linearGradient>
<radialGradient id="paint17_radial_192_16496" cx="0" cy="0" r="1" gradientUnits="userSpaceOnUse" gradientTransform="translate(70.566 28.3422) rotate(90) scale(2.92727 4.60051)">
<stop stop-color="#C1F8E9"/>
<stop offset="1" stop-color="#85E8CC"/>
</radialGradient>
<linearGradient id="paint18_linear_192_16496" x1="80.6127" y1="56.1448" x2="80.6127" y2="60.4333" gradientUnits="userSpaceOnUse">
<stop stop-color="#FDDE3E"/>
<stop offset="1" stop-color="#FFB622"/>
</linearGradient>
<linearGradient id="paint19_linear_192_16496" x1="80.6127" y1="56.1448" x2="80.6127" y2="60.4333" gradientUnits="userSpaceOnUse">
<stop stop-color="#FFB622"/>
<stop offset="1" stop-color="#F9871E"/>
</linearGradient>
<linearGradient id="paint20_linear_192_16496" x1="84.9091" y1="56.1448" x2="84.6963" y2="60.6271" gradientUnits="userSpaceOnUse">
<stop stop-color="#FFE600"/>
<stop offset="1" stop-color="#E16408"/>
</linearGradient>
<linearGradient id="paint21_linear_192_16496" x1="80.6127" y1="56.1448" x2="80.6127" y2="60.4333" gradientUnits="userSpaceOnUse">
<stop offset="0.489583" stop-opacity="0"/>
<stop offset="1"/>
</linearGradient>
<linearGradient id="paint22_linear_192_16496" x1="84.1257" y1="55.8344" x2="84.3563" y2="58.3979" gradientUnits="userSpaceOnUse">
<stop stop-color="#DEC800"/>
<stop offset="1" stop-color="#733700"/>
</linearGradient>
<linearGradient id="paint23_linear_192_16496" x1="73.3726" y1="63.2669" x2="73.3726" y2="67.5135" gradientUnits="userSpaceOnUse">
<stop stop-color="#FDDE3E"/>
<stop offset="1" stop-color="#FFB622"/>
</linearGradient>
<linearGradient id="paint24_linear_192_16496" x1="73.3726" y1="63.2669" x2="73.3726" y2="67.5135" gradientUnits="userSpaceOnUse">
<stop stop-color="#FFB622"/>
<stop offset="1" stop-color="#F9871E"/>
</linearGradient>
<linearGradient id="paint25_linear_192_16496" x1="75.5211" y1="63.2669" x2="75.1066" y2="67.6765" gradientUnits="userSpaceOnUse">
<stop stop-color="#FFE600"/>
<stop offset="1" stop-color="#E16408"/>
</linearGradient>
<linearGradient id="paint26_linear_192_16496" x1="73.3726" y1="63.2669" x2="73.3726" y2="67.5135" gradientUnits="userSpaceOnUse">
<stop offset="0.489583" stop-opacity="0"/>
<stop offset="1"/>
</linearGradient>
<linearGradient id="paint27_linear_192_16496" x1="75.1294" y1="62.9595" x2="75.5711" y2="65.4399" gradientUnits="userSpaceOnUse">
<stop stop-color="#DEC800"/>
<stop offset="1" stop-color="#733700"/>
</linearGradient>
<linearGradient id="paint28_linear_192_16496" x1="54.9463" y1="46.8293" x2="49.4615" y2="52.4044" gradientUnits="userSpaceOnUse">
<stop stop-color="#F873FF"/>
<stop offset="0.0729167" stop-color="#EA24F4"/>
<stop offset="1" stop-color="#C41CCD"/>
</linearGradient>
<linearGradient id="paint29_linear_192_16496" x1="58.6963" y1="46.355" x2="52.2495" y2="51.9656" gradientUnits="userSpaceOnUse">
<stop stop-color="#F75BFF"/>
<stop offset="0.734375" stop-color="#D71FE1"/>
<stop offset="1" stop-color="#BB17C4"/>
</linearGradient>
<linearGradient id="paint30_linear_192_16496" x1="55.9963" y1="47.3533" x2="51.0436" y2="52.6511" gradientUnits="userSpaceOnUse">
<stop stop-color="white"/>
<stop offset="0.130208" stop-color="white" stop-opacity="0"/>
</linearGradient>
<linearGradient id="paint31_linear_192_16496" x1="55.4711" y1="59.1453" x2="52.4653" y2="65.1836" gradientUnits="userSpaceOnUse">
<stop stop-color="#F873FF"/>
<stop offset="0.0729167" stop-color="#EA24F4"/>
<stop offset="1" stop-color="#C41CCD"/>
</linearGradient>
<linearGradient id="paint32_linear_192_16496" x1="61.4355" y1="58.1234" x2="56.938" y2="65.4838" gradientUnits="userSpaceOnUse">
<stop stop-color="#F75BFF"/>
<stop offset="0.734375" stop-color="#D71FE1"/>
<stop offset="1" stop-color="#BB17C4"/>
</linearGradient>
<linearGradient id="paint33_linear_192_16496" x1="57.227" y1="60.3281" x2="54.5452" y2="65.0673" gradientUnits="userSpaceOnUse">
<stop stop-color="white"/>
<stop offset="0.130208" stop-color="white" stop-opacity="0"/>
</linearGradient>
</defs>
</svg>
