<svg xmlns="http://www.w3.org/2000/svg" width="16" height="16" viewBox="0 0 16 16">
    <g fill="none" fill-rule="evenodd">
        <path d="M0 0H24V24H0z" transform="matrix(0 1 1 0 -4 -4)"/>
        <path fill="#FF2D55" fill-rule="nonzero" d="M12 4c4.418 0 8 3.582 8 8s-3.582 8-8 8-8-3.582-8-8 3.582-8 8-8zM8.852 8.811l-.04.04c-.223.223-.223.585 0 .808L11.155 12l-2.341 2.341c-.224.223-.224.585 0 .808l.039.04c.223.223.585.223.808 0L12 12.847l2.34 2.34c.222.222.584.222.807 0l.04-.04c.223-.223.223-.585 0-.808L12.847 12l2.34-2.339c.223-.223.223-.585 0-.808l-.04-.04c-.223-.222-.585-.222-.808 0l-2.339 2.34L9.66 8.81c-.223-.223-.585-.223-.808 0z" transform="matrix(0 1 1 0 -4 -4)"/>
    </g>
</svg>
