<svg width="87" height="86" viewBox="0 0 87 86" fill="none" xmlns="http://www.w3.org/2000/svg">
<path fill-rule="evenodd" clip-rule="evenodd" d="M86.5 8.6C86.5 6.31938 85.5955 4.13114 83.9821 2.51788C82.3689 0.904621 80.1804 0 77.9 0H9.1C6.81938 0 4.63115 0.904543 3.01788 2.51788C1.40462 4.13114 0.5 6.31957 0.5 8.6V77.4C0.5 79.6806 1.40454 81.8689 3.01788 83.4821C4.63115 85.0954 6.81957 86 9.1 86H77.9C80.1806 86 82.3689 85.0955 83.9821 83.4821C85.5954 81.8689 86.5 79.6804 86.5 77.4V8.6ZM83.06 8.6V77.4C83.06 78.7691 82.5164 80.0799 81.5496 81.0495C80.5798 82.0163 79.269 82.5599 77.9001 82.5599H9.10008C7.731 82.5599 6.42022 82.0163 5.45053 81.0495C4.4838 80.0797 3.94016 78.7689 3.94016 77.4V8.6C3.94016 7.23092 4.4838 5.92014 5.45053 4.95045C6.42034 3.98372 7.73115 3.44008 9.10008 3.44008H77.9001C79.2692 3.44008 80.5799 3.98372 81.5496 4.95045C82.5164 5.92026 83.06 7.23108 83.06 8.6Z" fill="white"/>
<path d="M2.82434 44.1641H83.0135" stroke="white" stroke-width="1.5"/>
<path d="M44.6621 2.32422L44.6621 82.5134" stroke="white" stroke-width="1.5"/>
<path d="M7.54097 17.2599L7.54093 17.2598C7.20277 16.7773 7.32078 16.111 7.80399 15.7736L13.6467 11.6909C13.6467 11.6909 13.6467 11.6909 13.6467 11.6909C13.8265 11.5648 14.0404 11.4966 14.2606 11.4966H17.8259C18.4162 11.4966 18.8952 11.9744 18.8952 12.5641C18.8952 14.595 20.5462 16.2433 22.5812 16.2433C24.6163 16.2433 26.2673 14.595 26.2673 12.5641C26.2673 11.9744 26.7462 11.4966 27.3365 11.4966L30.9017 11.4961C31.1218 11.4961 31.3356 11.5643 31.5154 11.6903L7.54097 17.2599ZM7.54097 17.2599L10.9515 22.1198C11.2896 22.6022 11.9567 22.7197 12.4398 22.3824C12.4398 22.3824 12.4398 22.3824 12.4398 22.3824L13.1913 21.8577V33.9218C13.1913 34.5114 13.6684 34.9893 14.2605 34.9893H30.8996C31.4899 34.9893 31.9689 34.5115 31.9689 33.9218V21.8556L32.7224 22.3819L32.794 22.2794L32.7224 22.3819C33.2055 22.7193 33.8726 22.6017 34.2107 22.1194C34.2107 22.1194 34.2107 22.1194 34.2108 22.1193L37.6213 17.2594L37.6213 17.2593C37.9595 16.7769 37.8415 16.1106 37.3583 15.7731L31.5156 11.6905L7.54097 17.2599ZM31.5134 18.9312L31.5134 18.9312C31.1864 18.7029 30.7607 18.6754 30.4064 18.8587L30.4062 18.8588C30.0531 19.0422 29.8305 19.4072 29.8305 19.8049V32.8541H15.3299V19.806C15.3299 19.4087 15.1074 19.0439 14.7533 18.8601C14.3996 18.6745 13.972 18.7042 13.6471 18.9305L13.6469 18.9306L12.0891 20.0204L9.90625 16.9094L14.5963 13.631H16.8564C17.3582 16.3307 19.7324 18.3778 22.5812 18.3778C25.43 18.3778 27.8041 16.3313 28.3059 13.6317H30.5661L35.2561 16.91L33.0732 20.0211L31.5134 18.9312Z" fill="white" stroke="white" stroke-width="0.25"/>
<path d="M77.0336 36.9986L77.0335 36.9987C76.8446 37.1843 76.5823 37.2885 76.3091 37.2885H69.1572C68.6902 37.2885 68.2774 36.9852 68.1829 36.5506L65.5812 24.6139L62.9795 36.55L77.0336 36.9986ZM77.0336 36.9986C77.2227 36.8123 77.3204 36.5601 77.3001 36.3021L77.0336 36.9986ZM54.1287 36.9987L54.1286 36.9986C53.9394 36.8122 53.8417 36.5598 53.8621 36.302L53.8621 36.3021L53.9618 36.3098L53.8621 36.3019L55.6473 13.3654V10.1172C55.6473 9.60087 56.1004 9.19687 56.6413 9.19687H74.5211C75.062 9.19687 75.5151 9.60087 75.5151 10.1172V13.3654L77.3001 36.3019L54.1287 36.9987ZM54.1287 36.9987C54.3178 37.1845 54.5801 37.2888 54.8533 37.2888H54.9497M54.1287 36.9987L54.9497 37.2888M54.9497 37.2888L54.9497 37.2884M54.9497 37.2888L54.9497 37.2884M54.9497 37.2884H62.0053C62.4722 37.2884 62.885 36.9851 62.9795 36.55L54.9497 37.2884ZM57.6325 13.4651C57.6325 13.4653 57.6324 13.4655 57.6324 13.4657L55.9215 35.4477H61.1916L64.607 19.7793L57.6325 13.4651ZM57.6325 13.4651C57.6345 13.4424 57.6353 13.4201 57.6353 13.3985M57.6325 13.4651L57.6353 13.3985M57.6353 13.3985V11.0375M57.6353 13.3985V11.0375M57.6353 11.0375H73.5272V13.3985C73.5272 13.4205 73.528 13.4427 73.53 13.4652C73.53 13.4654 73.53 13.4657 73.5301 13.4659L75.241 35.4477H69.9709L66.5555 19.7793L66.5555 19.7792L66.4578 19.8005M57.6353 11.0375L64.607 19.7792L64.7047 19.8005C64.788 19.4169 65.1554 19.1408 65.5812 19.1408C66.0071 19.1408 66.3745 19.4169 66.4578 19.8005M66.4578 19.8005L69.8903 35.5477L66.4578 19.8005Z" fill="white" stroke="white" stroke-width="0.2"/>
<path d="M23.4585 60.5194L23.4586 60.5195L29.5411 63.8042C29.5412 63.8042 29.5413 63.8043 29.5414 63.8044C30.2266 64.1691 31.0022 64.3617 31.7919 64.3627C33.3803 64.3628 34.9051 64.9514 36.0302 66.0016C37.1556 67.0519 37.7891 68.478 37.7891 69.9667V73.76C37.7891 73.9531 37.7069 74.1371 37.5627 74.2713M23.4585 60.5194L37.4946 74.1982M23.4585 60.5194C22.4636 59.9831 21.8534 58.9956 21.8508 57.9299M23.4585 60.5194L21.8508 57.9299M37.5627 74.2713L37.4946 74.1982M37.5627 74.2713C37.5628 74.2713 37.5628 74.2713 37.5629 74.2712L37.4946 74.1982M37.5627 74.2713C37.4191 74.4056 37.2254 74.4798 37.0251 74.4798H10.4613C10.2609 74.4798 10.0671 74.4055 9.9235 74.2712M37.4946 74.1982C37.3702 74.3145 37.2011 74.3798 37.0251 74.3798H10.4613C10.2853 74.3798 10.1162 74.3145 9.9918 74.1982M9.9235 74.2712C9.92354 74.2712 9.92359 74.2713 9.92363 74.2713L9.9918 74.1982M9.9235 74.2712C9.77945 74.1369 9.69724 73.953 9.69724 73.76V56.4049C9.69724 56.0011 10.0458 55.6852 10.4613 55.6852H21.0868C21.2874 55.6852 21.4809 55.7594 21.6248 55.8936L21.5565 55.9667M9.9235 74.2712L9.9918 74.1982M9.9918 74.1982L21.5565 55.9667M21.5565 55.9667C21.6809 56.0828 21.7508 56.2406 21.7508 56.4049V57.9299C21.7534 59.0348 22.3859 60.0549 23.4111 60.6074L21.5565 55.9667ZM21.5565 55.9667L21.6248 55.8936C21.7686 56.0279 21.8508 56.2118 21.8508 56.4049L21.8508 57.9296M21.5565 55.9667L21.8508 57.9296M21.8508 57.9296L21.8508 57.9299M21.8508 57.9296L21.8508 57.9299M11.225 59.4041V57.1247L20.3227 57.1249L20.3226 57.93L20.3227 57.9311C20.3405 59.5042 21.2447 60.9486 22.6963 61.7351L22.9791 61.9146V65.0826C22.9791 65.4866 23.3276 65.8024 23.7431 65.8024C24.1586 65.8024 24.5071 65.4866 24.5071 65.0826V62.7711L25.6352 63.3818L25.6354 66.3221C25.6354 66.7261 25.9839 67.0421 26.3995 67.0421C26.8148 67.0421 27.1635 66.7261 27.1635 66.3221V64.1719L28.2916 64.7826V67.5619C28.2916 67.9657 28.6404 68.2817 29.0559 68.2817C29.4711 68.2817 29.8199 67.9657 29.8199 67.5619V65.4832C30.4526 65.6938 31.1195 65.8019 31.7916 65.8023H31.7917C32.9792 65.8023 34.1167 66.2428 34.9543 67.0245C35.7916 67.806 36.2608 68.8646 36.2608 69.9668V70.561H22.6427L18.855 68.196L18.8551 68.196L18.8518 68.1941C18.7247 68.1211 18.5791 68.0824 18.4306 68.0816H18.4301H11.225V64.5627H13.1174C13.6701 64.5627 14.2016 64.3579 14.5944 63.9911C14.9874 63.6242 15.2096 63.1251 15.2096 62.6032V61.3636C15.2096 60.8417 14.9874 60.3426 14.5944 59.9757C14.2016 59.6089 13.6701 59.4041 13.1174 59.4041H11.225ZM11.2253 60.844H13.1177C13.2694 60.844 13.4138 60.9003 13.519 60.9985C13.6242 61.0966 13.6818 61.2281 13.6818 61.3638V62.6033C13.6818 62.739 13.6242 62.8704 13.519 62.9686C13.4138 63.0667 13.2694 63.1231 13.1177 63.1231H11.2253V60.844Z" fill="white" stroke="white" stroke-width="0.2"/>
<path d="M76.3206 68.5577C75.899 68.5331 75.4874 68.5091 75.0995 68.4927C75.0995 68.4927 75.0994 68.4927 75.0993 68.4927L76.3206 68.5577ZM76.3206 68.5577L76.4127 68.563C76.5491 68.571 76.6864 68.5789 76.824 68.5866L76.3206 68.5577ZM81.9079 68.6403C82.034 68.3147 81.8737 67.949 81.581 67.8154L81.5647 67.7998H81.5287L81.5213 67.7927L81.5068 67.7787L81.4881 67.7714C81.1995 67.6594 80.6753 67.5885 79.7093 67.5141C78.8907 67.4509 77.7438 67.3847 76.1343 67.2918C75.8334 67.2744 75.5164 67.2561 75.1824 67.2367C74.7029 67.2046 74.227 67.1799 73.7655 67.156C73.2329 67.1285 72.7194 67.1019 72.2413 67.0659L69.7579 58.7503C69.2007 56.8748 67.5642 55.6852 65.5627 55.6852C63.5601 55.6852 61.9246 56.9111 61.3675 58.7853L61.3674 58.7859L58.9928 66.9587C56.4819 67.1 52.1815 67.3461 49.7307 67.7657C49.4284 67.8083 49.2108 68.0614 49.2108 68.3575L49.2108 68.359C49.2108 68.3765 49.2108 68.4099 49.2167 68.4448C49.2208 68.4683 49.2287 68.5005 49.247 68.5313V68.5334V68.5686V68.5898L49.2556 68.6091L51.1785 72.9413L51.1783 72.9413L51.181 72.9465C51.2627 73.1048 51.4269 73.2695 51.6424 73.3143C51.6455 73.3152 51.6478 73.3159 51.649 73.3162L51.6494 73.3163C51.6549 73.3178 51.6613 73.3195 51.6683 73.3212C51.6825 73.3246 51.7018 73.329 51.7258 73.3342C51.7739 73.3446 51.8427 73.3586 51.9315 73.3758C52.1092 73.4102 52.3677 73.4572 52.7012 73.5126C53.3682 73.6235 54.3357 73.7679 55.5571 73.9112C57.9999 74.1977 61.4592 74.4798 65.5628 74.4798C69.7028 74.4798 74.4972 74.1977 79.5826 73.3161L79.5827 73.3161L79.5846 73.3158C79.795 73.275 79.9698 73.1498 80.0568 72.9396C80.0569 72.9393 80.057 72.9391 80.0571 72.9388L81.9065 68.6438L81.9066 68.6438L81.9079 68.6403ZM62.6102 59.128L62.6103 59.1281L62.6118 59.1229C63.0676 57.5236 64.5041 56.9416 65.5628 56.9416C66.6229 56.9416 68.0596 57.4897 68.5506 59.0891C68.5507 59.0893 68.5508 59.0895 68.5508 59.0897L68.5854 59.207L62.5831 59.2068L62.6102 59.128ZM59.7081 69.078L60.4136 66.6968H70.784L71.086 67.7395C71.0906 67.8289 71.1336 67.9121 71.1651 67.9728L71.5258 69.1825C67.2045 69.4839 63.1293 69.3503 59.7081 69.078ZM60.7631 65.4402L61.3205 63.5625H69.8776L70.4349 65.4402H60.7631ZM61.6685 62.3059L62.1921 60.4633H68.9349L69.4911 62.3059H61.6685ZM58.4141 68.9897C56.901 68.8498 55.5255 68.6883 54.3591 68.5227C55.8636 68.3956 57.3995 68.3121 58.611 68.2528L58.4141 68.9897ZM80.2678 69.2344L79.024 72.1065C65.5799 74.3586 54.2748 72.4823 52.2472 72.1075L50.9656 69.1937C53.4101 69.633 59.2483 70.5704 66.3973 70.5704C70.6986 70.5704 75.4968 70.2269 80.2678 69.2344Z" fill="white" stroke="white" stroke-width="0.2"/>
</svg>
