<svg xmlns="http://www.w3.org/2000/svg" width="48" height="48" viewBox="0 0 48 48">
    <g fill="none" fill-rule="evenodd">
        <rect width="48" height="48" fill="#A95FB8" rx="7.2"/>
        <path d="M9.6 9.6h28.8v28.8H9.6z"/>
        <path fill="#FFF" fill-rule="nonzero" d="M34.23 37.2h-1.65V12.6c0-.331-.256-.6-.57-.6H30.3v-1.8c0-.331-.256-.6-.57-.6h-11.4c-.315 0-.57.269-.57.6V12h-1.71c-.315 0-.57.269-.57.6v24.6h-1.71c-.315 0-.57.269-.57.6 0 .331.255.6.57.6h6.84c.314 0 .57-.269.57-.6v-3h5.7v3c0 .331.255.6.57.6h6.78c.315 0 .57-.269.57-.6 0-.331-.255-.6-.57-.6zm-13.05-5.4c0 .331-.256.6-.57.6h-2.28c-.315 0-.57-.269-.57-.6v-2.4c0-.331.255-.6.57-.6h2.28c.314 0 .57.269.57.6v2.4zm0-4.8c0 .331-.256.6-.57.6h-2.28c-.315 0-.57-.269-.57-.6v-2.4c0-.331.255-.6.57-.6h2.28c.314 0 .57.269.57.6V27zm0-4.8c0 .331-.256.6-.57.6h-2.28c-.315 0-.57-.269-.57-.6v-2.4c0-.331.255-.6.57-.6h2.28c.314 0 .57.269.57.6v2.4zm0-4.8c0 .331-.256.6-.57.6h-2.28c-.315 0-.57-.269-.57-.6V15c0-.331.255-.6.57-.6h2.28c.314 0 .57.269.57.6v2.4zm4.56 14.4c0 .331-.256.6-.57.6h-2.28c-.315 0-.57-.269-.57-.6v-2.4c0-.331.255-.6.57-.6h2.28c.314 0 .57.269.57.6v2.4zm0-4.8c0 .331-.256.6-.57.6h-2.28c-.315 0-.57-.269-.57-.6v-2.4c0-.331.255-.6.57-.6h2.28c.314 0 .57.269.57.6V27zm0-4.8c0 .331-.256.6-.57.6h-2.28c-.315 0-.57-.269-.57-.6v-2.4c0-.331.255-.6.57-.6h2.28c.314 0 .57.269.57.6v2.4zm0-4.8c0 .331-.256.6-.57.6h-2.28c-.315 0-.57-.269-.57-.6V15c0-.331.255-.6.57-.6h2.28c.314 0 .57.269.57.6v2.4zm4.56 14.4c0 .331-.256.6-.57.6h-2.28c-.315 0-.57-.269-.57-.6v-2.4c0-.331.255-.6.57-.6h2.28c.314 0 .57.269.57.6v2.4zm0-4.8c0 .331-.256.6-.57.6h-2.28c-.315 0-.57-.269-.57-.6v-2.4c0-.331.255-.6.57-.6h2.28c.314 0 .57.269.57.6V27zm0-4.8c0 .331-.256.6-.57.6h-2.28c-.315 0-.57-.269-.57-.6v-2.4c0-.331.255-.6.57-.6h2.28c.314 0 .57.269.57.6v2.4zm0-4.8c0 .331-.256.6-.57.6h-2.28c-.315 0-.57-.269-.57-.6V15c0-.331.255-.6.57-.6h2.28c.314 0 .57.269.57.6v2.4z"/>
    </g>
</svg>
