<svg width="59" height="59" viewBox="0 0 59 59" fill="none" xmlns="http://www.w3.org/2000/svg">
<path fill-rule="evenodd" clip-rule="evenodd" d="M59 5.9C59 4.33539 58.3794 2.83416 57.2726 1.72738C56.1658 0.620612 54.6645 0 53.1 0H5.9C4.33539 0 2.83416 0.620558 1.72739 1.72738C0.620613 2.83416 0 4.33552 0 5.9V53.1C0 54.6646 0.620559 56.1658 1.72739 57.2726C2.83416 58.3794 4.33552 59 5.9 59H53.1C54.6646 59 56.1658 58.3794 57.2726 57.2726C58.3794 56.1658 59 54.6645 59 53.1V5.9ZM56.64 5.9V53.1C56.64 54.0393 56.267 54.9385 55.6038 55.6038C54.9385 56.267 54.0392 56.6399 53.1001 56.6399H5.90005C4.9608 56.6399 4.06155 56.267 3.3963 55.6038C2.73307 54.9384 2.36011 54.0391 2.36011 53.1V5.9C2.36011 4.96075 2.73307 4.06149 3.3963 3.39624C4.06163 2.73301 4.96091 2.36005 5.90005 2.36005H53.1001C54.0393 2.36005 54.9386 2.73301 55.6038 3.39624C56.267 4.06157 56.64 4.96086 56.64 5.9Z" fill="white"/>
<path fill-rule="evenodd" clip-rule="evenodd" d="M59 5.9C59 4.33539 58.3794 2.83416 57.2726 1.72738C56.1658 0.620612 54.6645 0 53.1 0H5.9C4.33539 0 2.83416 0.620558 1.72739 1.72738C0.620613 2.83416 0 4.33552 0 5.9V12.98C0 13.6311 0.528896 14.16 1.18 14.16H57.82C58.4711 14.16 59 13.6311 59 12.98V5.9ZM56.64 5.9V11.8H2.36V5.9C2.36 4.96075 2.73296 4.06149 3.39619 3.39624C4.06152 2.73301 4.9608 2.36005 5.89995 2.36005H53.0999C54.0392 2.36005 54.9385 2.73301 55.6037 3.39624C56.2669 4.06157 56.64 4.96086 56.64 5.9Z" fill="white"/>
<path fill-rule="evenodd" clip-rule="evenodd" d="M8.26009 3.54004C6.30628 3.54004 4.72009 5.12623 4.72009 7.08004C4.72009 9.03385 6.30628 10.62 8.26009 10.62C10.2139 10.62 11.8001 9.03385 11.8001 7.08004C11.8001 5.12623 10.2139 3.54004 8.26009 3.54004ZM8.26009 5.90004C8.9112 5.90004 9.44009 6.42894 9.44009 7.08004C9.44009 7.73114 8.9112 8.26004 8.26009 8.26004C7.60899 8.26004 7.08009 7.73114 7.08009 7.08004C7.08009 6.42894 7.60899 5.90004 8.26009 5.90004Z" fill="white"/>
<path fill-rule="evenodd" clip-rule="evenodd" d="M16.52 3.54004C14.5662 3.54004 12.98 5.12623 12.98 7.08004C12.98 9.03385 14.5662 10.62 16.52 10.62C18.4738 10.62 20.06 9.03385 20.06 7.08004C20.06 5.12623 18.4738 3.54004 16.52 3.54004ZM16.52 5.90004C17.1711 5.90004 17.7 6.42894 17.7 7.08004C17.7 7.73114 17.1711 8.26004 16.52 8.26004C15.8689 8.26004 15.34 7.73114 15.34 7.08004C15.34 6.42894 15.8689 5.90004 16.52 5.90004Z" fill="white"/>
<path fill-rule="evenodd" clip-rule="evenodd" d="M24.78 3.54004C22.8262 3.54004 21.24 5.12623 21.24 7.08004C21.24 9.03385 22.8262 10.62 24.78 10.62C26.7338 10.62 28.32 9.03385 28.32 7.08004C28.32 5.12623 26.7338 3.54004 24.78 3.54004ZM24.78 5.90004C25.4311 5.90004 25.96 6.42894 25.96 7.08004C25.96 7.73114 25.4311 8.26004 24.78 8.26004C24.1289 8.26004 23.6 7.73114 23.6 7.08004C23.6 6.42894 24.1289 5.90004 24.78 5.90004Z" fill="white"/>
<path fill-rule="evenodd" clip-rule="evenodd" d="M35.4431 16.9474C34.7915 16.9474 34.2631 17.4757 34.2631 18.1274C34.2631 20.7565 32.1297 22.89 29.5005 22.89C26.8713 22.89 24.7379 20.7565 24.7379 18.1274C24.7379 17.4757 24.2095 16.9474 23.5579 16.9474H19.1023C18.8595 16.9474 18.6235 17.0227 18.4249 17.1623L11.123 22.2736C10.5899 22.6466 10.4598 23.3831 10.8328 23.9162L15.0949 30.0006C15.4679 30.5337 16.2044 30.6638 16.7375 30.2908L17.9222 29.4622V44.8656C17.9222 45.5172 18.4485 46.0456 19.1022 46.0456H39.8959C40.5475 46.0456 41.0759 45.5172 41.0759 44.8656V29.4595L42.2632 30.2902C42.7963 30.6632 43.5328 30.5331 43.9058 30L48.168 23.9156C48.5409 23.3825 48.4108 22.6461 47.8777 22.2731L40.5759 17.1617C40.3773 17.0221 40.1413 16.9468 39.8984 16.9468L35.4431 16.9474ZM36.5235 19.3074H39.5283L45.5579 23.5296L42.6505 27.6806L40.5734 26.2267C40.2126 25.9744 39.7427 25.9439 39.3513 26.1467C38.9615 26.3495 38.716 26.753 38.716 27.1923V43.6854H20.2824V27.1937C20.2824 26.7549 20.0369 26.3514 19.6455 26.148C19.2556 25.9431 18.7836 25.9758 18.4249 26.226L16.3504 27.6799L13.443 23.5288L19.4726 19.3066H22.4774C23.0389 22.6764 25.972 25.2492 29.5005 25.2492C33.0289 25.2492 35.962 22.6764 36.5235 19.3066L36.5235 19.3074Z" fill="white"/>
<path fill-rule="evenodd" clip-rule="evenodd" d="M27.1184 53.1H31.8594C32.5105 53.1 33.0394 52.5711 33.0394 51.92C33.0394 51.2689 32.5105 50.74 31.8594 50.74H27.1184C26.4667 50.74 25.9384 51.2689 25.9384 51.92C25.9384 52.5711 26.4667 53.1 27.1184 53.1Z" fill="white"/>
<path fill-rule="evenodd" clip-rule="evenodd" d="M36.5584 53.1H37.7595C38.4106 53.1 38.9395 52.5711 38.9395 51.92C38.9395 51.2689 38.4106 50.74 37.7595 50.74H36.5584C35.9068 50.74 35.3784 51.2689 35.3784 51.92C35.3784 52.5711 35.9068 53.1 36.5584 53.1Z" fill="white"/>
<path fill-rule="evenodd" clip-rule="evenodd" d="M21.2185 53.1H22.4195C23.0706 53.1 23.5995 52.5711 23.5995 51.92C23.5995 51.2689 23.0706 50.74 22.4195 50.74H21.2185C20.5668 50.74 20.0385 51.2689 20.0385 51.92C20.0385 52.5711 20.5668 53.1 21.2185 53.1Z" fill="white"/>
</svg>
