<svg width="69" height="69" viewBox="0 0 69 69" fill="none" xmlns="http://www.w3.org/2000/svg">
<circle cx="34.4239" cy="34.424" r="29.2861" fill="#FF2D55"/>
<path fill-rule="evenodd" clip-rule="evenodd" d="M43.3174 25.6474C44.1337 26.4625 44.1331 27.7835 43.316 28.5979L28.6642 43.2015C27.8471 44.0159 26.523 44.0152 25.7067 43.2001C24.8904 42.385 24.891 41.064 25.7081 40.2496L40.3599 25.646C41.177 24.8317 42.5011 24.8323 43.3174 25.6474Z" fill="#FCFCFC"/>
<path fill-rule="evenodd" clip-rule="evenodd" d="M43.3174 43.2006C42.5011 44.0158 41.177 44.0164 40.3599 43.202L25.7081 28.5984C24.8911 27.784 24.8904 26.4631 25.7067 25.6479C26.523 24.8328 27.8471 24.8322 28.6642 25.6466L43.316 40.2502C44.1331 41.0645 44.1337 42.3855 43.3174 43.2006Z" fill="#FCFCFC"/>
</svg>
