<svg width="18" height="18" viewBox="0 0 18 18" fill="none" xmlns="http://www.w3.org/2000/svg">
<path d="M6.75 1.50049H11.25C15 1.50049 16.5 3.00049 16.5 6.75049V11.2505C16.5 15.0005 15 16.5005 11.25 16.5005H6.75C3 16.5005 1.5 15.0005 1.5 11.2505V6.75049C1.5 3.00049 3 1.50049 6.75 1.50049Z" stroke="#A09BA8" stroke-width="1.5" stroke-linecap="round" stroke-linejoin="round"/>
<path d="M6.42773 11.4526L11.3327 6.54761" stroke="#A09BA8" stroke-width="1.5" stroke-linecap="round" stroke-linejoin="round"/>
<path d="M6.73501 7.77761C7.24449 7.77761 7.65749 7.36461 7.65749 6.85513C7.65749 6.34564 7.24449 5.93262 6.73501 5.93262C6.22553 5.93262 5.8125 6.34564 5.8125 6.85513C5.8125 7.36461 6.22553 7.77761 6.73501 7.77761Z" fill="#A09BA8"/>
<path d="M11.6403 12.0679C12.1497 12.0679 12.5628 11.6549 12.5628 11.1454C12.5628 10.6359 12.1497 10.2229 11.6403 10.2229C11.1308 10.2229 10.7178 10.6359 10.7178 11.1454C10.7178 11.6549 11.1308 12.0679 11.6403 12.0679Z" fill="#A09BA8"/>
</svg>
