<svg xmlns="http://www.w3.org/2000/svg" width="24" height="24" viewBox="0 0 24 24">
    <g fill="none" fill-rule="evenodd">
        <path d="M0 0H24V24H0z"/>
        <rect width="24" height="24" fill="#FF2D55" rx="4"/>
        <path fill="#16141A" fill-rule="nonzero" d="M9.5 13c1.586 0 2.925 1.054 3.355 2.5H20c.552 0 1 .448 1 1s-.448 1-1 1h-7.145c-.43 1.446-1.77 2.5-3.355 2.5s-2.924-1.054-3.355-2.5H4c-.552 0-1-.448-1-1s.448-1 1-1h2.145c.43-1.446 1.77-2.5 3.355-2.5zm0 1.5c-1.105 0-2 .895-2 2s.895 2 2 2 2-.895 2-2-.895-2-2-2zm5-10.5c1.586 0 2.925 1.054 3.355 2.5H20c.552 0 1 .448 1 1s-.448 1-1 1h-2.145c-.43 1.446-1.77 2.5-3.355 2.5s-2.924-1.054-3.355-2.5H4c-.552 0-1-.448-1-1s.448-1 1-1h7.145c.43-1.446 1.77-2.5 3.355-2.5zm0 1.5c-1.105 0-2 .895-2 2s.895 2 2 2 2-.895 2-2-.895-2-2-2z"/>
    </g>
</svg>
