<svg width="32" height="32" viewBox="0 0 32 32" fill="none" xmlns="http://www.w3.org/2000/svg">
<path fill-rule="evenodd" clip-rule="evenodd" d="M16 1.3335C7.89987 1.3335 1.33337 7.89999 1.33337 16.0002C1.33337 24.1003 7.89987 30.6668 16 30.6668C24.1002 30.6668 30.6667 24.1003 30.6667 16.0002C30.6667 7.89999 24.1002 1.3335 16 1.3335ZM23.2822 10.9531C24.0001 10.9531 24.7181 10.7452 25.3335 10.4335C24.8206 11.1609 24.2052 11.8883 23.5899 12.304V12.8236C23.5899 17.6038 20.0001 23.1114 13.436 23.1114C11.4873 23.1114 9.53858 22.4879 8.00012 21.4487H8.82063C10.4617 21.4487 12.0001 20.8252 13.2309 19.8899C11.5899 19.8899 10.2565 18.8508 9.84628 17.3959C10.154 17.4998 10.3591 17.4998 10.5642 17.4998C10.8719 17.4998 11.1796 17.4998 11.4873 17.3959C9.84628 17.0842 8.61551 15.6293 8.61551 13.8628C9.12833 14.0706 9.64115 14.2784 10.2565 14.2784C9.23089 13.6549 8.61551 12.5118 8.61551 11.2648C8.61551 10.5374 8.82063 9.91391 9.12833 9.39433C10.8719 11.5766 13.5386 13.0314 16.5129 13.1353C16.4104 12.8236 16.4104 12.6158 16.4104 12.304V12.304C16.4104 10.3296 18.0514 8.66691 20.0001 8.66691C21.0258 8.66691 21.9488 9.08258 22.5642 9.81C23.3847 9.70608 24.1027 9.39433 24.8206 8.97866C24.6155 9.81 24.0001 10.5374 23.2822 10.9531Z" fill="white"/>
</svg>
