<svg width="32" height="32" viewBox="0 0 32 32" fill="none" xmlns="http://www.w3.org/2000/svg">
<path fill-rule="evenodd" clip-rule="evenodd" d="M16 1.3335C7.89987 1.3335 1.33337 7.89999 1.33337 16.0002C1.33337 24.1003 7.89987 30.6668 16 30.6668C24.1002 30.6668 30.6667 24.1003 30.6667 16.0002C30.6667 7.89999 24.1002 1.3335 16 1.3335ZM18.0025 8.00024L20.1612 8.00357C20.3484 8.00391 20.5001 8.14989 20.5001 8.32982V10.7724C20.5001 10.9525 20.3482 11.0986 20.1609 11.0986L18.7067 11.0991C17.7041 11.0991 17.5207 11.4746 17.5207 12.2143V13.7534H20.0594C20.1494 13.7534 20.236 13.7878 20.2996 13.8491C20.3631 13.9103 20.399 13.9932 20.399 14.0798L20.3979 16.7103C20.3979 16.8905 20.2461 17.0365 20.0585 17.0365H17.5207V23.674C17.5207 23.8541 17.3689 24.0002 17.1813 24.0002H14.3495C14.1619 24.0002 14.01 23.8543 14.01 23.674V17.0365H11.8396C11.6522 17.0365 11.5001 16.8905 11.5001 16.7103V14.0798C11.5001 13.8995 11.652 13.7534 11.8396 13.7534H14.01V11.9379C14.01 9.54576 15.5773 8.00024 18.0025 8.00024Z" fill="white"/>
</svg>
