<svg width="256" height="256" viewBox="0 0 256 256" fill="none" xmlns="http://www.w3.org/2000/svg">
<path d="M25.5371 184.328C16.718 180.685 12.5221 170.582 16.1653 161.763L29.8558 128.622L16.1025 95.5076C12.4426 86.6954 16.6194 76.5848 25.4316 72.9248L58.5462 59.1716L72.2367 26.0312C75.8799 17.212 85.9827 13.0162 94.8018 16.6594L127.942 30.3498L161.057 16.5966C169.869 12.9367 179.98 17.1135 183.639 25.9257L197.393 59.0402L230.533 72.7308C239.352 76.374 243.548 86.4767 239.905 95.2958L226.215 128.436L239.968 161.551C243.628 170.363 239.451 180.474 230.639 184.134L197.524 197.887L183.834 231.027C180.19 239.846 170.088 244.042 161.269 240.399L128.128 226.709L95.0135 240.462C86.2013 244.122 76.0907 239.945 72.4307 231.133L58.6775 198.018L25.5371 184.328Z" fill="url(#paint0_linear_1048_15924)"/>
<path d="M39.4715 176.904C31.9127 173.782 28.3165 165.123 31.439 157.564L43.173 129.16L31.3852 100.777C28.2483 93.2245 31.8282 84.5587 39.3811 81.4219L67.7634 69.634L79.4974 41.2296C82.62 33.6708 91.279 30.0746 98.8377 33.1971L127.242 44.9312L155.624 33.1434C163.177 30.0065 171.843 33.5863 174.98 41.1392L186.768 69.5215L215.172 81.2555C222.731 84.3781 226.327 93.0371 223.205 100.596L211.471 129L223.258 157.383C226.395 164.935 222.815 173.601 215.262 176.738L186.88 188.526L175.146 216.93C172.024 224.489 163.365 228.085 155.806 224.963L127.401 213.229L99.0192 225.017C91.4664 228.153 82.8006 224.574 79.6637 217.021L67.8759 188.638L39.4715 176.904Z" fill="url(#paint1_linear_1048_15924)"/>
<path d="M54.4478 168.591C48.116 165.975 45.1036 158.722 47.7192 152.39L57.5484 128.596L47.6741 104.822C45.0465 98.4947 48.0452 91.2357 54.372 88.6081L78.147 78.7338L87.9762 54.9403C90.5919 48.6086 97.8452 45.5961 104.177 48.2118L127.97 58.041L151.745 48.1667C158.072 45.539 165.331 48.5378 167.959 54.8646L177.833 78.6395L201.627 88.4687C207.958 91.0844 210.971 98.3377 208.355 104.669L198.526 128.463L208.4 152.238C211.028 158.565 208.029 165.824 201.702 168.451L177.927 178.326L168.098 202.119C165.483 208.451 158.229 211.463 151.897 208.848L128.104 199.018L104.329 208.893C98.0022 211.52 90.7432 208.522 88.1155 202.195L78.2413 178.42L54.4478 168.591Z" fill="url(#paint2_linear_1048_15924)"/>
<path d="M62.1592 164.392C56.491 162.05 53.7942 155.557 56.1357 149.889L64.9349 128.589L56.0954 107.305C53.7431 101.641 56.4276 95.1432 62.0914 92.7908L83.3749 83.9513L92.1741 62.6512C94.5157 56.983 101.009 54.2862 106.677 56.6278L127.977 65.4269L149.261 56.5874C154.925 54.2351 161.423 56.9196 163.775 62.5834L172.615 83.8669L193.915 92.6661C199.583 95.0077 202.28 101.501 199.938 107.169L191.139 128.469L199.979 149.753C202.331 155.417 199.646 161.915 193.983 164.267L172.699 173.107L163.9 194.407C161.558 200.075 155.065 202.772 149.397 200.43L128.097 191.631L106.813 200.471C101.149 202.823 94.6511 200.138 92.2988 194.475L83.4593 173.191L62.1592 164.392Z" fill="url(#paint3_linear_1048_15924)"/>
<path d="M62.1592 164.392C56.491 162.05 53.7942 155.557 56.1357 149.889L64.9349 128.589L56.0954 107.305C53.7431 101.641 56.4276 95.1432 62.0914 92.7908L83.3749 83.9513L92.1741 62.6512C94.5157 56.983 101.009 54.2862 106.677 56.6278L127.977 65.4269L149.261 56.5874C154.925 54.2351 161.423 56.9196 163.775 62.5834L172.615 83.8669L193.915 92.6661C199.583 95.0077 202.28 101.501 199.938 107.169L191.139 128.469L199.979 149.753C202.331 155.417 199.646 161.915 193.983 164.267L172.699 173.107L163.9 194.407C161.558 200.075 155.065 202.772 149.397 200.43L128.097 191.631L106.813 200.471C101.149 202.823 94.6511 200.138 92.2988 194.475L83.4593 173.191L62.1592 164.392Z" fill="url(#paint4_linear_1048_15924)"/>
<ellipse cx="71.8039" cy="43.6779" rx="4.2556" ry="4.37564" transform="rotate(29.3032 71.8039 43.6779)" fill="white"/>
<ellipse cx="79.7278" cy="28.2715" rx="4.80667" ry="9.80885" transform="rotate(29.3032 79.7278 28.2715)" fill="white"/>
<path opacity="0.8" fill-rule="evenodd" clip-rule="evenodd" d="M151.392 93.1941L151.381 92.0695C151.252 79.4163 140.711 69.2321 127.796 69.3636C114.88 69.4951 104.549 79.8919 104.678 92.545L104.689 93.6697L96.1087 93.757C93.0489 93.7882 90.5044 96.0762 90.2087 99.0624L83.3993 167.822C83.0553 171.295 85.8595 174.293 89.4189 174.257L168.873 173.448C172.441 173.411 175.187 170.342 174.757 166.868L166.271 98.265C165.904 95.2956 163.318 93.0727 160.267 93.1037L151.392 93.1941ZM138.208 92.2036C138.152 86.6465 133.53 82.2212 127.927 82.2783C122.324 82.3353 117.794 86.8538 117.85 92.4109L117.862 93.5355L138.22 93.3282L138.208 92.2036ZM151.506 104.348L151.578 111.392C151.614 114.958 148.694 117.879 145.057 117.917C141.419 117.954 138.441 115.093 138.405 111.526L138.333 104.482L117.975 104.689L118.047 111.734C118.083 115.3 115.164 118.221 111.527 118.258C107.889 118.295 104.911 115.434 104.875 111.868L104.803 104.823L101.064 104.861L95.3026 163.042L162.738 162.356L155.557 104.306L151.506 104.348Z" fill="url(#paint5_linear_1048_15924)"/>
<defs>
<linearGradient id="paint0_linear_1048_15924" x1="211.108" y1="218.484" x2="77.4791" y2="27.1647" gradientUnits="userSpaceOnUse">
<stop stop-color="#9BFFFF"/>
<stop offset="0.5" stop-color="#B8B9FF"/>
<stop offset="0.885" stop-color="#FFCBFF"/>
<stop offset="1" stop-color="#FDFCFF"/>
</linearGradient>
<linearGradient id="paint1_linear_1048_15924" x1="225.88" y1="218.975" x2="71.9492" y2="33.3822" gradientUnits="userSpaceOnUse">
<stop stop-color="#5285BF"/>
<stop offset="1" stop-color="#AE66F0"/>
</linearGradient>
<linearGradient id="paint2_linear_1048_15924" x1="195.385" y1="221.054" x2="91.1662" y2="16.6319" gradientUnits="userSpaceOnUse">
<stop stop-color="#9BFFFF"/>
<stop offset="0.5" stop-color="#B8B9FF"/>
<stop offset="1" stop-color="#FFCBFF"/>
</linearGradient>
<linearGradient id="paint3_linear_1048_15924" x1="103.148" y1="42.8184" x2="132.876" y2="134.167" gradientUnits="userSpaceOnUse">
<stop stop-color="white"/>
<stop offset="1" stop-color="white" stop-opacity="0"/>
</linearGradient>
<linearGradient id="paint4_linear_1048_15924" x1="109.14" y1="55.9116" x2="124.459" y2="109.497" gradientUnits="userSpaceOnUse">
<stop stop-color="white"/>
<stop offset="1" stop-color="white" stop-opacity="0"/>
</linearGradient>
<linearGradient id="paint5_linear_1048_15924" x1="129.146" y1="173.852" x2="128.082" y2="69.3607" gradientUnits="userSpaceOnUse">
<stop stop-color="#6141A6"/>
<stop offset="1" stop-color="#6C84FF"/>
</linearGradient>
</defs>
</svg>
