<svg width="32" height="32" viewBox="0 0 32 32" fill="none" xmlns="http://www.w3.org/2000/svg">
<path fill-rule="evenodd" clip-rule="evenodd" d="M16 1.3335C7.89987 1.3335 1.33337 7.89999 1.33337 16.0002C1.33337 24.1003 7.89987 30.6668 16 30.6668C24.1002 30.6668 30.6667 24.1003 30.6667 16.0002C30.6667 7.89999 24.1002 1.3335 16 1.3335ZM23.0696 8.93076C19.162 5.02309 12.8376 5.02372 8.93064 8.93076C5.02301 12.8384 5.02356 19.1627 8.93064 23.0697C12.8382 26.9774 19.1626 26.9768 23.0696 23.0697C26.9773 19.1621 26.9767 12.8378 23.0696 8.93076ZM10.842 20.5386C10.3153 20.8572 9.81563 21.2269 9.34851 21.6446C8.1448 20.2307 7.43241 18.4914 7.29951 16.6374H10.2389C10.2876 18.0129 10.4939 19.3361 10.842 20.5386ZM21.7614 16.6374H24.7008C24.5678 18.4914 23.8555 20.2307 22.6518 21.6446C22.1846 21.2269 21.685 20.8572 21.1583 20.5386C21.5064 19.3361 21.7126 18.0129 21.7614 16.6374ZM21.1583 11.4619C21.6849 11.1433 22.1846 10.7736 22.6517 10.3559C23.8555 11.7699 24.5678 13.5091 24.7008 15.3631H21.7614C21.7126 13.9876 21.5064 12.6644 21.1583 11.4619ZM19.607 10.8411C18.6782 11.2633 17.6763 11.5192 16.6372 11.5936V7.36829C18.071 7.78174 19.0668 9.45011 19.607 10.8411ZM16.6372 15.3632V12.8702C17.8128 12.7969 18.9479 12.5214 20.0035 12.0599C20.2776 13.0823 20.4425 14.1996 20.4866 15.3632H16.6372ZM16.6372 19.1304V16.6374H20.4866C20.4425 17.801 20.2776 18.9183 20.0035 19.9406C18.9479 19.4792 17.8128 19.2036 16.6372 19.1304ZM16.6372 24.6322V20.407C17.6763 20.4813 18.6782 20.7372 19.607 21.1594C19.0667 22.5506 18.0709 24.2188 16.6372 24.6322ZM12.3933 21.1594C13.3221 20.7372 14.3239 20.4813 15.363 20.407V24.6322C13.9293 24.2188 12.9335 22.5505 12.3933 21.1594ZM15.363 16.6374V19.1304C14.1875 19.2036 13.0523 19.4792 11.9968 19.9406C11.7226 18.9183 11.5577 17.801 11.5136 16.6374H15.363ZM15.363 12.8702V15.3632H11.5136C11.5577 14.1996 11.7226 13.0823 11.9968 12.0599C13.0523 12.5214 14.1875 12.7969 15.363 12.8702ZM15.363 7.36833V11.5936C14.3239 11.5192 13.3221 11.2633 12.3933 10.8412C12.9334 9.45014 13.9293 7.78178 15.363 7.36833ZM10.2428 9.44663C10.9249 8.84579 11.6857 8.36154 12.5013 8.00441C11.9912 8.67363 11.5854 9.43801 11.2678 10.2246C10.91 9.99244 10.5675 9.73288 10.2428 9.44663ZM21.7575 9.44663C21.4328 9.73288 21.0902 9.99244 20.7325 10.2246C20.4148 9.43808 20.009 8.67371 19.499 8.00441C20.3145 8.36154 21.0754 8.84579 21.7575 9.44663ZM19.4989 23.9961C20.009 23.3269 20.4148 22.5625 20.7325 21.776C21.0902 22.0081 21.4328 22.2677 21.7574 22.5539C21.0754 23.1547 20.3145 23.639 19.4989 23.9961ZM10.2428 22.5539C10.5675 22.2677 10.91 22.0081 11.2678 21.776C11.5854 22.5625 11.9913 23.327 12.5013 23.9961C11.6857 23.639 10.9249 23.1547 10.2428 22.5539ZM10.8419 11.4619C10.4938 12.6644 10.2876 13.9877 10.2388 15.3632H7.29947C7.43241 13.5091 8.14476 11.7699 9.34847 10.356C9.81563 10.7737 10.3153 11.1433 10.8419 11.4619Z" fill="white"/>
</svg>
