<svg width="32" height="32" viewBox="0 0 32 32" fill="none" xmlns="http://www.w3.org/2000/svg">
<path fill-rule="evenodd" clip-rule="evenodd" d="M16 1.3335C7.89987 1.3335 1.33337 7.89999 1.33337 16.0002C1.33337 24.1003 7.89987 30.6668 16 30.6668C24.1002 30.6668 30.6667 24.1003 30.6667 16.0002C30.6667 7.89999 24.1002 1.3335 16 1.3335ZM8.97013 10.9972C11.1295 9.39269 13.1764 9.33459 13.4239 9.3336C13.4403 9.33353 13.4488 9.33372 13.4488 9.33372L13.6088 9.52564C10.7296 10.3414 9.41797 11.6051 9.41797 11.6051C9.41797 11.6051 9.76991 11.4131 10.3617 11.1572C12.0732 10.4054 13.4328 10.2135 13.9927 10.1495L14.0284 10.1435C14.1091 10.1297 14.1807 10.1175 14.2646 10.1175C15.2403 9.98956 16.344 9.95753 17.4957 10.0855C19.0153 10.2614 20.6468 10.7093 22.3103 11.6051C22.3103 11.6051 21.0467 10.4054 18.3275 9.58964L18.5514 9.33372C18.5514 9.33372 20.7428 9.28572 23.0301 10.9972C23.0301 10.9972 25.3335 15.1401 25.3335 20.2426C25.3335 20.2418 25.3297 20.2474 25.3222 20.2587C25.1861 20.4629 23.8039 22.5358 20.4549 22.6419C20.4549 22.6419 19.879 21.9542 19.3992 21.3623C21.4946 20.7705 22.2943 19.4749 22.2943 19.4749C21.6385 19.9067 21.0147 20.2106 20.4549 20.4186C19.6551 20.7545 18.8873 20.9624 18.1355 21.1063C16.5999 21.3943 15.1923 21.3143 13.9927 21.0904C13.0809 20.9144 12.2971 20.6745 11.6413 20.4026C11.2734 20.2586 10.8736 20.0826 10.4737 19.8587C10.4497 19.8427 10.4257 19.8307 10.4017 19.8187L10.4017 19.8187L10.4016 19.8187C10.3777 19.8067 10.3537 19.7947 10.3297 19.7787C10.3175 19.7726 10.3076 19.7665 10.2992 19.7613C10.2855 19.7529 10.2757 19.7468 10.2658 19.7468C9.97786 19.5868 9.81787 19.4749 9.81787 19.4749C9.81787 19.4749 10.5856 20.7385 12.6171 21.3463C12.1372 21.9541 11.5454 22.6579 11.5454 22.6579C8.01038 22.5459 6.66679 20.2426 6.66679 20.2426C6.66679 15.1401 8.97013 10.9972 8.97013 10.9972ZM14.6485 16.9955C14.6645 16.0198 13.9287 15.236 13.017 15.236C12.1053 15.236 11.3855 16.0198 11.3855 16.9955C11.3855 17.9712 12.1213 18.755 13.017 18.755C13.9287 18.755 14.6485 17.9712 14.6485 16.9955ZM18.8552 15.236C19.751 15.236 20.4868 16.0198 20.4868 16.9955C20.4868 17.9712 19.767 18.755 18.8552 18.755C17.9595 18.755 17.2237 17.9712 17.2237 16.9955C17.2237 16.0198 17.9435 15.236 18.8552 15.236Z" fill="white"/>
</svg>
