<svg width="20" height="21.66" viewBox="0 0 12 13" fill="none" xmlns="http://www.w3.org/2000/svg">
<path d="M5.5 3.66211H6.5V4.66211H5.5V3.66211ZM5.5 5.66211H6.5V8.66211H5.5V5.66211ZM6 1.16211C3.24 1.16211 1 3.40211 1 6.16211C1 8.92211 3.24 11.1621 6 11.1621C8.76 11.1621 11 8.92211 11 6.16211C11 3.40211 8.76 1.16211 6 1.16211ZM6 10.1621C3.795 10.1621 2 8.36711 2 6.16211C2 3.95711 3.795 2.16211 6 2.16211C8.205 2.16211 10 3.95711 10 6.16211C10 8.36711 8.205 10.1621 6 10.1621Z" fill="white"/>
</svg>
