<svg width="14" height="14" viewBox="0 0 14 14" fill="none" xmlns="http://www.w3.org/2000/svg">
<path fill-rule="evenodd" clip-rule="evenodd" d="M7.00001 13.6667C10.6819 13.6667 13.6667 10.6819 13.6667 7.00001C13.6667 3.31811 10.6819 0.333344 7.00001 0.333344C3.31811 0.333344 0.333344 3.31811 0.333344 7.00001C0.333344 10.6819 3.31811 13.6667 7.00001 13.6667ZM7.00001 13C10.3137 13 13 10.3137 13 7.00001C13 3.6863 10.3137 1.00001 7.00001 1.00001C3.6863 1.00001 1.00001 3.6863 1.00001 7.00001C1.00001 10.3137 3.6863 13 7.00001 13ZM8.31185 4.52607C8.11262 4.71119 7.87277 4.80374 7.59227 4.80374C7.31234 4.80374 7.07079 4.71119 6.86987 4.52607C6.67008 4.34096 6.56906 4.11577 6.56906 3.85277C6.56906 3.59034 6.67065 3.36459 6.86987 3.17778C7.07079 2.99041 7.31234 2.89729 7.59227 2.89729C7.87277 2.89729 8.11319 2.99041 8.31185 3.17778C8.51107 3.36459 8.61097 3.59034 8.61097 3.85277C8.61097 4.11634 8.51107 4.34096 8.31185 4.52607ZM8.38747 10.6654C8.04433 10.8008 7.77118 10.9035 7.56631 10.9746C7.362 11.0458 7.1244 11.0813 6.85407 11.0813C6.43869 11.0813 6.1153 10.9797 5.88504 10.7771C5.65477 10.5745 5.54021 10.3177 5.54021 10.0056C5.54021 9.88428 5.54867 9.76012 5.5656 9.6337C5.5831 9.50728 5.61075 9.36506 5.64857 9.20534L6.07805 7.6883C6.11587 7.54269 6.1486 7.40442 6.17456 7.27574C6.20052 7.14594 6.21294 7.02685 6.21294 6.91849C6.21294 6.72548 6.17287 6.59003 6.09329 6.51384C6.01259 6.43765 5.86077 6.4004 5.63446 6.4004C5.52384 6.4004 5.40983 6.41677 5.29301 6.45119C5.17731 6.48675 5.07685 6.51892 4.99446 6.55052L5.10789 6.08322C5.38895 5.96865 5.65816 5.87045 5.91495 5.78918C6.17174 5.70678 6.41442 5.66615 6.64299 5.66615C7.05555 5.66615 7.37386 5.76661 7.59791 5.96527C7.82084 6.16449 7.93315 6.42354 7.93315 6.74184C7.93315 6.80788 7.92525 6.92414 7.91001 7.09006C7.89477 7.25655 7.86599 7.40837 7.82423 7.54777L7.397 9.06029C7.362 9.18163 7.33096 9.32047 7.30274 9.47567C7.27509 9.63087 7.26155 9.74939 7.26155 9.82897C7.26155 10.0299 7.30613 10.167 7.39643 10.2398C7.4856 10.3126 7.64193 10.3493 7.86317 10.3493C7.96758 10.3493 8.0844 10.3307 8.21647 10.2946C8.3474 10.2585 8.44222 10.2263 8.50204 10.1986L8.38747 10.6654Z" fill="#736E7D"/>
</svg>
