<svg xmlns="http://www.w3.org/2000/svg" width="20" height="20" viewBox="0 0 20 20">
    <g fill="none" fill-rule="evenodd">
        <path d="M0 0H24V24H0z" transform="translate(-2 -2)"/>
        <path fill="#FFF" fill-rule="nonzero" d="M11.977 2C6.75 2 2.461 5.995 2 11.09h9.405V8.365c0-.368.222-.7.562-.84.34-.141.733-.063.993.197l3.645 3.636c.356.356.356.93 0 1.286l-3.645 3.636c-.26.26-.652.338-.993.197-.34-.14-.562-.472-.562-.84V12.91H2C2.461 18.005 6.749 22 11.977 22 17.513 22 22 17.523 22 12S17.513 2 11.977 2z" transform="translate(-2 -2)"/>
    </g>
</svg>
