<svg width="37" height="37" viewBox="0 0 37 37" fill="none" xmlns="http://www.w3.org/2000/svg">
<path fill-rule="evenodd" clip-rule="evenodd" d="M30.4284 4.67654C30.4284 3.96676 30.1504 3.28572 29.6546 2.78363C29.1588 2.28154 28.4863 2 27.7855 2H6.64284C5.94199 2 5.26953 2.28152 4.77376 2.78363C4.278 3.28572 4 3.96682 4 4.67654V26.0889C4 26.7987 4.27797 27.4797 4.77376 27.9818C5.26953 28.4839 5.94205 28.7654 6.64284 28.7654H27.7855C28.4864 28.7654 29.1588 28.4839 29.6546 27.9818C30.1504 27.4797 30.4284 26.7986 30.4284 26.0889V4.67654ZM29.3712 4.67654V26.0889C29.3712 26.515 29.2042 26.9229 28.9071 27.2247C28.6091 27.5256 28.2062 27.6948 27.7856 27.6948H6.64286C6.22213 27.6948 5.81932 27.5256 5.52133 27.2247C5.22425 26.9229 5.05718 26.5149 5.05718 26.0889V4.67654C5.05718 4.25045 5.22425 3.8425 5.52133 3.54071C5.81936 3.23984 6.22218 3.07064 6.64286 3.07064H27.7856C28.2063 3.07064 28.6091 3.23984 28.9071 3.54071C29.2042 3.84254 29.3712 4.2505 29.3712 4.67654Z" fill="white"/>
<path fill-rule="evenodd" clip-rule="evenodd" d="M30.4284 4.67654C30.4284 3.96676 30.1504 3.28572 29.6546 2.78363C29.1588 2.28154 28.4863 2 27.7855 2H6.64284C5.94199 2 5.26953 2.28152 4.77376 2.78363C4.278 3.28572 4 3.96682 4 4.67654V7.8884C4 8.18377 4.23691 8.42371 4.52857 8.42371H29.8998C30.1915 8.42371 30.4284 8.18377 30.4284 7.8884V4.67654ZM29.3712 4.67654V7.35309H5.05714V4.67654C5.05714 4.25045 5.2242 3.8425 5.52128 3.54071C5.81931 3.23984 6.22213 3.07064 6.64281 3.07064H27.7855C28.2062 3.07064 28.6091 3.23984 28.907 3.54071C29.2041 3.84254 29.3712 4.2505 29.3712 4.67654Z" fill="white"/>
<path fill-rule="evenodd" clip-rule="evenodd" d="M19.8764 9.68825C19.5845 9.68825 19.3478 9.92795 19.3478 10.2236C19.3478 11.4163 18.3921 12.3841 17.2144 12.3841C16.0367 12.3841 15.0811 11.4163 15.0811 10.2236C15.0811 9.92795 14.8444 9.68825 14.5525 9.68825H12.5567C12.4479 9.68825 12.3422 9.72242 12.2532 9.78576L8.98247 12.1045C8.74367 12.2737 8.68539 12.6078 8.85246 12.8497L10.7616 15.6099C10.9287 15.8517 11.2586 15.9107 11.4974 15.7415L12.0281 15.3656V22.3534C12.0281 22.649 12.2638 22.8887 12.5567 22.8887H21.8709C22.1628 22.8887 22.3995 22.649 22.3995 22.3534V15.3644L22.9314 15.7413C23.1702 15.9105 23.5001 15.8514 23.6671 15.6096L25.5763 12.8494C25.7434 12.6076 25.6851 12.2735 25.4463 12.1043L22.1755 9.78549C22.0866 9.72216 21.9809 9.68799 21.8721 9.68799L19.8764 9.68825ZM20.3603 10.7589H21.7063L24.4072 12.6743L23.1048 14.5574L22.1744 13.8979C22.0128 13.7834 21.8023 13.7695 21.627 13.8615C21.4524 13.9535 21.3424 14.1366 21.3424 14.3359V21.818H13.0853V14.3365C13.0853 14.1374 12.9753 13.9544 12.8 13.8621C12.6254 13.7692 12.414 13.784 12.2533 13.8975L11.324 14.5571L10.0217 12.674L12.7226 10.7585H14.0685C14.3201 12.2872 15.6339 13.4544 17.2144 13.4544C18.7949 13.4544 20.1088 12.2872 20.3603 10.7585L20.3603 10.7589Z" fill="white"/>
<path fill-rule="evenodd" clip-rule="evenodd" d="M16.1474 26.0889H18.2711C18.5627 26.0889 18.7996 25.849 18.7996 25.5536C18.7996 25.2582 18.5627 25.0183 18.2711 25.0183H16.1474C15.8555 25.0183 15.6188 25.2582 15.6188 25.5536C15.6188 25.849 15.8555 26.0889 16.1474 26.0889Z" fill="white"/>
<path fill-rule="evenodd" clip-rule="evenodd" d="M20.3759 26.0889H20.9139C21.2056 26.0889 21.4425 25.849 21.4425 25.5536C21.4425 25.2582 21.2056 25.0183 20.9139 25.0183H20.3759C20.084 25.0183 19.8474 25.2582 19.8474 25.5536C19.8474 25.849 20.084 26.0889 20.3759 26.0889Z" fill="white"/>
<path fill-rule="evenodd" clip-rule="evenodd" d="M13.5046 26.0889H14.0426C14.3342 26.0889 14.5711 25.849 14.5711 25.5536C14.5711 25.2582 14.3342 25.0183 14.0426 25.0183H13.5046C13.2127 25.0183 12.976 25.2582 12.976 25.5536C12.976 25.849 13.2127 26.0889 13.5046 26.0889Z" fill="white"/>
<mask id="mask0_475_14953" style="mask-type:luminance" maskUnits="userSpaceOnUse" x="24" y="22" width="10" height="14">
<path fill-rule="evenodd" clip-rule="evenodd" d="M24.7143 35.9993C24.5929 35.9993 24.4715 35.9682 24.3622 35.9053C24.1386 35.7772 24.0001 35.5363 24.0001 35.2759V24.6667C24.0001 23.7357 24.7051 22.9783 25.5715 22.9783H32.4286C33.295 22.9783 34 23.7357 34 24.6667V35.2759C34 35.5334 33.865 35.7714 33.6457 35.9009C33.4257 36.0311 33.1557 36.0333 32.9343 35.906L28.8829 33.5853L25.0815 35.8966C24.9686 35.9646 24.8415 35.9993 24.7143 35.9993Z" fill="white"/>
</mask>
<g mask="url(#mask0_475_14953)">
<rect x="20.4285" y="20.8081" width="17.1427" height="17.3614" fill="white"/>
</g>
</svg>
