<svg width="32" height="32" viewBox="0 0 32 32" fill="none" xmlns="http://www.w3.org/2000/svg">
<rect width="32" height="32" rx="5" fill="#FF2D55"/>
<path d="M22.3333 8H18.1047C17.3033 8 16.5493 8.312 15.9827 8.87866L8.56866 16.2933C8.20734 16.6547 8 17.1547 8 17.668C8 18.1787 8.20734 18.6787 8.56866 19.04L12.9607 23.432C13.3213 23.7927 13.8213 24 14.3347 24C14.8453 24 15.3453 23.7927 15.7067 23.4313L23.1213 16.0167C23.688 15.4507 24 14.6967 24 13.8953V9.66666C24 8.74734 23.2527 8 22.3333 8ZM20.3333 13.3333C19.414 13.3333 18.6667 12.586 18.6667 11.6667C18.6667 10.7473 19.414 10 20.3333 10C21.2527 10 22 10.7473 22 11.6667C22 12.586 21.2527 13.3333 20.3333 13.3333Z" fill="white"/>
</svg>
