<?xml version="1.0" encoding="UTF-8"?>
<svg width="504px" height="504px" viewBox="0 0 504 504" version="1.1" xmlns="http://www.w3.org/2000/svg" xmlns:xlink="http://www.w3.org/1999/xlink">
    <!-- Generator: Sketch 62 (91390) - https://sketch.com -->
    <title>logo dark copy 2</title>
    <desc>Created with Sketch.</desc>
    <g id="desktop" stroke="none" stroke-width="1" fill="none" fill-rule="evenodd" opacity="0.119999997">
        <path d="M389.718,463.05 C350.154,488.88 302.778,504 252,504 C201.222,504 153.846,488.88 114.282,463.05 L114.282,463.05 Z M252,0 C391.23,0 504,112.77 504,252 C504,328.986 469.476,397.908 415.044,444.15 L415.044,444.15 L88.956,444.15 C74.718,431.928 61.74,418.194 50.4,403.2 L50.4,403.2 L338.184,403.2 L338.184,294.084 L429.03,403.2 L453.6,403.2 L338.058,264.6 L306.18,302.904 L178.542,149.688 L17.136,343.35 C6.048,315 0,284.256 0,252 C0,112.77 112.77,0 252,0 Z M178.542,179.172 L293.958,317.646 L238.392,384.3 L37.548,384.3 C29.61,371.322 22.68,357.714 17.136,343.35 L17.136,343.35 L178.542,343.35 L178.542,179.172 Z M338.058,100.8 C303.282,100.8 275.058,129.024 275.058,163.8 C275.058,198.576 303.282,226.8 338.058,226.8 C372.834,226.8 401.058,198.576 401.058,163.8 C401.058,129.024 372.834,100.8 338.058,100.8 Z M178.542,55.188 C161.154,55.188 147.042,69.3 147.042,86.688 C147.042,104.076 161.154,118.188 178.542,118.188 C195.93,118.188 210.042,104.076 210.042,86.688 C210.042,69.3 195.93,55.188 178.542,55.188 Z" id="logo-dark-copy-2" fill="#736E7D" fill-rule="nonzero"></path>
    </g>
</svg>