<svg xmlns="http://www.w3.org/2000/svg" width="54" height="54" viewBox="0 0 54 54" fill="none">
  <path d="M27.0988 54C31.4988 54 35.6988 53 39.3988 51.1H14.7988C18.4988 53 22.5988 54 27.0988 54Z" fill="#FCFCFC"/>
  <path d="M10.1988 48.2H43.6988C44.7988 47.3 45.9988 46.2 46.6988 45.4H7.19879C8.19879 46.4 9.19879 47.4 10.1988 48.2Z" fill="#FCFCFC"/>
  <path d="M28.7988 39.1H2.79879C3.39879 40.3 4.09879 41.4 4.79879 42.5H25.8988L28.7988 39.1Z" fill="#FCFCFC"/>
  <path d="M27.0988 0C12.2988 0 0.198792 12 0.198792 26.9C0.198792 30.2 0.798791 33.4 1.89879 36.3L12.2988 23.8L18.2988 16.5L32.8988 34.1L37.0988 29L48.0988 42.2H48.9988C52.0988 37.8 53.7988 32.5 53.7988 26.8C53.9988 12 41.8988 0 27.0988 0ZM18.1988 14.1C16.0988 14.1 14.4988 12.4 14.4988 10.4C14.4988 8.4 16.1988 6.7 18.1988 6.7C20.2988 6.7 21.8988 8.4 21.8988 10.4C21.8988 12.4 20.2988 14.1 18.1988 14.1ZM37.6988 26.2C33.5988 26.2 30.2988 22.9 30.2988 18.8C30.2988 14.7 33.5988 11.4 37.6988 11.4C41.7988 11.4 45.0988 14.7 45.0988 18.8C45.1988 22.9 41.7988 26.2 37.6988 26.2Z" fill="#FCFCFC"/>
  <path d="M18.9988 21.5V36.4H31.2988L18.9988 21.5Z" fill="#FCFCFC"/>
  <path d="M37.9988 42.7H44.9988L37.9988 34.2V42.7Z" fill="#FCFCFC"/>
</svg>