<svg width="86" height="86" viewBox="0 0 86 86" fill="none" xmlns="http://www.w3.org/2000/svg">
<path d="M76.2017 83.675C73.5429 83.5486 71.0816 82.2358 69.4987 80.0993C64.0521 74.6406 51.4897 62.0501 46.6223 57.1955C41.2605 60.1558 35.085 61.3078 29.0149 60.48C22.9445 59.6522 17.3038 56.8892 12.9332 52.6017C-7.20388 32.7319 12.3499 -1.54586 39.673 5.61649C56.8656 8.91551 66.5482 31.823 57.2448 46.5814L81.5295 70.8321C82.9143 72.2533 83.6846 74.1612 83.6754 76.1441C83.6667 78.1273 82.8784 80.0272 81.4801 81.4357C80.0824 82.8442 78.1872 83.6483 76.2017 83.675ZM49.5422 55.3315C55.4465 61.2242 67.3311 73.1461 73.2647 79.0877C74.319 80.1093 75.8363 80.4997 77.2537 80.1122C78.6717 79.7247 79.7784 78.6184 80.1652 77.203C80.5521 75.7869 80.1611 74.273 79.137 73.2201L55.3609 49.4802C53.7407 51.724 51.778 53.698 49.5422 55.3315ZM32.5087 8.09532C11.2682 7.87953 -0.350647 35.1914 15.3459 50.2334C25.5832 61.2946 46.0697 59.0195 53.6808 45.8936L53.6831 45.8896L53.6872 45.8844C64.2457 30.1533 51.5078 7.35874 32.5087 8.09532ZM32.6406 53.6935C17.008 54.0955 6.27546 35.7008 14.578 22.4156C22.6834 7.2637 46.0588 8.65578 52.1754 24.9831C54.8202 31.4436 54.0488 38.798 50.1202 44.5708C46.1921 50.3439 39.6296 53.7701 32.6406 53.6935ZM32.4983 15.1433C27.8522 15.2216 23.425 17.1266 20.1778 20.446C16.9305 23.7653 15.1262 28.2303 15.1558 32.8704C15.186 37.5106 17.0484 41.9512 20.3381 45.2282C27.5384 53.1013 42.4203 51.462 47.6535 42.1787C55.3273 31.042 45.9595 14.4765 32.4983 15.1433Z" fill="white"/>
<path fill-rule="evenodd" clip-rule="evenodd" d="M38.8323 26.248C37.9235 25.3392 36.4546 25.3392 35.5457 26.248L32.5404 29.2533L29.535 26.248C28.6262 25.3392 27.1573 25.3392 26.2484 26.248C25.3396 27.1568 25.3396 28.6257 26.2484 29.5346L29.2538 32.5399L26.2484 35.5453C25.3396 36.4541 25.3396 37.923 26.2484 38.8319C26.7017 39.2851 27.2967 39.5129 27.8917 39.5129C28.4868 39.5129 29.0818 39.2851 29.535 38.8319L32.5404 35.8265L35.5457 38.8319C35.999 39.2851 36.594 39.5129 37.189 39.5129C37.7841 39.5129 38.3791 39.2851 38.8323 38.8319C39.7412 37.923 39.7412 36.4541 38.8323 35.5453L35.827 32.5399L38.8323 29.5346C39.7412 28.6257 39.7412 27.1568 38.8323 26.248ZM32.5404 51.1345C22.2878 51.1345 13.9458 42.7925 13.9458 32.5399C13.9458 22.2873 22.2878 13.9453 32.5404 13.9453C42.793 13.9453 51.135 22.2873 51.135 32.5399C51.135 42.7925 42.793 51.1345 32.5404 51.1345Z" fill="white"/>
</svg>
