<svg xmlns="http://www.w3.org/2000/svg" width="48" height="48" viewBox="0 0 48 48">
    <g fill="none" fill-rule="evenodd">
        <rect width="48" height="48" fill="#60B180" rx="7.2"/>
        <path d="M9.6 9.6h28.444v28.444H9.6z"/>
        <path fill="#FFF" fill-rule="nonzero" d="M37.211 23.248h-5.457l-.805-3.566h2.587c.46 0 .833-.373.833-.833v-3.082a.833.833 0 0 0-.833-.834H14.109a.833.833 0 0 0-.834.834v3.082c0 .46.374.833.834.833h2.586l-.805 3.566h-5.457a.833.833 0 0 0-.833.834v3.278c0 .46.373.834.833.834h4.34l-.93 4.125a.833.833 0 0 0 1.625.367l1.014-4.492h14.68l1.014 4.492a.834.834 0 0 0 1.626-.367l-.931-4.125h4.34c.46 0 .833-.373.833-.834v-3.278a.833.833 0 0 0-.833-.834zm-19.612 0l.805-3.566H29.24l.805 3.566H17.599z"/>
    </g>
</svg>
