<svg width="10" height="18" viewBox="0 0 10 18" fill="none" xmlns="http://www.w3.org/2000/svg">
<path d="M6.20218 5.14288C6.67453 5.14288 7.10924 5.20877 7.50644 5.34062C8.68541 5.76932 8.90317 6.59672 9.09449 7.49259L10 11.5683C10 12.2353 8.86438 12.5294 8.46028 11.5683L7.50644 7.84157C7.50644 7.84157 7.50644 13.6984 7.50644 17.1971C7.50644 18.2855 5.36064 18.2572 5.36064 17.1738L5.36064 11.7912C5.36064 11.4185 4.72997 11.4185 4.72997 11.7912C4.72997 14.552 4.76219 14.413 4.76219 17.1738C4.76219 18.2431 2.6074 18.1865 2.6074 17.1971C2.6074 14.3799 2.6074 7.84157 2.6074 7.84157L1.62585 11.5683C1.62585 12.3812 0 12.375 0 11.5683L1.0483 7.49259C1.20501 6.56842 1.51185 5.75146 2.56189 5.34062C2.90541 5.20877 3.1143 5.14286 3.60808 5.14286L6.20218 5.14288Z" fill="white"/>
<path d="M4.99999 4.57143C6.22729 4.57143 7.22222 3.54807 7.22222 2.2857C7.22222 1.02336 6.22729 0 4.99995 0C3.77269 0 2.77776 1.02336 2.77778 2.2857C2.77778 3.54807 3.77271 4.57143 4.99999 4.57143Z" fill="white"/>
</svg>
