<svg width="16" height="14" viewBox="0 0 16 14" fill="none" xmlns="http://www.w3.org/2000/svg">
<path d="M10.8151 0.0429707C10.5531 -0.0748318 10.2547 0.0620605 10.097 0.313176C9.91335 0.605694 9.67675 0.859002 9.39919 1.05745C8.97768 1.35882 8.4809 1.51994 7.97246 1.52018C7.46402 1.51994 6.96723 1.35882 6.54572 1.05745C6.26811 0.858966 6.03148 0.605602 5.8478 0.313017C5.69019 0.0619506 5.39184 -0.0749573 5.12989 0.0427196L0.310646 2.81315C0.0516518 2.9295 -0.069283 3.24639 0.0405608 3.52088L1.24393 6.00596C1.35372 6.28031 1.6525 6.40843 1.91137 6.29218L3.23389 5.69826L2.70056 13.4603C2.70056 13.7583 2.92854 14 3.20978 14H12.7988C13.08 14 13.308 13.7583 13.308 13.4603L12.7746 5.72843L14.0318 6.29365C14.2907 6.41005 14.5896 6.28195 14.6994 6.00752L15.9594 3.52248C16.0693 3.24806 15.9484 2.93124 15.6895 2.81483L10.8151 0.0429707Z" fill="white"/>
</svg>
