<svg width="14" height="14" viewBox="0 0 14 14" fill="none" xmlns="http://www.w3.org/2000/svg">
<path fill-rule="evenodd" clip-rule="evenodd" d="M13.7059 1.77674C14.0964 1.38622 14.0964 0.753054 13.7059 0.362529L13.6375 0.294152C13.247 -0.096372 12.6138 -0.0963723 12.2233 0.294152L7.00002 5.51741L1.77677 0.294152C1.38624 -0.0963726 0.753077 -0.0963723 0.362552 0.294152L0.294175 0.362529C-0.0963491 0.753053 -0.0963493 1.38622 0.294175 1.77674L5.51743 7L0.294175 12.2233C-0.0963497 12.6138 -0.0963494 13.2469 0.294175 13.6375L0.362552 13.7058C0.753076 14.0964 1.38624 14.0964 1.77677 13.7058L7.00002 8.48259L12.2233 13.7058C12.6138 14.0964 13.247 14.0964 13.6375 13.7058L13.7059 13.6375C14.0964 13.2469 14.0964 12.6138 13.7059 12.2233L8.48261 7L13.7059 1.77674Z" fill="white"/>
</svg>
