<svg width="32" height="28" viewBox="0 0 32 28" fill="none" xmlns="http://www.w3.org/2000/svg">
<path d="M26 26H14V18H12V26H6V18H4V26C4 26.5304 4.21071 27.0391 4.58579 27.4142C4.96086 27.7893 5.46957 28 6 28H26C26.5304 28 27.0391 27.7893 27.4142 27.4142C27.7893 27.0391 28 26.5304 28 26V18H26V26Z" fill="white"/>
<path d="M31.79 9.27L27.71 1.11C27.5444 0.776787 27.2892 0.496371 26.973 0.30028C26.6568 0.104188 26.2921 0.000197442 25.92 0H6.08002C5.70793 0.000197442 5.34328 0.104188 5.02706 0.30028C4.71084 0.496371 4.45559 0.776787 4.29002 1.11L0.210015 9.27C0.0707117 9.54949 -0.00120831 9.85772 1.5357e-05 10.17V13.25C-0.000897669 13.7173 0.161853 14.1702 0.460015 14.53C0.900674 15.0351 1.44491 15.4395 2.05575 15.7156C2.66658 15.9916 3.32969 16.133 4.00002 16.13C5.09379 16.1317 6.1542 15.7535 7.00002 15.06C7.84582 15.7539 8.90601 16.1331 10 16.1331C11.094 16.1331 12.1542 15.7539 13 15.06C13.8458 15.7539 14.906 16.1331 16 16.1331C17.094 16.1331 18.1542 15.7539 19 15.06C19.8458 15.7539 20.906 16.1331 22 16.1331C23.094 16.1331 24.1542 15.7539 25 15.06C25.9442 15.8352 27.1521 16.2142 28.3699 16.1172C29.5877 16.0202 30.7204 15.4549 31.53 14.54C31.8318 14.1816 31.9981 13.7285 32 13.26V10.17C32.0012 9.85772 31.9293 9.54949 31.79 9.27ZM13 10.4V11.92L12.18 13C11.9283 13.3431 11.5993 13.6221 11.2197 13.8144C10.8401 14.0067 10.4206 14.1069 9.99502 14.1069C9.56948 14.1069 9.14993 14.0067 8.77032 13.8144C8.39072 13.6221 8.06174 13.3431 7.81002 13L7.00002 11.88V10.4L9.59002 2H14L13 10.4ZM25 11.88L24.19 13C23.9383 13.3431 23.6093 13.6221 23.2297 13.8144C22.8501 14.0067 22.4305 14.1069 22.005 14.1069C21.5795 14.1069 21.1599 14.0067 20.7803 13.8144C20.4007 13.6221 20.0717 13.3431 19.82 13L19 11.88V10.4L18 2H22.45L25 10.4V11.88Z" fill="white"/>
</svg>
