<svg width="16" height="19" viewBox="0 0 16 19" fill="none" xmlns="http://www.w3.org/2000/svg">
<path fill-rule="evenodd" clip-rule="evenodd" d="M3.19999 4.8C3.19999 2.15328 5.35327 0 7.99999 0C10.6467 0 12.8 2.15328 12.8 4.8C12.8 7.44672 10.6467 9.6 7.99999 9.6C5.35327 9.6 3.19999 7.44672 3.19999 4.8ZM9.06667 10.6667C10.9159 10.6667 12.658 11.4015 13.9721 12.7358C15.2798 14.0636 16 15.8163 16 17.6711C16 17.9657 15.7612 18.2044 15.4667 18.2044H0.533333C0.238791 18.2044 0 17.9657 0 17.6711C0 15.8163 0.720178 14.0636 2.02788 12.7358C3.34201 11.4015 5.08416 10.6667 6.93333 10.6667H9.06667Z" fill="#736E7D"/>
</svg>
