<svg xmlns="http://www.w3.org/2000/svg" width="21" height="21" viewBox="0 0 21 21" fill="none">
  <g clip-path="url(#clip0_166_33435)">
    <path d="M10.334 1C5.09419 1 0.833984 5.2602 0.833984 10.5C0.833984 15.7398 5.09419 20 10.334 20C15.5738 20 19.834 15.7398 19.834 10.5C19.834 5.2602 15.5738 1 10.334 1ZM10.334 5.1602C11.634 5.1602 12.6942 6.22036 12.6942 7.5204C12.6942 8.82044 11.634 9.8806 10.334 9.8806C9.03395 9.8806 7.97379 8.82044 7.97379 7.5204C7.97379 6.22036 9.03395 5.1602 10.334 5.1602ZM14.2136 14.8204C14.2136 15.0407 14.0339 15.2407 13.7933 15.2407L6.87366 15.2399C6.65335 15.2399 6.45335 15.0603 6.45335 14.8196V14.5399C6.45335 12.4001 8.19319 10.6603 10.3329 10.6603C12.4727 10.6603 14.2125 12.4002 14.2125 14.5399L14.2136 14.8204Z" fill="#A09BA8"/>
  </g>
  <defs>
    <clipPath id="clip0_166_33435">
      <rect width="20" height="20" fill="white" transform="translate(0.333984 0.5)"/>
    </clipPath>
  </defs>
</svg>