<svg xmlns="http://www.w3.org/2000/svg" width="23" height="23" viewBox="0 0 23 23" fill="none">
  <path d="M6.29749 18.3207L3.72804 17.7601C3.49446 17.7134 3.30759 17.5925 3.16744 17.3976C3.02728 17.2032 2.97278 16.9893 3.00393 16.7557L3.26087 14.1162L1.50898 12.1073C1.35325 11.936 1.27539 11.7336 1.27539 11.5C1.27539 11.2664 1.35325 11.064 1.50898 10.8927L3.26087 8.88383L3.00393 6.24431C2.97278 6.01073 3.02728 5.79676 3.16744 5.60242C3.30759 5.40745 3.49446 5.28661 3.72804 5.23989L6.29749 4.67929L7.65228 2.39015C7.77686 2.1877 7.94816 2.05534 8.16617 1.99305C8.38419 1.93076 8.6022 1.93855 8.82021 2.01641L11.2495 3.04419L13.6788 2.01641C13.8968 1.93855 14.1148 1.93076 14.3328 1.99305C14.5509 2.05534 14.7221 2.1877 14.8467 2.39015L16.2015 4.67929L18.771 5.23989C19.0046 5.28661 19.1914 5.40745 19.3316 5.60242C19.4717 5.79676 19.5262 6.01073 19.4951 6.24431L19.2381 8.88383L20.99 10.8927C21.1458 11.064 21.2236 11.2664 21.2236 11.5C21.2236 11.7336 21.1458 11.936 20.99 12.1073L19.2381 14.1162L19.4951 16.7557C19.5262 16.9893 19.4717 17.2032 19.3316 17.3976C19.1914 17.5925 19.0046 17.7134 18.771 17.7601L16.2015 18.3207L14.8467 20.6098C14.7221 20.8123 14.5509 20.9446 14.3328 21.0069C14.1148 21.0692 13.8968 21.0614 13.6788 20.9836L11.2495 19.9558L8.82021 20.9836C8.6022 21.0614 8.38419 21.0692 8.16617 21.0069C7.94816 20.9446 7.77686 20.8123 7.65228 20.6098L6.29749 18.3207ZM9.6144 14.1629C9.7857 14.3342 10.0037 14.4198 10.2684 14.4198C10.5332 14.4198 10.7512 14.3342 10.9225 14.1629L14.8934 10.1919C15.0803 10.005 15.1737 9.78298 15.1737 9.52572C15.1737 9.26909 15.0803 9.04734 14.8934 8.86047C14.7066 8.6736 14.4848 8.58017 14.2282 8.58017C13.9709 8.58017 13.7489 8.6736 13.562 8.86047L10.2684 12.154L8.91365 10.8226C8.72678 10.6513 8.50503 10.5694 8.2484 10.5769C7.99114 10.585 7.77686 10.6747 7.60557 10.846C7.43427 11.0172 7.34862 11.2353 7.34862 11.5C7.34862 11.7647 7.43427 11.9827 7.60557 12.154L9.6144 14.1629Z" fill="#FCFCFC"/>
</svg>