<svg width="64" height="64" viewBox="0 0 64 64" fill="none" xmlns="http://www.w3.org/2000/svg">
<path opacity="0.8" d="M49.3319 0.161805C48.4941 0.497165 48.0621 0.819095 46.9869 1.89558L45.8983 3.00085L47.001 3.93718C50.1838 6.62198 52.8218 10.0761 54.7066 14.005C56.8289 18.4377 57.7082 22.3813 57.6801 27.3868C57.6666 32.2534 56.7034 36.3782 54.5805 40.727C48.592 52.9619 35.1482 59.744 21.6634 57.3107C14.9626 56.1088 8.66626 52.5011 4.18497 47.3407L2.98435 45.9571L1.90978 47.1033C-0.673267 49.8579 -0.645095 51.3126 2.04931 53.9551C7.78691 59.5903 15.2973 63.0444 23.618 63.8828C25.7959 64.1068 30.8359 63.9948 32.8596 63.6729C34.8557 63.3657 38.2343 62.4979 39.993 61.8553C41.8074 61.1839 45.2423 59.4918 46.8193 58.4991C49.081 57.0732 51.2589 55.3248 53.3108 53.2556C56.4372 50.1235 58.4621 47.2851 60.3604 43.3977C62.0634 39.902 63.1386 36.4761 63.7249 32.631C64.0462 30.519 64.1018 24.3942 63.8087 22.423C62.7751 15.5148 60.1652 9.47383 55.9207 4.17462C54.2593 2.09142 52.5562 0.497173 51.7044 0.218133C50.9236 -0.0474675 49.9463 -0.0756356 49.3319 0.161805Z" fill="#736E7D"/>
<path opacity="0.4" d="M24.5671 24.6463L6.08383 43.1602L6.99137 44.2655C10.8858 48.9215 16.1351 52.0819 22.1101 53.3401C24.4551 53.8438 28.5178 53.9558 31.0029 53.6057C36.9216 52.7667 42.1146 50.11 46.3309 45.7612C50.2529 41.7203 52.738 36.6585 53.5194 31.093C53.7991 29.191 53.7844 25.5135 53.506 23.5705C52.7105 18.1446 50.2945 13.1666 46.498 9.19543C45.2973 7.93655 43.3012 6.13367 43.106 6.13367C43.0778 6.13303 34.7296 14.4665 24.5671 24.6463ZM43.2173 15.2357C43.6922 15.4175 44.3341 16.005 44.5997 16.5081C44.9063 17.109 44.8506 18.3122 44.4743 18.8716C43.7063 20.0038 42.0026 20.8569 40.4256 20.8709C39.5603 20.885 39.4343 20.8428 39.1828 20.5356C38.5965 19.8226 39.1412 17.6127 40.258 16.1452C40.928 15.2639 42.2259 14.8581 43.2173 15.2357ZM46.7072 27.1212C47.6007 27.5551 48.0621 28.3935 47.9777 29.4706C47.8663 30.981 46.6516 32.0012 45.1713 31.806C43.65 31.5961 41.8068 30.5753 41.3882 29.7087C41.1789 29.2748 41.1789 29.1628 41.3466 28.7577C41.5981 28.1702 42.4077 27.5974 43.6218 27.1775C44.8365 26.7442 45.8976 26.7302 46.7072 27.1212ZM40.3693 37.5666C42.6177 38.6156 43.3709 40.238 42.338 41.8182C41.7236 42.7692 40.3834 43.175 39.3082 42.727C38.3866 42.3346 37.312 40.727 36.9767 39.1891C36.7674 38.2943 36.8935 37.6786 37.3677 37.301C37.8983 36.8818 39.1546 36.9938 40.3693 37.5666ZM20.5184 39.2588C20.8115 39.4963 20.8538 39.6364 20.8397 40.4895C20.8263 42.0691 19.9744 43.7753 18.8435 44.5446C18.2848 44.9222 17.0848 44.9785 16.4838 44.67C15.1994 43.9993 14.7251 42.5727 15.3536 41.2863C16.1069 39.7203 19.4714 38.4063 20.5184 39.2588ZM29.9552 41.6083C30.6253 42.0556 31.5469 43.8873 31.7421 45.1737C32.0634 47.3139 29.8291 48.8377 27.959 47.7331C26.7859 47.0483 26.4787 45.5379 27.1354 43.6915C27.8752 41.5801 28.8384 40.8806 29.9552 41.6083Z" fill="#736E7D"/>
</svg>
