<svg viewBox="0 0 24 24" fill="none" xmlns="http://www.w3.org/2000/svg">
<g id="EyebrowsIcon" transform="translate(2.4 9.6)">
<path id="EyebrowIcon" d="M10.4834 0.271484C11.2299 0.271505 12.0371 0.333684 12.7969 0.396484C13.5155 0.455889 14.3582 0.693687 15.0977 0.998047V0.999023C16.5191 1.67107 17.7211 2.65192 18.8799 3.77246L18.8945 3.78613L18.9102 3.79785C18.9105 3.79821 18.9123 3.79979 18.9131 3.80078C18.9147 3.80284 18.9167 3.8064 18.9189 3.81152C18.9241 3.82304 18.9287 3.8397 18.9287 3.85938C18.9287 3.87902 18.9241 3.8957 18.9189 3.90723C18.9165 3.91271 18.9147 3.91694 18.9131 3.91895C18.9124 3.91987 18.9115 3.92056 18.9111 3.9209H18.9102L18.8887 3.93652L18.8701 3.95703C18.8549 3.97336 18.8222 3.99257 18.7832 3.99902C18.7479 4.00484 18.7203 3.99782 18.7002 3.9834C17.5162 3.09376 16.1464 2.32332 14.8232 1.93555C14.1372 1.73452 13.4551 1.73633 12.7607 1.73633C12.0317 1.73634 11.3069 1.86746 10.6104 1.99219C9.19536 2.24559 7.78242 2.62502 6.38281 3.00098L6.37207 3.00391C4.97696 3.44112 3.56701 3.88224 2.21387 4.4502C1.4735 4.69563 0.696273 4.33904 0.399414 3.64062L0.34668 3.49609C0.0895983 2.60341 0.516185 1.70395 1.22949 1.44824L1.29199 1.42578L1.33008 1.38281C1.33213 1.38184 1.33614 1.38092 1.34082 1.37891C1.35803 1.37155 1.39905 1.35264 1.4502 1.32812C2.95444 1.01782 4.40002 0.769265 5.90234 0.583008C7.41361 0.395644 8.92092 0.271484 10.4834 0.271484Z" fill="#CFCDD4" stroke="#CFCDD4" stroke-width="0.543278"/>
</g>
</svg>
