<svg width="23" height="18" viewBox="0 0 23 18" fill="none" xmlns="http://www.w3.org/2000/svg">
<path d="M9 4.22002L5.603 7.00002H2V11H5.603L9 13.78V4.22002ZM4.889 13H1C0.734784 13 0.48043 12.8947 0.292893 12.7071C0.105357 12.5196 0 12.2652 0 12V6.00002C0 5.73481 0.105357 5.48045 0.292893 5.29291C0.48043 5.10538 0.734784 5.00002 1 5.00002H4.889L10.183 0.668021C10.2563 0.607968 10.3451 0.569958 10.4391 0.558415C10.5331 0.546871 10.6284 0.56227 10.714 0.602819C10.7996 0.643367 10.872 0.707397 10.9226 0.787454C10.9732 0.867511 11.0001 0.960301 11 1.05502V16.945C11.0001 17.0397 10.9732 17.1325 10.9226 17.2126C10.872 17.2926 10.7996 17.3567 10.714 17.3972C10.6284 17.4378 10.5331 17.4532 10.4391 17.4416C10.3451 17.4301 10.2563 17.3921 10.183 17.332L4.89 13H4.889ZM19.414 9.00002L22.95 12.536L21.536 13.95L18 10.414L14.464 13.95L13.05 12.536L16.586 9.00002L13.05 5.46402L14.464 4.05002L18 7.58602L21.536 4.05002L22.95 5.46402L19.414 9.00002Z" fill="#ECEBED"/>
</svg>
