<svg width="18" height="18" viewBox="0 0 18 18" fill="none" xmlns="http://www.w3.org/2000/svg">
<path d="M2.42969 11.9058V14.902C2.42962 14.9692 2.44224 15.0357 2.46685 15.0977C2.49146 15.1598 2.52757 15.2161 2.57311 15.2636C2.61865 15.3111 2.67274 15.3488 2.73227 15.3745C2.7918 15.4002 2.85562 15.4135 2.92006 15.4135H4.6487C4.74307 15.4135 4.83666 15.4311 4.92505 15.4655L8.74982 16.9538C8.8965 17.0109 9.05276 17.0365 9.20918 17.029C9.3656 17.0215 9.51895 16.9812 9.66 16.9103L15.0264 14.2155C15.2836 14.0864 15.4829 13.8587 15.5828 13.5801C15.6826 13.3015 15.6752 12.9935 15.5621 12.7204V12.7204C15.454 12.4599 15.2575 12.25 15.0102 12.131C14.7628 12.012 14.482 11.9922 14.2215 12.0755L9.68528 13.5289L7.85669 11.6988C7.66222 11.5028 7.40233 11.393 7.13172 11.3926H2.91771C2.85331 11.3929 2.78961 11.4064 2.73023 11.4324C2.67086 11.4584 2.61697 11.4963 2.57165 11.5439C2.52634 11.5916 2.49048 11.6481 2.46612 11.7102C2.44176 11.7723 2.42938 11.8388 2.42969 11.9058Z" stroke="#FCFCFC" stroke-miterlimit="10"/>
<path d="M6.69727 13.415L8.23246 14.8849C8.41328 15.0479 8.64576 15.135 8.88478 15.1295C9.12381 15.1239 9.35233 15.0261 9.52601 14.8549C9.6206 14.7614 9.69602 14.6489 9.74769 14.5242C9.79937 14.3995 9.82624 14.2651 9.82668 14.1293C9.82712 13.9934 9.80112 13.8589 9.75025 13.7338C9.69938 13.6087 9.6247 13.4957 9.53071 13.4015L7.85675 11.6982" stroke="#FCFCFC" stroke-miterlimit="10"/>
<path d="M13.2973 8.10634V3.3499L9.34287 0.97168L5.38867 3.3499V8.10634L9.34287 10.4846L13.2973 8.10634Z" stroke="#FCFCFC" stroke-miterlimit="10"/>
<path d="M5.38867 3.35059L9.34312 5.39145" stroke="#FCFCFC" stroke-miterlimit="10"/>
<path d="M13.2979 3.35059L9.34375 5.39145" stroke="#FCFCFC" stroke-miterlimit="10"/>
<path d="M9.34375 10.4842V5.39062" stroke="#FCFCFC" stroke-miterlimit="10"/>
</svg>
