<svg width="12" height="12" viewBox="0 0 12 12" fill="none" xmlns="http://www.w3.org/2000/svg">
<path d="M10.6006 1.01886C10.8468 1.09179 10.9868 1.35072 10.9141 1.59698L10.7285 2.22491L10.6504 2.46808C10.4538 3.03117 10.163 3.55776 9.79004 4.02472L9.77051 4.05011C9.60325 4.25956 9.4035 4.43649 9.18359 4.58136C9.21979 4.67522 9.24037 4.77041 9.25293 4.85284C9.2717 4.97624 9.27935 5.11048 9.28027 5.24249C9.2821 5.5066 9.2587 5.8024 9.22852 6.07159C9.19808 6.34301 9.15955 6.59859 9.12891 6.78546C9.1228 6.82271 9.11673 6.85739 9.11133 6.88898L9.99414 8.04425L10 8.05109C10.0521 8.12195 10.0827 8.20638 10.0889 8.29425L10.2441 10.5023C10.262 10.7583 10.0695 10.9801 9.81348 10.9984C9.55731 11.0164 9.33464 10.8238 9.31641 10.5677L9.1709 8.49835L8.25 7.29523L7.49512 8.42999L6.91699 10.6517C6.85229 10.9003 6.59826 11.0494 6.34961 10.9847C6.10111 10.9199 5.95192 10.6659 6.0166 10.4173L6.61426 8.12042L6.61719 8.11066C6.63035 8.06413 6.65093 8.02009 6.67773 7.9798L7.4209 6.86163L7.32715 5.44073L6.80371 6.0462L6.4248 7.15851C6.34197 7.40166 6.07814 7.53131 5.83496 7.44855C5.5918 7.36576 5.46126 7.10188 5.54395 6.8587L5.95215 5.66046L5.95605 5.64972C5.97543 5.59701 6.00421 5.54769 6.04102 5.50519L6.85254 4.56769C7.07729 4.30816 7.38946 4.1402 7.72949 4.09406L8.00781 4.05597C8.41559 4.00081 8.78619 3.79063 9.04297 3.46906L9.06348 3.44366C9.41452 3.00408 9.67739 2.50074 9.83691 1.96124L10.0225 1.33331C10.0954 1.08706 10.3543 0.946055 10.6006 1.01886ZM4.78809 1.30206C5.02913 1.21321 5.29685 1.33644 5.38574 1.57745L5.76465 2.6048L5.76562 2.60773C5.76697 2.61147 5.77185 2.62447 5.77637 2.638C5.92284 3.07262 5.80755 3.54365 5.50488 3.86847L5.23633 4.15753C5.11091 4.292 4.96946 4.4077 4.81934 4.50909C4.81818 4.51417 4.81872 4.51965 4.81738 4.52472L4.24512 6.69659L5.1582 8.05402C5.2286 8.15861 5.25378 8.28715 5.22754 8.41046L4.75684 10.6194C4.70323 10.8707 4.45537 11.0315 4.2041 10.9778C3.95297 10.9241 3.79309 10.6763 3.84668 10.4251L4.27637 8.40948L3.47949 7.22687L2.91602 7.42804C2.91738 7.44265 2.91729 7.45837 2.91895 7.47296L3.25586 10.471C3.28433 10.7261 3.10071 10.9558 2.8457 10.9847C2.59038 11.0134 2.35974 10.8298 2.33105 10.5745L1.99414 7.57648C1.9414 7.11184 1.99489 6.64135 2.14941 6.2005L2.50488 4.72491C2.37928 4.67033 2.25726 4.60548 2.1416 4.5296L2.12109 4.51593L1.74414 4.263C1.39138 4.02629 1.19261 3.60088 1.26465 3.16632V3.16339C1.26558 3.15796 1.26793 3.14613 1.27051 3.13312L1.52344 1.84503C1.5732 1.59315 1.81834 1.42926 2.07031 1.47882C2.32217 1.5285 2.4859 1.77281 2.43652 2.02472L2.18359 3.31281V3.31476C2.18342 3.31574 2.18293 3.31684 2.18262 3.31866C2.17298 3.37775 2.19923 3.44739 2.26172 3.48956L2.63965 3.74347C2.91207 3.92618 3.23723 4.01373 3.56445 3.99249C3.94246 3.96798 4.29717 3.7999 4.55566 3.52277L4.82422 3.23468C4.90398 3.14908 4.92727 3.03195 4.89453 2.93488C4.89419 2.93385 4.89389 2.932 4.89355 2.93097C4.8933 2.93025 4.89205 2.92929 4.8916 2.92804V2.92609L4.89062 2.92511L4.5127 1.89972C4.42388 1.65877 4.54726 1.39106 4.78809 1.30206ZM7.89453 2.07843C8.3533 2.07843 8.72559 2.45071 8.72559 2.90948C8.72537 3.36808 8.35317 3.73956 7.89453 3.73956C7.43598 3.73946 7.06467 3.36801 7.06445 2.90948C7.06445 2.45077 7.43585 2.07853 7.89453 2.07843ZM3.56738 1.92999C4.02603 1.93009 4.39738 2.30142 4.39746 2.76007C4.39746 3.21879 4.02607 3.59103 3.56738 3.59113C3.10861 3.59113 2.73633 3.21885 2.73633 2.76007C2.73641 2.30136 3.10866 1.92999 3.56738 1.92999Z" fill="#FCFCFC"/>
</svg>
