<svg xmlns="http://www.w3.org/2000/svg" width="54" height="51" viewBox="0 0 54 51" fill="none">
  <path d="M13.5948 43.7153L6.63934 42.2181C6.00703 42.0934 5.50117 41.7706 5.12178 41.25C4.74239 40.731 4.59485 40.1596 4.67916 39.5357L5.37471 32.4867L0.632319 27.1219C0.210773 26.6644 0 26.1238 0 25.5C0 24.8762 0.210773 24.3356 0.632319 23.8781L5.37471 18.5133L4.67916 11.4643C4.59485 10.8404 4.74239 10.269 5.12178 9.75003C5.50117 9.22935 6.00703 8.90663 6.63934 8.78187L13.5948 7.28472L17.2623 1.17138C17.5995 0.630742 18.0632 0.277249 18.6534 0.1109C19.2436 -0.0554498 19.8337 -0.0346562 20.4239 0.173281L27 2.91805L33.5761 0.173281C34.1663 -0.0346562 34.7564 -0.0554498 35.3466 0.1109C35.9368 0.277249 36.4005 0.630742 36.7377 1.17138L40.4052 7.28472L47.3607 8.78187C47.993 8.90663 48.4988 9.22935 48.8782 9.75003C49.2576 10.269 49.4052 10.8404 49.3208 11.4643L48.6253 18.5133L53.3677 23.8781C53.7892 24.3356 54 24.8762 54 25.5C54 26.1238 53.7892 26.6644 53.3677 27.1219L48.6253 32.4867L49.3208 39.5357C49.4052 40.1596 49.2576 40.731 48.8782 41.25C48.4988 41.7706 47.993 42.0934 47.3607 42.2181L40.4052 43.7153L36.7377 49.8286C36.4005 50.3693 35.9368 50.7227 35.3466 50.8891C34.7564 51.0554 34.1663 51.0347 33.5761 50.8267L27 48.082L20.4239 50.8267C19.8337 51.0347 19.2436 51.0554 18.6534 50.8891C18.0632 50.7227 17.5995 50.3693 17.2623 49.8286L13.5948 43.7153ZM22.5738 32.6114C23.0375 33.0689 23.6276 33.2976 24.3443 33.2976C25.0609 33.2976 25.6511 33.0689 26.1148 32.6114L36.8642 22.0067C37.37 21.5076 37.623 20.9146 37.623 20.2276C37.623 19.5422 37.37 18.95 36.8642 18.4509C36.3583 17.9519 35.758 17.7024 35.0633 17.7024C34.3669 17.7024 33.7658 17.9519 33.26 18.4509L24.3443 27.2467L20.6768 23.6909C20.171 23.2335 19.5707 23.0147 18.876 23.0347C18.1796 23.0563 17.5995 23.2959 17.1358 23.7533C16.6721 24.2108 16.4403 24.793 16.4403 25.5C16.4403 26.207 16.6721 26.7892 17.1358 27.2467L22.5738 32.6114Z" fill="white"/>
</svg>