<svg xmlns="http://www.w3.org/2000/svg" width="110" height="34" viewBox="0 0 110 34" fill="none">
  <path d="M106.022 8.73603C106.022 12.1152 103.3 14.818 99.8971 14.818C96.4941 14.818 93.7719 12.1151 93.7719 8.73603C93.7719 5.357 96.4941 2.65411 99.8971 2.65411C103.298 2.60132 106.022 5.357 106.022 8.73603Z" fill="white"/>
  <path d="M87.9593 0.00175457C89.4257 -0.0510431 90.6304 1.09431 90.6304 2.54827V4.10787C90.5261 9.51344 91.7307 13.4124 94.0335 15.338C94.3485 15.598 94.6614 15.8051 94.9232 16.065C96.3364 17.0012 98.0113 17.5718 99.8438 17.5718C101.938 17.5718 103.928 16.8448 105.445 15.5959C108.01 16.7392 110 18.8715 110 22.4072V31.7703C110 32.4973 109.423 33.0171 108.744 33.0171H90.9965C90.2644 33.0171 89.7408 32.4445 89.7408 31.7703L89.7388 21.6802C89.8963 19.8607 89.477 18.094 88.4831 16.5851C86.442 13.5694 85.446 9.35998 85.5503 4.00483V2.65235C85.5503 1.30189 86.5972 0.054573 87.9593 0.00175457Z" fill="white"/>
  <path d="M77.5651 8.73603C77.5651 12.1152 74.843 14.818 71.44 14.818C68.0369 14.818 65.3148 12.1151 65.3148 8.73603C65.3148 5.357 68.0369 2.65411 71.44 2.65411C74.8411 2.60132 77.5651 5.357 77.5651 8.73603Z" fill="white"/>
  <path d="M59.5022 0.00175457C60.9686 -0.0510431 62.1732 1.09431 62.1732 2.54827V4.10787C62.0689 9.51344 63.2735 13.4124 65.5764 15.338C65.8913 15.598 66.2042 15.8051 66.466 16.065C67.8792 17.0012 69.5542 17.5718 71.3867 17.5718C73.4809 17.5718 75.4709 16.8448 76.9883 15.5959C79.5529 16.7392 81.5428 18.8715 81.5428 22.4072V31.7703C81.5428 32.4973 80.9661 33.0171 80.2871 33.0171H62.5394C61.8072 33.0171 61.2837 32.4445 61.2837 31.7703L61.2816 21.6802C61.4391 19.8607 61.0198 18.094 60.0259 16.5851C57.9849 13.5694 56.9888 9.35998 57.0931 4.00483V2.65235C57.0931 1.30189 58.1401 0.054573 59.5022 0.00175457Z" fill="white"/>
  <path d="M49.108 8.73603C49.108 12.1152 46.3859 14.818 42.9828 14.818C39.5798 14.818 36.8577 12.1151 36.8577 8.73603C36.8577 5.357 39.5798 2.65411 42.9828 2.65411C46.3839 2.60132 49.108 5.357 49.108 8.73603Z" fill="white"/>
  <path d="M31.0451 0.00175457C32.5115 -0.0510431 33.7161 1.09431 33.7161 2.54827V4.10787C33.6118 9.51344 34.8164 13.4124 37.1192 15.338C37.4342 15.598 37.7471 15.8051 38.0089 16.065C39.4221 17.0012 41.0971 17.5718 42.9295 17.5718C45.0238 17.5718 47.0137 16.8448 48.5311 15.5959C51.0957 16.7392 53.0857 18.8715 53.0857 22.4072V31.7703C53.0857 32.4973 52.5089 33.0171 51.83 33.0171H34.0822C33.3501 33.0171 32.8265 32.4445 32.8265 31.7703L32.8245 21.6802C32.982 19.8607 32.5627 18.094 31.5688 16.5851C29.5277 13.5694 28.5317 9.35998 28.636 4.00483V2.65235C28.636 1.30189 29.683 0.054573 31.0451 0.00175457Z" fill="white"/>
  <path d="M20.6509 8.73603C20.6509 12.1152 17.9287 14.818 14.5257 14.818C11.1226 14.818 8.40052 12.1151 8.40052 8.73603C8.40052 5.357 11.1226 2.65411 14.5257 2.65411C17.9268 2.60132 20.6509 5.357 20.6509 8.73603Z" fill="white"/>
  <path d="M2.58792 0.00175457C4.05431 -0.0510431 5.25893 1.09431 5.25893 2.54827V4.10787C5.15462 9.51344 6.35925 13.4124 8.66209 15.338C8.97705 15.598 9.28995 15.8051 9.55173 16.065C10.9649 17.0012 12.6399 17.5718 14.4724 17.5718C16.5666 17.5718 18.5566 16.8448 20.074 15.5959C22.6386 16.7392 24.6286 18.8715 24.6286 22.4072V31.7703C24.6286 32.4973 24.0518 33.0171 23.3729 33.0171H5.62511C4.89296 33.0171 4.36939 32.4445 4.36939 31.7703L4.36735 21.6802C4.52483 19.8607 4.10557 18.094 3.11164 16.5851C1.07058 13.5694 0.0745506 9.35998 0.178844 4.00483V2.65235C0.178844 1.30189 1.22581 0.054573 2.58792 0.00175457Z" fill="white"/>
</svg>