<svg xmlns="http://www.w3.org/2000/svg" width="67" height="83" viewBox="0 0 67 83" fill="none">
  <path d="M34.7423 37.3186V46.6186H40.3111C40.3926 46.4025 40.442 46.1714 40.442 45.9253L40.4391 19.3C40.4127 19.3 49.9541 12.0283 49.9541 12.0283C49.9541 12.0283 51.3848 9.72962 49.954 8.36716C49.4044 7.84497 48.7007 7.5899 47.9883 7.5899C47.3456 7.5899 46.6971 7.79697 46.1504 8.19912L38.2857 13.487C36.5748 14.7499 30.5476 14.8402 28.7143 13.487L20.8481 8.19912C19.6953 7.35116 18.0613 7.20791 17.0159 8.20112C15.5851 9.56357 17.0159 12.0283 17.0159 12.0283L26.5593 19.3V45.9284C26.5593 46.1745 26.6088 46.4056 26.6902 46.6217H32.259V37.3186H34.7423Z" fill="white"/>
  <path d="M63.7496 63.7184H47.418V49.5213C47.418 47.9217 46.1559 46.6193 44.606 46.6193H22.2957C20.7458 46.6193 19.4837 47.9217 19.4837 49.5213V63.7184H3.25114C1.45986 63.7184 0 65.2249 0 67.0736L0 83H67V67.0736C67 65.2249 65.541 63.7184 63.7496 63.7184Z" fill="white"/>
  <path d="M33.5006 11.5061C36.5743 11.5061 39.0752 8.9252 39.0752 5.75307C39.0752 2.58094 36.5743 0 33.5006 0C30.4269 0 27.926 2.58094 27.926 5.75307C27.926 8.9252 30.4269 11.5061 33.5006 11.5061Z" fill="white"/>
</svg>