<svg xmlns="http://www.w3.org/2000/svg" width="79" height="80" viewBox="0 0 79 80" fill="none">
  <path d="M41.6104 7.41024C41.6104 12.3502 34.1922 12.3502 34.1922 7.41024C34.1922 2.47026 41.6104 2.47026 41.6104 7.41024Z" fill="white"/>
  <path d="M78.9681 51.2741C78.6321 48.3273 75.931 45.3804 59.1513 45.5481C56.6214 41.4238 52.9124 38.1381 48.4426 36.2865V21.217C48.9498 21.0492 49.3715 20.6282 49.5395 20.1217C49.7931 19.2798 49.3715 18.2701 48.4426 18.0168H48.3569V10.8601C49.7075 10.6924 50.801 11.0278 52.066 11.3666C53.1629 11.7021 54.3421 12.0408 55.6927 12.0408C56.368 12.0408 57.0433 11.9553 57.7152 11.7876C58.2225 11.7021 58.5585 11.1989 58.5585 10.6924V3.87109C58.5585 3.53562 58.3905 3.19686 58.1368 3.02912C57.8832 2.86139 57.5472 2.77588 57.2079 2.86139C55.4357 3.28237 54.1708 2.9469 52.6556 2.52591C51.3907 2.19044 50.0401 1.76946 48.3535 1.93719L48.3568 1.09523C48.3568 0.50651 47.8496 0 47.2599 0C46.6703 0 46.163 0.506493 46.163 1.09523V17.346L45.4054 17.0928L42.9612 14.0603C42.118 12.9651 40.7674 12.3764 39.4202 12.3764H36.1328C32.2524 12.3764 29.3866 18.9444 28.5433 20.9636C28.2073 21.8056 28.629 22.8153 29.4723 23.1541C29.6403 23.2396 29.8939 23.2396 30.0619 23.2396C30.7372 23.2396 31.3268 22.8186 31.6628 22.1444C32.338 20.4604 33.2636 18.6909 34.1926 17.5135L33.9389 24.0816L31.3235 36.1225C24.7453 38.6484 19.7715 44.1212 17.7451 50.771C1.38736 54.7276 -0.299182 58.4343 0.0364393 61.2956C1.13337 69.6297 28.7936 67.0216 40.5994 65.5054C52.573 64.0748 80.0652 59.6113 78.9681 51.2741ZM7.45794 60.3682C9.14448 59.5262 12.0959 58.3488 16.9877 57.0003C16.9877 58.01 16.9877 59.0197 17.1557 60.1149C17.2414 60.5359 17.3237 60.8714 17.4094 61.2924C12.7714 61.2101 9.3983 60.8747 7.45794 60.3682ZM43.2143 19.5329C43.3823 19.7861 43.7216 19.9538 43.9719 20.0394L46.2481 20.7958V35.4443C44.8975 35.0233 43.5503 34.7701 42.1174 34.6024V24.1637L41.8638 17.8489L43.2143 19.5329ZM37.733 25.0056H38.4907V34.6024C37.9834 34.6024 37.3937 34.6879 36.8898 34.7701C36.4682 34.8556 36.0465 34.9378 35.6249 35.0233L37.733 25.0056ZM38.1547 45.3804C33.1807 46.0546 29.0465 49.7579 27.9494 54.642C27.7814 55.6517 26.9382 56.3259 26.0092 56.4936H25.1659C23.901 56.2404 23.1434 54.9774 23.3937 53.7145C24.9123 46.8932 30.6472 41.6735 37.5615 40.8316C38.8264 40.6638 40.0056 41.588 40.177 42.8509C40.345 44.0349 39.5019 45.2127 38.1547 45.3804ZM62.3557 55.5698C62.3557 55.1489 62.3557 54.8134 62.27 54.3924C62.102 53.2972 61.934 52.3731 61.5948 51.36C66.6544 51.4455 69.8595 51.8665 71.628 52.2875C69.9447 53.2117 66.8256 54.3924 62.3557 55.5698Z" fill="white"/>
  <path d="M22.2152 71.7347C27.0211 77.543 34.5286 80.8288 42.5397 79.819C50.5507 78.8091 57.0431 73.7575 60.2483 66.936C55.103 68.1134 48.8642 69.2087 41.3608 70.1362C33.7713 71.1459 27.5295 71.6524 22.216 71.7346L22.2152 71.7347Z" fill="white"/>
</svg>