<svg width="30" height="24" viewBox="0 0 30 24" fill="none" xmlns="http://www.w3.org/2000/svg">
<path fill-rule="evenodd" clip-rule="evenodd" d="M18.7 0.881623C18.8994 0.947978 19.0838 1.05297 19.2427 1.19061C19.4015 1.32825 19.5317 1.49584 19.6257 1.6838C19.7198 1.87176 19.7759 2.0764 19.7908 2.28605C19.8057 2.49569 19.7792 2.70623 19.7128 2.90562L13.3128 22.1056C13.1787 22.5083 12.8901 22.8413 12.5105 23.0312C12.131 23.2211 11.6915 23.2525 11.2888 23.1184C10.8861 22.9843 10.5531 22.6958 10.3632 22.3162C10.1733 21.9366 10.1419 21.4971 10.276 21.0944L16.676 1.89442C16.7423 1.695 16.8473 1.5106 16.985 1.35176C17.1226 1.19292 17.2902 1.06276 17.4782 0.968704C17.6661 0.87465 17.8708 0.81855 18.0804 0.803609C18.2901 0.788667 18.5006 0.815177 18.7 0.881623ZM8.12558 6.06882C8.42554 6.36887 8.59404 6.77576 8.59404 7.20002C8.59404 7.62429 8.42554 8.03118 8.12558 8.33122L4.45678 12L8.12558 15.6688C8.2784 15.8164 8.40029 15.993 8.48415 16.1882C8.568 16.3834 8.61214 16.5933 8.61399 16.8058C8.61583 17.0182 8.57535 17.2289 8.4949 17.4255C8.41445 17.6222 8.29565 17.8008 8.14542 17.9511C7.99519 18.1013 7.81655 18.2201 7.61991 18.3005C7.42328 18.381 7.21259 18.4215 7.00014 18.4196C6.7877 18.4178 6.57774 18.3736 6.38254 18.2898C6.18733 18.2059 6.01078 18.084 5.86319 17.9312L1.06318 13.1312C0.763231 12.8312 0.594727 12.4243 0.594727 12C0.594727 11.5758 0.763231 11.1689 1.06318 10.8688L5.86319 6.06882C6.16323 5.76887 6.57012 5.60036 6.99438 5.60036C7.41865 5.60036 7.82554 5.76887 8.12558 6.06882ZM21.8632 6.06882C22.1632 5.76887 22.5701 5.60036 22.9944 5.60036C23.4186 5.60036 23.8255 5.76887 24.1256 6.06882L28.9256 10.8688C29.2255 11.1689 29.394 11.5758 29.394 12C29.394 12.4243 29.2255 12.8312 28.9256 13.1312L24.1256 17.9312C23.978 18.084 23.8014 18.2059 23.6062 18.2898C23.411 18.3736 23.2011 18.4178 22.9886 18.4196C22.7762 18.4215 22.5655 18.381 22.3689 18.3005C22.1722 18.2201 21.9936 18.1013 21.8434 17.9511C21.6931 17.8008 21.5743 17.6222 21.4939 17.4255C21.4134 17.2289 21.3729 17.0182 21.3748 16.8058C21.3766 16.5933 21.4208 16.3834 21.5046 16.1882C21.5885 15.993 21.7104 15.8164 21.8632 15.6688L25.532 12L21.8632 8.33122C21.5632 8.03118 21.3947 7.62429 21.3947 7.20002C21.3947 6.77576 21.5632 6.36887 21.8632 6.06882Z" fill="#FF2D55"/>
</svg>
