<svg width="25" height="24" viewBox="0 0 25 24" fill="none" xmlns="http://www.w3.org/2000/svg">
<path d="M24.4842 18.5466L18.9955 13.0581C17.9127 11.9754 16.2956 11.7645 14.9926 12.4066L9.99598 7.41021V4.49956L3.99632 0L0.996484 2.99971L5.49623 8.99912H8.40701L13.4036 13.9955C12.7661 15.2985 12.9724 16.9155 14.0551 17.9982L19.5439 23.4868C20.2282 24.1711 21.3344 24.1711 22.0141 23.4868L24.4842 21.0167C25.1639 20.3324 25.1639 19.2262 24.4842 18.5466ZM16.5441 10.5458C17.8705 10.5458 19.1174 11.0614 20.0548 11.9988L20.9641 12.9081C21.7047 12.5847 22.4078 12.1348 23.0171 11.5254C24.7561 9.78654 25.3467 7.33991 24.7936 5.11825C24.6905 4.69642 24.1608 4.55112 23.8515 4.86046L20.3642 8.34762L17.1815 7.81799L16.6519 4.63549L20.1392 1.14833C20.4485 0.838981 20.2985 0.309345 19.872 0.201543C17.6502 -0.346841 15.2035 0.243726 13.4692 1.97793C12.1334 3.31374 11.5053 5.07607 11.5381 6.83371L15.3863 10.6818C15.766 10.5927 16.1597 10.5458 16.5441 10.5458ZM11.674 14.3892L9.01635 11.7317L1.873 18.8794C0.701188 20.0512 0.701188 21.9494 1.873 23.1212C3.04481 24.2929 4.94314 24.2929 6.11495 23.1212L11.9084 17.328C11.5521 16.3953 11.4443 15.3782 11.674 14.3892ZM3.99632 22.1228C3.3776 22.1228 2.87138 21.6166 2.87138 20.998C2.87138 20.3746 3.37291 19.8731 3.99632 19.8731C4.61972 19.8731 5.12125 20.3746 5.12125 20.998C5.12125 21.6166 4.61972 22.1228 3.99632 22.1228Z" fill="#FF2D55"/>
</svg>
