<svg width="24" height="24" viewBox="0 0 24 24" fill="none" xmlns="http://www.w3.org/2000/svg">
<path d="M1.5 3.83331H6.16667M22.5 3.83331H10.8333M1.5 12H15.5M22.5 12H20.1667M1.5 20.1666H3.83333M22.5 20.1666H8.5" stroke="#FF2D55" stroke-width="2.5" stroke-linecap="round"/>
<path d="M8.50033 6.16667C9.78899 6.16667 10.8337 5.122 10.8337 3.83333C10.8337 2.54467 9.78899 1.5 8.50033 1.5C7.21166 1.5 6.16699 2.54467 6.16699 3.83333C6.16699 5.122 7.21166 6.16667 8.50033 6.16667Z" stroke="#FF2D55" stroke-width="2.5" stroke-linecap="round"/>
<path d="M17.8333 14.3334C19.122 14.3334 20.1667 13.2887 20.1667 12C20.1667 10.7114 19.122 9.66669 17.8333 9.66669C16.5447 9.66669 15.5 10.7114 15.5 12C15.5 13.2887 16.5447 14.3334 17.8333 14.3334Z" stroke="#FF2D55" stroke-width="2.5" stroke-linecap="round"/>
<path d="M6.16634 22.5C7.45501 22.5 8.49967 21.4553 8.49967 20.1666C8.49967 18.878 7.45501 17.8333 6.16634 17.8333C4.87768 17.8333 3.83301 18.878 3.83301 20.1666C3.83301 21.4553 4.87768 22.5 6.16634 22.5Z" stroke="#FF2D55" stroke-width="2.5" stroke-linecap="round"/>
</svg>
