<?xml version="1.0" encoding="utf-8"?>
<!-- Generator: Adobe Illustrator 24.0.1, SVG Export Plug-In . SVG Version: 6.00 Build 0)  -->
<svg fill="white" version="1.1" id="Layer_1" xmlns="http://www.w3.org/2000/svg" xmlns:xlink="http://www.w3.org/1999/xlink" x="0px" y="0px"
	 viewBox="0 0 43 82" style="enable-background:new 0 0 43 82;" xml:space="preserve">
<style type="text/css">
	.st0{fill:none;stroke:#ffffff;stroke-width:2;stroke-linecap:round;stroke-linejoin:round;}
</style>
<path id="Fill-1" class="st0" d="M21,21c5.5,0,10-4.5,10-10S26.5,1,21,1S11,5.5,11,11S15.5,21,21,21"/>
<path id="Fill-4" class="st0" d="M41.2,47.3c-0.6-7.8-2-13.3-4.6-17.3c-3.2-5.1-8.2-7.8-14.8-7.9c-0.2,0-0.4,0-0.6,0
	c-0.2,0-0.4,0-0.6,0C14,22.3,9.1,24.9,5.8,30.1c-2.5,4-4,9.5-4.6,17.3c-0.1,1.8,1.4,3.4,3.4,3.5c0.1,0,0.2,0,0.2,0
	c1.9,0,3.5-1.3,3.6-3c0.3-4.4,2.5-10.6,3.4-13.4l-0.9,11.9c0,0.2,0,0.3,0,0.5L7.9,76.8c0,2.3,2.1,4.2,4.6,4.2c2.5,0,4.4-1.9,4.4-4.1
	l2.5-24.3c0-0.9,0.8-1.6,1.8-1.6h0c0,0,0,0,0.1,0c1,0,1.8,0.7,1.8,1.6l2.5,24.2c0,2.3,2.1,4.2,4.6,4.2c2.5,0,4.4-1.9,4.4-4.1
	l-3.1-31c0-0.2,0-0.3,0-0.5l-0.7-11.6c1,2.8,2.9,9.5,3.2,14c0.1,1.7,1.7,3,3.6,3c0.1,0,0.2,0,0.2,0C39.9,50.7,41.4,49.1,41.2,47.3"
	/>
</svg>
