<?xml version="1.0" encoding="utf-8"?>
<!-- Generator: Adobe Illustrator 24.0.1, SVG Export Plug-In . SVG Version: 6.00 Build 0)  -->
<svg fill="white" version="1.1" id="Layer_1" xmlns="http://www.w3.org/2000/svg" xmlns:xlink="http://www.w3.org/1999/xlink" x="0px" y="0px"
	 viewBox="0 0 72 16" style="enable-background:new 0 0 72 16;" xml:space="preserve">
<style type="text/css">
	.st0{fill-rule:evenodd;clip-rule:evenodd;}
</style>
<path id="EyebrowIcon" class="st0" d="M5.4,3.6c5.6-1,11.2-1.8,16.9-2.5C28,0.5,33.7,0,39.5,0c2.9,0,5.8,0.1,8.8,0.4
	c2.9,0.3,6.2,1,8.9,2.1c5.6,2.3,10.2,5.6,14.4,9.4c0.6,0.5,0.6,1.4,0.1,1.9c-0.5,0.5-1.3,0.6-1.9,0.2L69.7,14
	c-4.4-2.9-9.3-5.4-14.2-6.6c-2.5-0.6-4.8-0.7-7.4-0.6c-2.6,0.1-5.2,0.4-7.9,0.8c-5.3,0.8-10.5,2-15.8,3.4c-5.2,1.4-10.4,3-15.6,4.7
	c-3.4,1.1-7.2-0.6-8.4-3.8s0.6-6.8,4-8C4.7,3.7,5,3.6,5.4,3.6L5.4,3.6z"/>
</svg>
