<?xml version="1.0" encoding="utf-8"?>
<!-- Generator: Adobe Illustrator 24.0.1, SVG Export Plug-In . SVG Version: 6.00 Build 0)  -->
<svg fill="white" version="1.1" id="Layer_1" xmlns="http://www.w3.org/2000/svg" xmlns:xlink="http://www.w3.org/1999/xlink" x="0px" y="0px"
	 viewBox="0 0 72 51" style="enable-background:new 0 0 72 51;" xml:space="preserve">
<style type="text/css">
	.st0{fill:none;stroke:#ffffff;stroke-width:1.7689;stroke-linecap:round;stroke-linejoin:round;}
	.st1{fill-rule:evenodd;clip-rule:evenodd;}
</style>
<path id="Stroke-1" class="st0" d="M31.4,11.7c-8,0-14.9,2.4-20.7,7.1C6,22.6,3.2,27.1,1.6,30.2C1,31.5,1,32.9,1.7,34.1
	c1.7,2.7,4.6,6.6,9.4,9.9c5.8,4,12.6,6.1,20.3,6.1S46,48,51.8,44c4.7-3.3,7.7-7.2,9.4-9.9c0.7-1.2,0.8-2.6,0.2-3.8
	c-1.6-3.1-4.4-7.6-9.1-11.5C46.4,14.1,39.4,11.7,31.4,11.7z"/>
<path id="Fill-3" class="st1" d="M28.5,34.6c-3.8,0-6.8-3-6.8-6.7s3.1-6.7,6.8-6.7s6.8,3,6.8,6.7S32.2,34.6,28.5,34.6 M31.4,16.4
	c-8.1,0-14.7,6.5-14.7,14.5c0,8,6.6,14.5,14.7,14.5s14.7-6.5,14.7-14.5C46.2,22.9,39.6,16.4,31.4,16.4"/>
<path id="Stroke-5" class="st0" d="M36.3,1.2c-3.8,6.3-9.7,10.6-9.7,10.6"/>
<path id="Stroke-7" class="st0" d="M50.5,1.2c-3.7,6.3-12,10.6-12,10.6"/>
<path id="Stroke-9" class="st0" d="M62.4,7.4C57.7,13,48.8,16,48.8,16"/>
<path id="Stroke-11" class="st0" d="M70.8,15.2c-5.1,5.3-14.2,7.5-14.2,7.5"/>
</svg>
