<?xml version="1.0" encoding="utf-8"?>
<!-- Generator: Adobe Illustrator 24.0.1, SVG Export Plug-In . SVG Version: 6.00 Build 0)  -->
<svg fill="white" version="1.1" id="Layer_1" xmlns="http://www.w3.org/2000/svg" xmlns:xlink="http://www.w3.org/1999/xlink" x="0px" y="0px"
	 viewBox="0 0 72 27" style="enable-background:new 0 0 72 27;" xml:space="preserve">
<style type="text/css">
	.st0{fill:none;stroke:#ffffff;stroke-width:1.7107;stroke-linecap:round;stroke-linejoin:round;}
	.st1{fill-rule:evenodd;clip-rule:evenodd;}
	.st2{fill:none;stroke:#ffffff;stroke-width:1.1;stroke-linecap:round;stroke-linejoin:round;}
</style>
<path id="Stroke-1" class="st0" d="M31.9,12.5c-0.8,7.9-7.5,13.6-15.1,12.8C9.3,24.5,4.5,18.1,4.5,9.6c0-8.5,7.1-9.1,14.7-8.3
	C26.8,2.1,32.7,4.6,31.9,12.5z"/>
<path id="Stroke-3" class="st0" d="M39.6,12.5c0.8,7.9,7.5,13.6,15.1,12.8c7.6-0.8,12.3-7.2,12.3-15.7c0-8.5-7.1-9.1-14.7-8.3
	C44.7,2.1,38.8,4.6,39.6,12.5z"/>
<path id="Fill-5" class="st1" d="M39.1,9.3L39.1,9.3C37,7.1,34.7,7,32.6,9.1l-0.2,0.2l-2.6-3.7h11.9L39.1,9.3"/>
<path id="Stroke-7" class="st2" d="M39.1,9.3L39.1,9.3C37,7.1,34.7,7,32.6,9.1l-0.2,0.2l-2.6-3.7h11.9L39.1,9.3"/>
<path id="Combined-Shape" class="st1" d="M0.9,0.7c2.3-1.2,14.5-0.6,14.5-0.6s-5,0.9-8.1,2.7c-3.1,1.8-1.9,5-1.9,5s-0.6,8.2-1.1,6.7
	c-0.5-1.5-0.8-7-1.8-7.6c-0.9-0.5-1.7-0.4-2-0.8C-0.2,5-0.2,1.3,0.9,0.7z M4.5,2.6C4,2,3,2,2.5,2.6s-0.6,1.5,0,2.1s1.5,0.6,2.1,0
	S5.1,3.2,4.5,2.6z"/>
<path id="Combined-Shape_1_" class="st1" d="M70.6,0.7C71.7,1.3,71.7,5,71,6.1c-0.3,0.4-1.1,0.3-2,0.8c-1,0.6-1.3,6.1-1.8,7.6
	c-0.5,1.5-1.1-6.7-1.1-6.7s1.3-3.2-1.9-5c-3.1-1.8-8.1-2.7-8.1-2.7S68.3-0.4,70.6,0.7z M67,2.6c-0.6,0.6-0.6,1.5,0,2.1
	c0.6,0.6,1.5,0.6,2.1,0c0.6-0.6,0.6-1.5,0-2.1C68.5,2,67.6,2,67,2.6z"/>
<path id="Fill-19" class="st1" d="M28.9,3.3c0,0,2.1,1.9,4.6,1.9h-2.9L28.9,3.3z"/>
<path id="Fill-21" class="st1" d="M42.6,3.3c0,0-2.1,1.9-4.6,1.9h2.9L42.6,3.3z"/>
<path id="Fill-23" class="st1" d="M32.8,11.4c0.1-0.7,0.3-2.5,1.3-3.1c1.1-0.6-1.8,1-1.8,1L32.8,11.4z"/>
<path id="Fill-25" class="st1" d="M38.7,11.4c-0.1-0.7-0.3-2.5-1.3-3.1c-1.1-0.6,1.8,1,1.8,1L38.7,11.4z"/>
</svg>
