<?xml version="1.0" encoding="utf-8"?>
<!-- Generator: Adobe Illustrator 24.0.1, SVG Export Plug-In . SVG Version: 6.00 Build 0)  -->
<svg fill="white" version="1.1" id="Layer_1" xmlns="http://www.w3.org/2000/svg" xmlns:xlink="http://www.w3.org/1999/xlink" x="0px" y="0px"
	 viewBox="0 0 76 38" style="enable-background:new 0 0 76 38;" xml:space="preserve">
<style type="text/css">
	.st0{fill:none;stroke:#ffffff;stroke-width:1.683;stroke-linecap:round;stroke-linejoin:round;}
</style>
<path id="Stroke-1" class="st0" d="M2.2,27.2C1.9,23.3,1.1,20,1,16.2c0-2.2,1-4.3,2.2-6.3c0.3-0.4,0.5-0.8,0.6-1.2
	c0.1-1.1-0.2-1.8-0.3-3.2C3.3,2.8,5.4,2.3,6.8,3.3c1,0.7,1.2,2,2,2.8c0.7,0.7,1.8,0.9,2.8,1.1c5.7,1,11.4,1.7,17.2,2.1
	c-0.5-1.6-1.4-3.2-1.3-4.9c0.1-1.2,1-2.5,2.3-2.7c1.6-0.3,3,0.7,4.3,1.6c5.3,3.9,11.8,6.5,18.6,7.4c0,0,1.1,0.2,2.3,0.3
	c18.4,0.8,24.3,21.7,14.3,23.9c-11.7,2.6-60.1,1.8-65.8,0c-3.3-1-2.3-2.8-2.5-4.2c-0.3-1.3,0-2.9,1.3-3.6"/>
<path id="Stroke-3" class="st0" d="M2.9,27.1c13.6,1.5,27.2,2.3,40.9,2.4c10.3,0,20.6-0.4,30.5-3.5"/>
<path id="Stroke-5" class="st0" d="M45.6,9.7c-1.6,0.9-2.8,2.4-3.3,4"/>
<path id="Stroke-7" class="st0" d="M52,10.9c-1.8,1.8-3.1,3.8-3.7,5.7"/>
<path id="Stroke-9" class="st0" d="M62.7,13.7c-2,1-3.2,2.9-4.1,5c-1.2,2.8-1.9,6-1.6,9.1"/>
<path id="Stroke-11" class="st0" d="M29.9,9.4c8.4,5.9,18.7,9,28.9,8.7"/>
<path id="Stroke-13" class="st0" d="M2.9,15.5c4.7,1.4,9.5,2,14.4,2c1.7,0,3.7,0,4.7,1.3c0.8,1,0.9,2.5,2,3.1c1,0.5,2.1-0.1,3.1-0.5
	c1-0.5,2.2-0.9,3.1-0.2c0.3,0.2,0.5,0.6,0.8,0.8c0.7,0.6,1.8,0.6,2.7,0.2c0.8-0.4,1.5-1.2,2.1-1.9"/>
</svg>
