<svg width="21" height="26" viewBox="0 0 21 26" fill="none" xmlns="http://www.w3.org/2000/svg">
<path d="M18.4792 21H6.52085C6.23319 21 6 21.3596 6 21.8033V25.1967C6 25.6404 6.23319 26 6.52085 26H18.4792C18.7668 26 19 25.6404 19 25.1967V21.8033C19 21.3596 18.7668 21 18.4792 21Z" fill="white"/>
<path d="M12.3484 0C6.30243 0 4.54584 1.38894 4.54584 6.17872C4.54584 6.18894 4.54584 6.19915 4.54584 6.20936C4.54584 9.79404 5.59775 11.6119 7.68116 11.6119C8.09988 11.6119 8.44711 11.9591 8.44711 12.3779C8.44711 12.7966 8.09988 13.1438 7.68116 13.1438C6.10839 13.1438 3.58584 12.4085 3.09563 7.83319C3.02414 7.18979 2.40116 6.70979 1.77818 6.8834C1.6352 6.92425 1.49222 6.97532 1.35946 7.0366C0.961158 7.22043 0.440306 7.58809 0.215626 8.25191C-0.437991 10.1821 0.164562 16.1464 5.27094 19.1898C5.44456 19.2919 5.6386 19.343 5.84286 19.343H18.2207C18.6599 19.343 19.048 19.0877 19.2216 18.6894C19.9978 16.8409 20.9475 13.3174 20.9475 8.50723C20.9271 1.2766 18.1595 0 12.3484 0Z" fill="white"/>
</svg>
