<svg width="18" height="18" viewBox="0 0 18 18" fill="none" xmlns="http://www.w3.org/2000/svg">
<path d="M11.6172 10.329C11.6189 10.3418 11.6208 10.3563 11.6227 10.3734L11.6222 10.3745C11.6309 10.3638 11.6384 10.3548 11.645 10.3468C11.6594 10.3295 11.6695 10.3174 11.6786 10.3044C11.7598 10.1905 11.8408 10.0765 11.9218 9.96243C11.9459 9.93819 11.9664 9.90964 11.9821 9.87756C12.1863 9.58996 12.3906 9.30243 12.5966 9.01658C12.7342 8.82637 12.9201 8.71321 13.147 8.68843C13.4196 8.65825 13.6558 8.73153 13.8309 8.97132C14.0378 9.25476 14.0578 9.64542 13.8745 9.96496C13.8119 10.0738 13.7457 10.1805 13.6794 10.2872C13.5916 10.4291 13.5039 10.5711 13.4162 10.7131C13.1589 11.1296 12.9017 11.546 12.6413 11.9603C12.4636 12.2432 12.283 12.5244 12.1025 12.8055C11.9822 12.993 11.8618 13.1804 11.7423 13.3683C11.4907 13.7639 11.1745 14.0904 10.7956 14.3512C10.2868 14.7015 9.72099 14.8847 9.1244 14.9644C8.89487 14.9958 8.66123 14.9973 8.42862 14.9989C8.4016 14.999 8.37459 14.9992 8.3476 14.9994C8.12016 15.0011 7.89118 15.001 7.66579 14.973C7.38136 14.9375 7.10206 14.8636 6.83303 14.7543C6.21025 14.5015 5.72816 14.0785 5.40214 13.4632C5.21731 13.1145 5.09409 12.7427 5.04275 12.3483C5.02209 12.1911 5.022 12.0309 5.0219 11.8715C5.02188 11.8407 5.02186 11.81 5.0217 11.7793C5.01677 10.8324 5.01316 9.88522 5.00955 8.93823C5.00864 8.70066 5.00774 8.46309 5.00681 8.22555C5.00605 8.03519 5.00508 7.84478 5.0041 7.65434C5.00176 7.19682 4.99941 6.7391 5.00013 6.28138C5.00054 6.05981 5.00884 5.83823 5.01714 5.61665C5.01921 5.56126 5.02129 5.50587 5.02324 5.45048C5.02478 5.39767 5.02734 5.34001 5.04737 5.29313C5.22142 4.88522 5.64447 4.71225 6.01362 4.97252C6.1738 5.08514 6.28778 5.24356 6.3037 5.44778C6.31987 5.65195 6.31953 5.85777 6.3192 6.06307C6.31915 6.09239 6.3191 6.12169 6.3191 6.15098C6.3202 6.70637 6.31999 7.26204 6.31978 7.81758C6.3197 8.03982 6.31961 8.26203 6.31961 8.4842C6.31961 8.49094 6.31955 8.49769 6.31948 8.50442C6.31929 8.5246 6.3191 8.54469 6.32064 8.56449C6.32834 8.65609 6.43513 8.75686 6.52755 8.76117C6.62458 8.76548 6.71238 8.69543 6.73137 8.59467C6.73959 8.55156 6.74523 8.50629 6.74626 8.46211C6.7484 8.35398 6.75077 8.2459 6.75315 8.13784C6.75992 7.83015 6.76668 7.52268 6.76782 7.21521C6.77091 6.20271 6.77193 5.19021 6.76628 4.17771C6.76526 3.99289 6.81814 3.83662 6.9275 3.70514C7.06663 3.5381 7.24889 3.43787 7.46453 3.46859C7.81108 3.51762 8.06266 3.73747 8.06882 4.16963C8.07008 4.26725 8.07177 4.36493 8.07347 4.46263C8.07662 4.6443 8.07978 4.82603 8.08011 5.00754C8.08126 5.57753 8.0816 6.14751 8.08195 6.71749C8.08223 7.17348 8.08251 7.62946 8.0832 8.08545C8.0832 8.24818 8.26084 8.35003 8.39638 8.26974C8.48007 8.22016 8.51087 8.14742 8.51087 8.04827C8.51067 7.95302 8.51044 7.85775 8.51022 7.76248C8.50876 7.14258 8.50731 6.52237 8.51087 5.90257C8.51549 5.15197 8.52011 4.40132 8.53654 3.65072C8.54527 3.24443 8.91082 2.94536 9.29229 3.00841C9.54746 3.05044 9.83292 3.33064 9.8247 3.65126C9.81758 3.92707 9.82229 4.2031 9.82701 4.4792C9.82977 4.64111 9.83254 4.80304 9.83292 4.96497C9.8343 5.43447 9.83464 5.90381 9.83498 6.37316C9.83527 6.7754 9.83556 7.17765 9.83651 7.58001C9.83702 7.7519 9.83959 7.92434 9.85294 8.09569C9.86269 8.22178 9.96384 8.3053 10.0742 8.2983C10.1913 8.29075 10.2734 8.20184 10.2801 8.07467C10.2816 8.04127 10.2816 8.00732 10.2816 7.97391C10.2842 6.84987 10.2868 5.72529 10.2888 4.60125C10.2888 4.51827 10.3032 4.44121 10.334 4.362C10.4536 4.05539 10.8351 3.85333 11.1339 3.95301C11.3726 4.03276 11.6021 4.36469 11.5991 4.56622C11.5928 4.95743 11.5953 5.34863 11.5977 5.73983C11.5987 5.89394 11.5997 6.04806 11.6001 6.20217C11.6029 7.261 11.606 8.32016 11.6092 9.37913C11.1662 9.29295 10.5562 9.28187 9.97243 9.49725C9.28926 9.74928 8.656 10.3085 8.38552 11.3615C8.34148 11.533 8.43844 11.7093 8.60207 11.7555C8.7657 11.8016 8.93404 11.7 8.97807 11.5286C9.19196 10.6959 9.66869 10.2909 10.1763 10.1036C10.6909 9.91376 11.2502 9.9454 11.6112 10.0365C11.6114 10.1149 11.6117 10.1932 11.6119 10.2716C11.6119 10.2891 11.6142 10.3064 11.6172 10.329Z" fill="#FCFCFC"/>
</svg>
