<?xml version="1.0" encoding="utf-8"?>
<!-- Generator: Adobe Illustrator 24.0.1, SVG Export Plug-In . SVG Version: 6.00 Build 0)  -->
<svg fill="white" version="1.1" id="Layer_1" xmlns="http://www.w3.org/2000/svg" xmlns:xlink="http://www.w3.org/1999/xlink" x="0px" y="0px"
	 viewBox="0 0 57 47" style="enable-background:new 0 0 57 47;" xml:space="preserve">
<style type="text/css">
	.st0{fill:none;stroke:#ffffff;stroke-width:1.2035;stroke-linecap:round;stroke-linejoin:round;}
	.st1{fill-rule:evenodd;clip-rule:evenodd;}
	.st2{fill:none;}
	.st3{fill:none;stroke:#ffffff;stroke-width:1.283;stroke-linecap:round;stroke-linejoin:round;}
</style>
<path id="Combined-Shape" class="st0" d="M5.8,22c0,4.7,0,8,0.8,10.8c-2.8-0.2-5-2.5-5-5.3v-3.6c0-2.6,1.9-4.8,4.5-5.2
	C5.9,19.7,5.8,20.8,5.8,22z"/>
<path id="Combined-Shape_1_" class="st0" d="M52.2,18.7c2.3,0.6,4.1,2.7,4.1,5.2l0,0v3.6c0,2.7-2,4.9-4.6,5.3
	c0.8-2.8,0.8-6,0.8-10.7c0-1-0.1-2.1-0.2-3.1L52.2,18.7z"/>
<path id="Fill-13-Copy" class="st0" d="M29.5,0.7L29.5,0.7c-0.1,0-0.2,0-0.4,0c-0.1,0-0.2,0-0.4,0v0C16,1,5.8,10.4,5.8,22
	c0,6.7,0.1,10.5,2.3,14.2c4.3,7,12.9,9.3,20.6,9.5v0c0.1,0,0.3,0,0.4,0c0.1,0,0.3,0,0.4,0v0c7.7-0.2,16.3-2.4,20.6-9.5
	c2.2-3.7,2.3-7.4,2.3-14.2C52.5,10.4,42.2,1,29.5,0.7"/>
<path id="Combined-Shape_2_" class="st1" d="M29.1,13.5c9.7,0,17.6,3.1,17.6,12.7s-7.9,13.1-17.6,13.1c-9.7,0-17.6-3.5-17.6-13.1
	S19.4,13.5,29.1,13.5z M29.1,15.1c-6.8,0-12.4,1.2-12.4,5s5.5,5.2,12.4,5.2s12.4-1.4,12.4-5.2S35.9,15.1,29.1,15.1z"/>
<line id="Fill-19" class="st2" x1="23.1" y1="2" x2="23.1" y2="14.7"/>
<line id="Stroke-21" class="st3" x1="23.1" y1="2" x2="23.1" y2="14.7"/>
<line id="Fill-23" class="st2" x1="35.4" y1="1.8" x2="35.4" y2="15.8"/>
<line id="Stroke-25" class="st3" x1="35.4" y1="2.1" x2="35.4" y2="14.8"/>
<path id="Combined-Shape_3_" class="st1" d="M29.1,40.5c0.5,0,0.9,0.4,0.9,0.9V43c0,0.4-0.3,0.8-0.8,0.9l-0.1,0
	c-0.5,0-0.9-0.4-0.9-0.9v-1.6C28.2,40.9,28.6,40.5,29.1,40.5z M26.3,40.5c0.5,0,0.8,0.4,0.8,0.8v1.1c0,0.5-0.4,0.8-0.8,0.8h-0.1
	c-0.5,0-0.8-0.4-0.8-0.8v-1.1C25.3,40.8,25.7,40.5,26.3,40.5L26.3,40.5z M32.1,40.5c0.5,0,0.8,0.4,0.8,0.8v1.1
	c0,0.5-0.4,0.8-0.8,0.8H32c-0.5,0-0.8-0.4-0.8-0.8v-1.1C31.1,40.8,31.5,40.5,32.1,40.5L32.1,40.5z"/>
</svg>
