<?xml version="1.0" encoding="utf-8"?>
<!-- Generator: Adobe Illustrator 24.0.1, SVG Export Plug-In . SVG Version: 6.00 Build 0)  -->
<svg fill="white" version="1.1" id="Layer_1" xmlns="http://www.w3.org/2000/svg" xmlns:xlink="http://www.w3.org/1999/xlink" x="0px" y="0px"
	 viewBox="0 0 50 59" style="enable-background:new 0 0 50 59;" xml:space="preserve">
<style type="text/css">
	.st0{fill:none;stroke:#ffffff;stroke-width:1.5147;stroke-linecap:round;stroke-linejoin:round;}
	.st1{fill-rule:evenodd;clip-rule:evenodd;}
</style>
<path id="Stroke-1" class="st0" d="M16.4,6.1c-4.4,0.1-8,0.4-9.6,0.7c0,0-0.1,0-0.1,0c0.1,2.1,0.2,3.9,0.2,3.9S6.7,12,6.4,14.1
	c0.1,0,0.1-0.1,0.2-0.1"/>
<path id="Fill-3" class="st1" d="M43.8,6.1c0-1.8-0.1-3.6-0.8-4.1c-1.5-0.9-34.7-0.8-35.7,0C6.9,2.5,6.8,4.3,6.8,6.1
	C12.4,5.2,37.9,5.2,43.8,6.1"/>
<path id="Stroke-5" class="st0" d="M43.8,6.1c0-1.8-0.1-3.6-0.8-4.1c-1.5-0.9-34.7-0.8-35.7,0C6.9,2.5,6.8,4.3,6.8,6.1
	C12.4,5.2,37.9,5.2,43.8,6.1z"/>
<path id="Stroke-7" class="st0" d="M43.8,14C43.8,14,43.8,14,43.8,14c-3.4-0.2-9-2.4-9.9-7.7c0-0.1,0-0.1,0-0.2
	c-1.2,0-2.5,0-3.8-0.1"/>
<path id="Stroke-9" class="st0" d="M27.7,6.1c-3.8,0-7.7,0-11.1,0.1c0,0.1,0,0.1,0,0.2c-0.8,5.4-6.6,7.7-10,7.9c0,0,0,0,0,0
	c-0.1,0-0.3,0-0.4-0.1C4.6,24.9,0.4,53.8,1.1,55.1c0.8,1.6,12.6,3.3,16.1,2.8c1.2-1.7,7.6-35.6,7.6-35.6s7,34.9,8,35.6
	c1.4,1,15.8-1,16.3-2.8c0.5-1.8-5.8-44.8-5.8-44.8s0.2-1.6,0.3-3.4c0,0-0.1,0-0.1,0c-1.6-0.3-5-0.5-9.2-0.6"/>
<polyline id="Stroke-11" class="st0" points="28.4,6.7 28.4,14.1 25,16.2 "/>
</svg>
