<?xml version="1.0" encoding="utf-8"?>
<!-- Generator: Adobe Illustrator 24.0.1, SVG Export Plug-In . SVG Version: 6.00 Build 0)  -->
<svg fill="white" version="1.1" id="Layer_1" xmlns="http://www.w3.org/2000/svg" xmlns:xlink="http://www.w3.org/1999/xlink" x="0px" y="0px"
	 viewBox="0 0 88 37" style="enable-background:new 0 0 88 37;" xml:space="preserve">
<style type="text/css">
	.st0{fill:none;stroke:#ffffff;stroke-width:1.584;stroke-linecap:round;stroke-linejoin:round;}
	.st1{fill-rule:evenodd;clip-rule:evenodd;}
</style>
<path id="Stroke-1" class="st0" d="M52.5,26c-1.8-0.6-2.4-2.9-1.2-4.4c2.2-2.8,6.8-5.7,12.7-2.9C66.6,20,59.6,28.6,52.5,26z
	 M23.3,18.8c8.4-4,14.1,3.5,14.1,5.7C29.5,30.8,20.3,20.2,23.3,18.8z M74.6,14.4c-1.6-1.9-6.9-5.3-14.8-6.3
	c-4.1-0.5-7.5,1.2-12.8,2.7c-2.1,0.6-4.3,0.6-6.3,0c-5.3-1.5-8.6-3.2-12.8-2.7c-7.9,1-13.3,4.3-14.8,6.3c-1.6,1.9,4.9,20.1,14,20.9
	c11,0.8,12.8-8.4,16.6-8.4c0,0,0.1,0,0.1,0c0,0,0.1,0,0.1,0c3.9,0,5.6,9.2,16.6,8.4C69,34.6,76.2,16.3,74.6,14.4z"/>
<path id="Fill-3" class="st1" d="M18.8,9.2c-2.4-5.7-8.3-9.1-14.3-8.3C4.1,1,3.8,1.4,3.9,1.9C4.5,5.2,6,8.2,8.5,10.4
	c2.1,1.9,5.3,3.7,8,2.1c0.9-0.5,0.2-2-0.7-1.5c-2.5,1.5-5.8-1.2-7.4-3.1c-1.6-1.8-2.5-4-2.9-6.4C5.3,1.9,5,2.2,4.8,2.5
	c5.3-0.7,10.4,2.4,12.6,7.5C17.8,10.9,19.2,10.2,18.8,9.2"/>
<path id="Fill-5" class="st1" d="M14.4,12.7c-5-2.2-10.7-0.9-14.1,3.4c-0.3,0.4-0.3,1,0.2,1.3c4,2.5,8.1,3.8,12.3,0.9
	c0.8-0.6,0-2-0.8-1.4C8.2,19.5,4.7,18.1,1.2,16c0.1,0.4,0.1,0.9,0.2,1.3c3-3.7,7.9-5,12.2-3.1C14.5,14.5,15.3,13.1,14.4,12.7"/>
<path id="Fill-7" class="st1" d="M12.6,17.2c-3.4,1.4-6,4.4-6.7,8.2c-0.1,0.4,0.1,0.9,0.6,1c3.3,0.5,6.4-1,8-4
	c0.5-0.9-0.9-1.7-1.4-0.8c-1.3,2.3-3.7,3.6-6.3,3.2c0.2,0.3,0.4,0.7,0.6,1c0.6-3.2,2.7-5.8,5.6-7C13.9,18.4,13.5,16.8,12.6,17.2"/>
<path id="Fill-9" class="st1" d="M70.5,10c2.1-5,7.2-8.1,12.6-7.5c-0.2-0.3-0.4-0.6-0.6-1c-0.4,2.4-1.3,4.6-2.9,6.4
	c-1.6,1.9-4.9,4.6-7.4,3.1c-0.9-0.5-1.6,0.9-0.7,1.5c2.7,1.6,5.9-0.2,8-2.1c2.5-2.2,4-5.2,4.6-8.5c0.1-0.4-0.2-0.9-0.6-1
	c-6-0.8-11.9,2.6-14.3,8.3C68.7,10.2,70.1,10.9,70.5,10"/>
<path id="Fill-12" class="st1" d="M74.3,14.1c4.3-1.9,9.2-0.5,12.2,3.1c0.1-0.4,0.1-0.9,0.2-1.3c-3.5,2.2-7,3.5-10.7,0.9
	c-0.8-0.6-1.6,0.8-0.8,1.4c4.2,2.9,8.3,1.6,12.3-0.9c0.5-0.3,0.5-0.9,0.2-1.3c-3.5-4.3-9.2-5.6-14.1-3.4
	C72.5,13.1,73.4,14.5,74.3,14.1"/>
<path id="Fill-14" class="st1" d="M74.9,18.8c2.9,1.2,5,3.9,5.6,7c0.2-0.3,0.4-0.7,0.6-1c-2.6,0.4-5-1-6.3-3.2
	c-0.5-0.9-1.9-0.1-1.4,0.8c1.7,3,4.8,4.4,8,4c0.4-0.1,0.6-0.6,0.6-1c-0.8-3.8-3.3-6.7-6.7-8.2C74.3,16.8,73.9,18.4,74.9,18.8"/>
</svg>
