<?xml version="1.0" encoding="utf-8"?>
<!-- Generator: Adobe Illustrator 24.0.1, SVG Export Plug-In . SVG Version: 6.00 Build 0)  -->
<svg fill="white" version="1.1" id="Layer_1" xmlns="http://www.w3.org/2000/svg" xmlns:xlink="http://www.w3.org/1999/xlink" x="0px" y="0px"
	 viewBox="0 0 92 38" style="enable-background:new 0 0 92 38;" xml:space="preserve">
<style type="text/css">
	.st0{fill:none;stroke:#ffffff;stroke-width:2.2;stroke-linecap:round;stroke-linejoin:round;}
</style>
<path id="Stroke-1" class="st0" d="M46,4.5c3.2-3.4,8.6-4.1,13.1-2.8c4.5,1.3,8.4,4.2,12.1,7c3,2.3,6.1,4.6,9.1,6.9
	c0.4,0.3,0.8,0.6,0.9,1c0.2,0.7-0.2,1.4-0.6,2C73.4,29,61.3,35.8,48.8,36.3h-5.9C30.3,35.8,18.2,29,11.1,18.6
	c-0.4-0.6-0.8-1.3-0.6-2c0.2-0.4,0.5-0.8,0.9-1c3-2.3,6.1-4.6,9.1-6.9c3.8-2.8,7.6-5.7,12.1-7c4.5-1.3,9.8-0.7,13.1,2.8"/>
<path id="Stroke-3" class="st0" d="M54.9,19.4c15.1-0.9,28.9-3.4,35.7-6.9"/>
<path id="Stroke-5" class="st0" d="M1.1,12.4c8.1,4.7,22.3,6.8,37.2,7.2"/>
<path id="Stroke-7" class="st0" d="M36.2,17.2c0,0,2.6,4.8,9.7,5c7-0.2,9.6-5,9.6-5"/>
</svg>
