<svg id="Layer_1" data-name="Layer 1" xmlns="http://www.w3.org/2000/svg" viewBox="0 0 24.46 39.6"><defs><style>.cls-1{fill:#ffffff;}</style></defs><path class="cls-1" d="M15.75,19.09a15,15,0,0,1,.66-10.58A2.21,2.21,0,0,0,16,5.85a37.52,37.52,0,0,1,5.24-2.44C21.32,1.33,19.16.27,18.06,0c-1,1.1-3.36,3.35-4.65,3.54a7.79,7.79,0,0,1-1.28,0,4.43,4.43,0,0,0-2.74.57c-6.46,4.15-7,10.11-3.91,19.11.1.29.22.56.34.83l.74,1.46a18.75,18.75,0,0,0,6,5.91l-1.22,1.28v3c-.71-.14-2.29.32-2.35,1.29h4.26l-.59-3.8L13.49,32c.55.33,2,1.13,2.61,1.41l-.9.94.05,3.51c-.94-.19-3,.42-3.12,1.71h5.65L17,35.05l.61-.91a17.93,17.93,0,0,0,4,1.25l2.76-1.62c.72-2.77-1.68-5.5-4.17-8.34a28.92,28.92,0,0,1-3.79-5M5.72,13.26A1.42,1.42,0,0,1,7,12c.58,0,.93.68.79,1.41a1.42,1.42,0,0,1-1.31,1.26C5.92,14.63,5.57,14,5.72,13.26Zm4.66,1.3A1.23,1.23,0,0,1,9.12,13.4,1.21,1.21,0,0,1,10,11.93a1.23,1.23,0,0,1,1.26,1.16A1.19,1.19,0,0,1,10.38,14.56Z" transform="translate(0)"/><path class="cls-1" d="M4,28.18a1.59,1.59,0,0,1-.43-.06C1.84,27.59.69,23.72,0,20.56a.74.74,0,0,1,.57-.89.73.73,0,0,1,.89.57c1,4.53,2.09,6.3,2.49,6.44l0-.06a10.71,10.71,0,0,0,2.06-3,.75.75,0,0,1,1.38.6,12.24,12.24,0,0,1-2.4,3.49A1.58,1.58,0,0,1,4,28.18Z" transform="translate(0)"/><path class="cls-1" d="M22.76,24.9a.75.75,0,0,1-.75-.68c-.2-2.13-.71-4.68-1.16-5.09s-4.05,1.31-5.56,2.08l-.25.13A.75.75,0,0,1,14.35,20l.26-.13c3.2-1.63,6-3.05,7.27-1.84,1.07,1,1.51,4.88,1.62,6a.75.75,0,0,1-.67.82Z" transform="translate(0)"/></svg>