<?xml version="1.0" encoding="utf-8"?>
<!-- Generator: Adobe Illustrator 24.0.1, SVG Export Plug-In . SVG Version: 6.00 Build 0)  -->
<svg fill="white" version="1.1" id="Layer_1" xmlns="http://www.w3.org/2000/svg" xmlns:xlink="http://www.w3.org/1999/xlink" x="0px" y="0px"
	 viewBox="0 0 74 27" style="enable-background:new 0 0 74 27;" xml:space="preserve">
<style type="text/css">
	.st0{fill-rule:evenodd;clip-rule:evenodd;}
	.st1{fill:none;stroke:#ffffff;stroke-width:1.5911;stroke-linecap:round;stroke-linejoin:round;}
</style>
<path id="Combined-Shape" class="st0" d="M48.8,9.6l-0.1,0.1c-0.1,0.1-0.2,0.2-0.4,0.3c-1.9,1.9-1.9,4.9,0,6.7c1.9,1.9,5,1.9,6.9,0
	c1.2-1.2,1.7-2.9,1.3-4.5c1.6,0.6,3.2,1.3,4.7,2c-1.1,0.1-2,0.8-2.5,1.8c-0.6,1.5,0.2,3.1,1.7,3.7c1.5,0.6,3.2-0.2,3.8-1.6
	c0.3-0.9,0.2-1.8-0.3-2.6c2.7,1.3,5.4,2.8,8.1,4.4c0.9,0.5,1.4,2.4,1.1,4.1c-0.3,1.7-1.1,2.7-2,2.3l0,0c-5.5-2.4-11.1-4.3-16.7-5.7
	c-5.6-1.4-11.2-2.2-16.7-1.9h0c-0.4,0-0.8-0.1-1.2-0.4c-0.3,0.3-0.6,0.4-1,0.4c-0.1,0-0.1,0-0.2,0h0c-5.5-0.3-11.1,0.5-16.7,1.9
	C13.2,22.1,7.6,24,2.1,26.4l0,0c-0.9,0.4-1.8-0.7-2-2.5c-0.2-1.7,0.3-3.4,1.2-3.9c3.3-1.9,6.6-3.7,9.9-5.2C10,15.5,9.5,17,10,18.2
	c0.6,1.5,2.3,2.2,3.8,1.6c1.5-0.6,2.3-2.2,1.7-3.7s-2.3-2.2-3.8-1.6l0.2-0.1c2-0.9,4-1.8,6-2.6c-0.6,1.7-0.2,3.5,1.2,4.9
	c1.9,1.9,5,1.9,6.9,0c1.9-1.9,1.9-4.9,0-6.7c-0.2-0.2-0.5-0.4-0.8-0.6c1.9-0.5,3.8-1,5.8-1.4l-1.3,2.2c-0.6,1.1-0.4,2.4,0.5,3.3l0,0
	l4,3.8c1.1,1.1,3,1.1,4.1,0l0,0l4-3.8c0.9-0.9,1.1-2.2,0.5-3.3l0,0l-1.4-2.4C43.8,8.2,46.3,8.8,48.8,9.6z"/>
<path id="Stroke-9-Copy" class="st1" d="M34.1,17.4l-4-3.8c-0.9-0.9-1.1-2.2-0.5-3.3L34.4,2c0.8-1.3,2.7-1.3,3.5,0l4.7,8.3
	c0.6,1.1,0.4,2.4-0.5,3.3l-4,3.8C37.1,18.4,35.2,18.4,34.1,17.4z"/>
<path id="Stroke-13-Copy" class="st1" d="M25.9,16.8c-1.9,1.9-5,1.9-6.9,0c-1.9-1.9-1.9-4.9,0-6.7c1.9-1.9,5-1.9,6.9,0
	C27.8,11.9,27.8,14.9,25.9,16.8z"/>
<path id="Stroke-17-Copy" class="st1" d="M10,18.2c-0.6-1.5,0.2-3.1,1.7-3.7c1.5-0.6,3.2,0.2,3.8,1.6s-0.2,3.1-1.7,3.7
	C12.2,20.4,10.5,19.7,10,18.2z"/>
<path id="Stroke-21-Copy" class="st1" d="M48.3,16.8c1.9,1.9,5,1.9,6.9,0c1.9-1.9,1.9-4.9,0-6.7c-1.9-1.9-5-1.9-6.9,0
	C46.4,11.9,46.4,14.9,48.3,16.8z"/>
<path id="Stroke-25-Copy" class="st1" d="M64.3,18.2c0.6-1.5-0.2-3.1-1.7-3.7c-1.5-0.6-3.2,0.2-3.8,1.6s0.2,3.1,1.7,3.7
	C62,20.4,63.7,19.7,64.3,18.2z"/>
</svg>
