<?xml version="1.0" encoding="utf-8"?>
<!-- Generator: Adobe Illustrator 24.0.1, SVG Export Plug-In . SVG Version: 6.00 Build 0)  -->
<svg fill="white" version="1.1" id="Layer_1" xmlns="http://www.w3.org/2000/svg" xmlns:xlink="http://www.w3.org/1999/xlink" x="0px" y="0px"
	 viewBox="0 0 55 24" style="enable-background:new 0 0 55 24;" xml:space="preserve">
<style type="text/css">
	.st0{fill-rule:evenodd;clip-rule:evenodd;}
	.st1{fill:none;stroke:#ffffff;stroke-width:1.6284;}
</style>
<path id="Fill-1" class="st0" d="M10.8,16.9l-6.3,3.6c-1.4-1.7-1.8-8-2-11.7C2.5,7.3,3.9,6.1,5.3,6.6c3.3,1,8.9,3.3,13.2,8.1
	l5.1-1.2C16.8,5.4,7.4,2.1,3.1,0.9C1.9,0.6,0.8,1.5,0.8,2.8c0.1,4.9,0.7,15.8,2.8,18.5l7.5-4.4L10.8,16.9z"/>
<path id="Stroke-3" class="st1" d="M10.8,16.9l-6.3,3.6c-1.4-1.7-1.8-8-2-11.7C2.5,7.3,3.9,6.1,5.3,6.6c3.3,1,8.9,3.3,13.2,8.1
	l5.1-1.2C16.8,5.4,7.4,2.1,3.1,0.9C1.9,0.6,0.8,1.5,0.8,2.8c0.1,4.9,0.7,15.8,2.8,18.5l7.5-4.4L10.8,16.9z"/>
<path id="Fill-5" class="st0" d="M51.6,0.9c-4.3,1.2-13.7,4.5-20.5,12.6l5.1,1.2c4.3-4.8,9.9-7.1,13.2-8.1c1.4-0.4,2.8,0.7,2.8,2.2
	c-0.1,3.8-0.6,10-2,11.7l-6.3-3.6l-0.2-0.1l7.5,4.4c2.1-2.7,2.6-13.5,2.8-18.5C53.9,1.5,52.8,0.6,51.6,0.9"/>
<path id="Stroke-7" class="st1" d="M51.6,0.9c-4.3,1.2-13.7,4.5-20.5,12.6l5.1,1.2c4.3-4.8,9.9-7.1,13.2-8.1
	c1.4-0.4,2.8,0.7,2.8,2.2c-0.1,3.8-0.6,10-2,11.7l-6.3-3.6l-0.2-0.1l7.5,4.4c2.1-2.7,2.6-13.5,2.8-18.5C53.9,1.5,52.8,0.6,51.6,0.9z
	"/>
<path id="Fill-9" class="st0" d="M1.1,22.5c3.4-3.7,7.5-6.2,12-8.1c4.5-1.9,9.3-2.8,14.1-2.8c4.8,0.1,9.6,1,14.1,2.9
	c4.5,1.9,8.6,4.4,12,8c0.3,0.4,0.3,0.9,0,1.3c-0.3,0.3-0.8,0.4-1.1,0.1l-0.1,0c-1.8-1.4-3.7-2.6-5.7-3.7c-2-1.1-4-2-6.2-2.7
	c-4.2-1.5-8.6-2.2-13.1-2.3c-4.4,0-8.8,0.7-13.1,2.2C12,18,9.9,18.9,7.9,20c-2,1-3.9,2.3-5.6,3.7l-0.1,0.1C1.9,24.1,1.3,24,1,23.6
	C0.8,23.3,0.8,22.8,1.1,22.5"/>
</svg>
