<?xml version="1.0" encoding="utf-8"?>
<!-- Generator: Adobe Illustrator 24.0.1, SVG Export Plug-In . SVG Version: 6.00 Build 0)  -->
<svg fill="white" version="1.1" id="Layer_1" xmlns="http://www.w3.org/2000/svg" xmlns:xlink="http://www.w3.org/1999/xlink" x="0px" y="0px"
	 viewBox="0 0 70 54" style="enable-background:new 0 0 70 54;" xml:space="preserve">
<style type="text/css">
	.st0{fill:none;stroke:#ffffff;stroke-width:1.5147;stroke-linecap:round;stroke-linejoin:round;}
	.st1{fill-rule:evenodd;clip-rule:evenodd;}
</style>
<path id="Stroke-1" class="st0" d="M68.4,13.3c-2-2.7-12-9.5-12-9.5c-0.9-0.7-5.1-2.4-9.8-2.4c-1.9,0-1.9,0.6-2.1,1.3
	c-0.6,2.4-1.8,7.2-9.3,7.2c-7.5,0-8.7-4.8-9.3-7.2c-0.2-0.8-0.2-1.3-2.1-1.3c-4.7,0-8.9,1.7-9.8,2.4c0,0-10,6.8-12,9.5
	c-0.1,0.2-0.2,0.4-0.1,0.6C2.3,16.4,3.9,20,8,23.1c0.3,0.2,0.6,0.3,0.9,0.1c3-1.1,5.4-2.4,5.4-2.4s1.5,26.8,2.4,29
	c4.1,3.5,18.4,3,18.4,3s14.4,0.6,18.4-3c0.9-2.2,2.4-29,2.4-29s2.3,1.2,5.4,2.4c0.3,0.1,0.7,0.1,0.9-0.1c4.1-3.2,5.7-6.8,6.3-9.3
	C68.5,13.7,68.5,13.5,68.4,13.3z"/>
<path id="Fill-3" class="st1" d="M55.3,30.7c0,0-7.9,1.2-20.5,1.2c-12.6,0-21.1-1.2-21.1-1.2v-10c0,0,5.1,1.2,21.1,1.2
	c16.1,0,21.7-1.2,21.7-1.2L55.3,30.7z"/>
</svg>
